{"glyphs":{":":{"x_min":0,"x_max":144,"ha":144,"o":"m 10 10 b 31 2 57 16 69 44 b 80 71 72 100 51 109 b 30 118 4 103 -7 76 b -19 48 -11 19 10 10 z m 98 245 b 119 237 145 251 157 279 b 168 306 160 335 139 344 b 118 353 92 338 81 311 b 69 283 77 254 98 245 z"},"$":{"x_min":0,"x_max":536,"ha":536,"o":"m 9 125 l -16 123 b -27 83 -32 42 -25 1 b -12 -77 47 -141 123 -162 b 142 -167 162 -170 182 -170 l 139 -250 l 167 -250 l 211 -168 b 260 -162 307 -142 345 -113 b 409 -65 447 19 460 95 b 474 172 475 247 479 320 b 507 342 534 365 560 388 b 626 449 723 549 698 647 b 693 666 682 678 669 685 l 709 759 l 682 759 l 646 692 b 627 695 606 690 587 680 b 529 649 488 594 462 535 b 423 443 413 343 405 244 l 202 -134 b 134 -143 63 -117 25 -56 b -10 -2 -10 65 9 125 z m 233 -126 l 400 184 l 399 172 b 387 48 365 -60 261 -115 b 252 -120 243 -123 233 -126 z m 485 393 b 489 423 494 452 502 482 b 523 555 573 654 631 664 z m 495 361 l 656 661 b 663 657 668 650 671 640 b 677 601 648 551 629 518 b 593 461 548 407 495 361 z"},"?":{"x_min":0,"x_max":272,"ha":272,"o":"m 319 587 b 211 587 117 512 98 445 b 83 350 194 362 183 445 b 128 488 215 550 281 550 b 338 550 374 512 328 435 b 259 322 75 295 56 167 l 80 167 b 94 276 315 294 397 422 b 459 519 405 587 319 587 z m 10 10 b 31 2 57 16 69 44 b 80 71 72 100 51 109 b 30 118 4 103 -7 76 b -19 48 -11 19 10 10 z"},"<":{"x_min":0,"x_max":270,"ha":270,"o":"m 191 96 l 206 133 l 102 211 l 292 296 l 308 334 l 28 211 z"},"'":{"x_min":0,"x_max":0,"ha":0,"o":"m 214 607 b 214 629 204 646 183 646 b 162 646 141 629 135 607 b 131 585 145 567 167 567 b 169 539 128 503 84 488 l 81 469 b 163 488 214 568 214 607 z"},"=":{"x_min":0,"x_max":329,"ha":329,"o":"m 346 319 l 88 319 l 70 281 l 328 281 z m 46 226 l 27 187 l 285 187 l 304 226 z"},"a":{"x_min":0,"x_max":237,"ha":237,"o":"m 3 0 b 29 0 53 18 76 47 b 75 17 89 0 109 0 b 148 0 181 59 283 213 b 282 218 272 227 264 228 b 210 150 149 53 134 53 b 129 53 125 59 140 92 b 156 129 249 302 275 350 l 212 350 l 196 319 b 192 338 178 350 157 350 b 115 350 62 308 3 182 b -52 63 -42 0 3 0 z m 39 53 b 18 53 27 102 61 175 b 94 248 133 307 166 307 b 177 307 180 298 178 285 b 147 227 111 157 91 109 b 77 78 58 53 39 53 z"},"L":{"x_min":0,"x_max":584,"ha":584,"o":"m 835 -167 b 871 -160 907 -138 923 -103 b 933 -81 938 -48 915 -32 b 909 -28 903 -35 907 -40 b 912 -47 911 -57 909 -65 b 901 -90 878 -108 854 -116 b 786 -135 693 -100 632 -68 b 534 -17 451 65 352 118 b 361 128 369 139 376 150 b 389 168 400 189 409 208 l 424 241 b 443 244 462 249 481 255 b 607 297 715 400 759 526 b 818 699 662 771 534 679 b 509 693 476 699 440 693 b 396 686 356 665 320 640 b 250 589 188 514 177 424 b 170 363 200 306 252 275 b 285 253 323 242 361 239 b 355 219 347 199 338 181 l 327 162 l 311 138 b 291 146 270 153 249 158 b 203 168 155 172 109 159 b 89 154 71 144 56 129 b 27 99 32 53 68 30 b 119 -1 189 17 241 37 l 245 39 l 249 40 l 264 47 l 286 60 b 300 69 313 79 325 90 b 387 52 441 0 496 -45 b 564 -100 643 -149 731 -166 b 764 -173 801 -175 835 -167 z m 92 44 b 43 62 52 110 95 130 b 122 142 152 144 182 141 b 220 138 256 127 289 110 b 287 108 284 106 282 104 l 266 90 b 223 58 145 26 92 44 z m 228 476 b 258 551 312 619 385 657 b 403 666 422 674 442 676 b 467 680 494 677 516 664 b 500 650 485 634 471 614 b 432 558 415 491 404 424 l 398 390 b 377 392 355 400 334 414 b 328 418 321 409 327 404 b 349 384 372 373 394 369 b 388 336 381 303 371 272 b 345 270 318 273 293 284 b 206 319 198 396 228 476 z m 441 287 b 450 316 459 346 466 377 b 531 403 585 479 592 553 b 596 593 587 626 567 651 b 653 750 790 677 724 540 b 680 454 598 377 517 325 b 494 310 468 296 441 287 z m 473 412 b 481 452 491 490 504 528 b 516 563 531 597 551 629 b 583 566 542 473 494 429 b 487 423 480 417 473 412 z"},"3":{"x_min":0,"x_max":2955,"ha":2955,"o":"m 1492 612 b 1519 612 1537 623 1542 649 b 1545 661 1545 676 1545 691 b 1545 715 1549 749 1540 772 b 1533 792 1510 798 1490 798 b 1471 797 1452 788 1448 765 b 1441 743 1443 711 1443 684 b 1443 673 1443 663 1446 651 b 1450 626 1464 612 1492 612 z m 987 -247 b 1007 -247 1009 -227 1009 -212 l 998 -212 b 998 -217 999 -224 997 -229 b 992 -237 981 -238 977 -232 b 970 -224 973 -206 973 -200 b 973 -191 970 -172 976 -165 b 981 -159 992 -159 997 -167 b 999 -172 998 -180 998 -184 l 1009 -184 b 1009 -169 1009 -153 990 -153 b 968 -149 959 -164 959 -181 b 959 -205 953 -247 987 -247 z m 1039 -234 b 1028 -230 1031 -201 1031 -191 l 1031 -177 b 1031 -167 1039 -158 1051 -164 b 1061 -167 1059 -193 1059 -203 b 1059 -215 1060 -246 1039 -234 z m 1046 -247 b 1074 -247 1072 -218 1072 -200 b 1072 -180 1074 -153 1046 -153 b 1020 -149 1020 -172 1020 -197 b 1020 -216 1016 -247 1046 -247 z m 1085 -246 l 1095 -246 l 1095 -177 l 1111 -246 l 1121 -246 l 1136 -177 l 1136 -246 l 1146 -246 l 1144 -153 l 1131 -153 l 1117 -227 l 1098 -153 l 1085 -153 z m 1054 -128 l 1069 -128 l 1069 -85 l 1087 -85 l 1087 -77 l 1069 -77 l 1069 -44 l 1091 -44 l 1091 -35 l 1054 -35 z m 1161 -246 l 1171 -246 l 1173 -177 l 1185 -246 l 1196 -246 l 1211 -177 l 1213 -246 l 1222 -246 l 1218 -153 l 1206 -153 l 1192 -227 l 1175 -153 l 1161 -153 z m 1126 -128 b 1151 -128 1151 -103 1151 -83 b 1151 -65 1153 -38 1128 -33 b 1098 -33 1098 -57 1098 -79 b 1098 -100 1096 -128 1126 -128 z m 1121 -120 b 1106 -115 1112 -85 1112 -77 l 1112 -62 b 1112 -50 1121 -39 1131 -45 b 1141 -50 1138 -77 1138 -86 b 1138 -100 1138 -124 1121 -120 z m 1237 -246 l 1274 -246 l 1274 -237 l 1252 -237 l 1252 -201 l 1269 -201 l 1269 -191 l 1252 -191 l 1252 -162 l 1274 -162 l 1274 -153 l 1237 -153 z m 1164 -35 l 1164 -128 l 1175 -128 l 1175 -85 l 1185 -85 l 1199 -128 l 1213 -128 l 1199 -83 b 1215 -77 1213 -45 1199 -38 b 1189 -33 1175 -35 1164 -35 z m 1283 -153 l 1283 -246 l 1298 -246 l 1298 -201 l 1308 -201 l 1319 -246 l 1331 -246 l 1318 -200 b 1333 -193 1331 -164 1319 -154 b 1309 -149 1297 -153 1283 -153 z m 1175 -77 l 1175 -44 b 1189 -44 1199 -45 1199 -60 b 1199 -75 1189 -77 1175 -77 z m 1298 -191 l 1298 -162 b 1309 -162 1318 -164 1318 -177 b 1318 -191 1309 -191 1298 -191 z m 1367 -247 b 1390 -247 1391 -227 1391 -212 l 1378 -212 b 1378 -217 1382 -224 1377 -229 b 1376 -237 1363 -238 1357 -232 b 1351 -224 1354 -206 1354 -200 b 1354 -191 1351 -172 1357 -165 b 1363 -159 1376 -159 1377 -167 b 1382 -172 1378 -180 1378 -184 l 1391 -184 b 1391 -169 1390 -153 1373 -153 b 1351 -149 1342 -164 1342 -181 b 1342 -205 1333 -247 1367 -247 z m 1260 -128 l 1274 -128 l 1274 -44 l 1291 -44 l 1291 -35 l 1244 -35 l 1244 -44 l 1260 -44 z m 1406 -246 l 1418 -246 l 1418 -153 l 1406 -153 z m 1298 -128 l 1309 -128 l 1309 -85 l 1334 -85 l 1334 -128 l 1347 -128 l 1347 -35 l 1334 -35 l 1334 -77 l 1309 -77 l 1309 -35 l 1298 -35 z m 1428 -246 l 1441 -246 l 1446 -222 l 1464 -222 l 1470 -246 l 1481 -246 l 1460 -153 l 1448 -153 z m 1448 -215 l 1455 -169 l 1463 -215 z m 1361 -128 l 1398 -128 l 1398 -121 l 1376 -121 l 1376 -85 l 1394 -85 l 1394 -77 l 1376 -77 l 1376 -44 l 1398 -44 l 1398 -35 l 1361 -35 z m 1490 -246 l 1528 -246 l 1528 -237 l 1503 -237 l 1503 -153 l 1490 -153 z m 1438 -128 l 1448 -128 l 1448 -85 l 1464 -85 l 1464 -77 l 1448 -77 l 1448 -44 l 1473 -44 l 1473 -35 l 1438 -35 z m 1580 -246 l 1589 -246 l 1610 -153 l 1600 -153 l 1584 -222 l 1570 -153 l 1560 -153 z m 1514 -128 b 1533 -121 1531 -95 1531 -78 l 1531 -35 l 1519 -35 l 1519 -77 b 1519 -88 1522 -121 1504 -121 b 1486 -121 1492 -88 1492 -77 l 1492 -35 l 1481 -35 l 1481 -85 b 1481 -91 1480 -100 1481 -106 b 1483 -124 1494 -132 1514 -128 z m 1621 -246 l 1660 -246 l 1660 -237 l 1634 -237 l 1634 -201 l 1654 -201 l 1654 -191 l 1634 -191 l 1634 -162 l 1660 -162 l 1660 -153 l 1621 -153 z m 1545 -128 l 1580 -128 l 1580 -121 l 1559 -121 l 1559 -35 l 1545 -35 z m 1669 -153 l 1669 -246 l 1682 -246 l 1682 -201 l 1691 -201 l 1703 -246 l 1715 -246 l 1701 -200 b 1718 -194 1718 -164 1705 -154 b 1694 -149 1680 -153 1669 -153 z m 1173 359 l 1173 263 l 1185 263 l 1185 307 b 1196 307 1203 306 1213 313 b 1218 321 1218 337 1215 349 b 1206 364 1185 359 1173 359 z m 1682 -191 l 1682 -162 b 1694 -162 1701 -164 1701 -177 b 1701 -191 1694 -191 1682 -191 z m 1589 -128 l 1625 -128 l 1625 -121 l 1602 -121 l 1602 -35 l 1589 -35 z m 1185 315 l 1185 353 b 1199 353 1205 353 1205 336 b 1205 328 1205 322 1199 318 b 1196 315 1190 315 1185 315 z m 1752 -247 b 1769 -247 1776 -232 1770 -217 b 1770 -205 1758 -200 1753 -191 b 1744 -184 1734 -177 1739 -167 b 1742 -162 1747 -159 1753 -162 b 1758 -164 1758 -172 1761 -180 l 1770 -174 b 1770 -165 1769 -158 1758 -153 b 1753 -149 1742 -150 1734 -158 b 1720 -165 1726 -186 1738 -197 b 1744 -203 1761 -215 1761 -225 b 1761 -232 1754 -238 1744 -234 b 1739 -232 1738 -222 1738 -216 l 1726 -218 b 1726 -234 1734 -247 1752 -247 z m 1232 263 l 1266 263 l 1266 273 l 1240 273 l 1240 359 l 1232 359 z m 1091 404 b 1130 416 1121 472 1121 504 l 1121 587 l 1096 587 l 1096 461 b 1096 440 1089 412 1062 420 b 1046 429 1046 450 1046 464 l 1046 587 l 1023 587 l 1023 474 b 1023 455 1023 441 1028 429 b 1038 404 1069 393 1091 404 z m 1784 -246 l 1796 -246 l 1796 -153 l 1784 -153 z m 1660 -128 l 1670 -128 l 1676 -105 l 1694 -105 l 1697 -128 l 1711 -128 l 1691 -35 l 1676 -35 z m 1276 263 l 1310 263 l 1310 273 l 1287 273 l 1287 307 l 1307 307 l 1307 318 l 1287 318 l 1287 353 l 1310 353 l 1310 359 l 1276 359 z m 1676 -97 l 1684 -54 l 1691 -97 z m 1829 -234 b 1819 -230 1826 -201 1826 -191 l 1826 -177 b 1826 -167 1829 -158 1844 -164 b 1852 -167 1850 -193 1850 -203 b 1850 -215 1850 -246 1829 -234 z m 1837 -247 b 1863 -247 1862 -218 1862 -200 b 1862 -180 1865 -153 1839 -153 b 1809 -149 1809 -172 1809 -197 b 1809 -216 1807 -247 1837 -247 z m 1316 263 l 1328 263 l 1331 289 l 1351 289 l 1355 263 l 1369 263 l 1351 359 l 1335 359 z m 1720 -128 l 1733 -128 l 1733 -65 l 1757 -128 l 1766 -128 l 1766 -35 l 1754 -35 l 1754 -97 l 1729 -35 l 1720 -35 z m 1331 297 l 1342 344 l 1351 297 z m 1192 401 b 1222 401 1239 429 1234 457 b 1232 482 1213 494 1196 507 b 1182 520 1161 533 1169 552 b 1170 562 1179 570 1192 565 b 1205 563 1210 547 1211 533 l 1232 541 b 1232 555 1227 570 1215 580 b 1202 587 1183 590 1171 587 b 1141 578 1136 541 1150 518 b 1158 504 1175 494 1185 483 b 1196 478 1200 469 1205 462 b 1213 453 1215 433 1203 427 b 1196 418 1183 420 1175 429 b 1169 435 1169 450 1168 461 l 1141 454 b 1144 425 1161 401 1192 401 z m 1876 -246 l 1883 -246 l 1883 -181 l 1913 -246 l 1923 -246 l 1923 -153 l 1912 -153 l 1912 -215 l 1883 -153 l 1876 -153 z m 1400 263 b 1418 263 1428 278 1422 294 b 1421 305 1410 311 1400 318 b 1394 324 1387 332 1390 344 b 1391 354 1405 358 1411 332 l 1422 334 b 1422 344 1418 354 1410 358 b 1400 363 1390 359 1385 355 b 1369 344 1377 324 1390 314 b 1396 306 1411 297 1411 284 b 1411 277 1406 273 1396 273 b 1390 277 1390 287 1390 294 l 1376 289 b 1377 277 1387 263 1400 263 z m 1782 -35 l 1782 -128 b 1791 -128 1809 -130 1819 -123 b 1833 -116 1828 -97 1828 -83 b 1828 -71 1833 -50 1823 -42 b 1811 -33 1793 -35 1782 -35 z m 1795 -121 l 1795 -44 b 1807 -44 1816 -44 1817 -60 l 1817 -106 b 1813 -121 1805 -121 1795 -121 z m 1433 263 l 1472 263 l 1472 273 l 1448 273 l 1448 307 l 1464 307 l 1464 318 l 1448 318 l 1448 353 l 1471 353 l 1471 359 l 1433 359 z m 1022 614 l 1046 614 l 1046 697 b 1062 697 1085 695 1096 708 b 1117 722 1117 755 1106 777 b 1096 795 1078 797 1061 797 l 1022 797 z m 1257 404 l 1326 404 l 1326 420 l 1281 420 l 1281 488 l 1318 488 l 1318 507 l 1281 507 l 1281 565 l 1326 565 l 1326 587 l 1257 587 z m 1046 716 l 1046 778 b 1054 778 1063 780 1074 777 b 1089 774 1089 757 1089 745 b 1089 733 1087 721 1074 718 b 1063 715 1054 716 1046 716 z m 1524 263 l 1537 263 l 1557 359 l 1545 359 l 1531 289 l 1518 359 l 1503 359 z m 1131 614 l 1202 614 l 1202 630 l 1156 630 l 1156 697 l 1193 697 l 1193 716 l 1156 716 l 1156 778 l 1200 778 l 1200 797 l 1131 797 z m 1566 263 l 1580 263 l 1580 359 l 1566 359 z m 1617 263 b 1632 263 1643 278 1637 294 b 1636 305 1624 313 1618 318 b 1612 324 1601 332 1605 344 b 1610 354 1623 358 1625 332 l 1637 334 b 1636 344 1632 354 1624 358 b 1618 363 1607 359 1600 355 b 1584 344 1593 324 1604 314 b 1613 306 1627 297 1625 284 b 1625 277 1621 273 1613 273 b 1607 277 1604 287 1604 294 l 1591 289 b 1593 277 1600 263 1617 263 z m 1448 401 b 1472 401 1490 414 1492 439 b 1497 453 1494 466 1494 483 b 1494 506 1500 539 1490 561 b 1483 581 1464 587 1442 587 b 1422 587 1406 578 1398 557 b 1394 533 1396 504 1396 478 b 1396 464 1396 453 1398 440 b 1400 414 1421 401 1448 401 z m 1433 422 b 1421 429 1422 447 1422 461 l 1422 494 b 1422 512 1419 533 1422 551 b 1427 561 1431 565 1441 565 b 1448 570 1455 565 1463 561 b 1472 554 1471 543 1471 533 l 1471 466 b 1471 461 1472 453 1471 447 b 1470 439 1464 429 1455 422 b 1450 420 1441 420 1433 422 z m 1649 263 l 1665 263 l 1665 359 l 1649 359 z m 1222 797 l 1222 614 l 1249 614 l 1249 698 l 1268 698 l 1293 614 l 1316 614 l 1293 705 b 1323 715 1321 775 1293 790 b 1274 800 1246 797 1222 797 z m 1690 263 l 1700 263 l 1700 353 l 1715 353 l 1715 359 l 1672 359 l 1672 353 l 1690 353 z m 1249 716 l 1249 778 b 1257 778 1266 780 1276 776 b 1287 772 1289 759 1289 752 b 1291 737 1287 723 1276 718 b 1266 716 1257 716 1249 716 z m 1522 404 l 1542 404 l 1542 528 l 1596 404 l 1613 404 l 1613 587 l 1591 587 l 1591 464 l 1540 587 l 1522 587 z m 1385 612 b 1415 612 1432 638 1427 668 b 1421 688 1405 701 1390 716 b 1375 727 1354 743 1357 764 b 1361 775 1373 780 1385 780 b 1398 776 1400 757 1405 745 l 1424 753 b 1422 765 1419 782 1408 790 b 1396 798 1376 800 1363 795 b 1331 788 1326 753 1342 724 b 1351 713 1367 701 1377 692 b 1389 684 1394 676 1398 671 b 1406 661 1408 644 1398 636 b 1390 629 1376 630 1367 638 b 1361 646 1357 657 1356 671 l 1331 665 b 1333 635 1351 612 1385 612 z m 1643 404 l 1711 404 l 1711 420 l 1668 420 l 1668 587 l 1643 587 z m 1483 633 b 1470 640 1471 657 1471 669 l 1471 701 b 1471 719 1464 745 1472 759 b 1475 772 1480 777 1490 778 b 1497 780 1504 780 1510 772 b 1519 764 1519 753 1519 741 l 1519 657 b 1519 649 1518 638 1505 633 b 1500 630 1490 630 1483 633 z m 1837 404 l 1862 404 l 1862 429 l 1837 429 z m 1757 441 l 1757 404 l 1784 404 l 1784 448 b 1784 455 1782 464 1785 474 l 1798 509 b 1807 537 1816 561 1823 587 l 1798 587 l 1770 499 l 1742 587 l 1720 587 l 1744 504 b 1752 494 1754 483 1757 469 b 1758 461 1757 450 1757 441 z m 1570 614 l 1591 614 l 1591 737 l 1643 614 l 1661 614 l 1661 797 l 1637 797 l 1637 673 l 1585 797 l 1570 797 z m 1844 442 l 1852 442 l 1862 587 l 1837 587 z m 1678 614 l 1701 614 l 1711 657 l 1749 657 l 1757 614 l 1782 614 l 1742 797 l 1718 797 z m 1715 676 l 1731 759 l 1744 676 z m 1800 614 l 1872 614 l 1872 630 l 1827 630 l 1827 797 l 1800 797 z m 224 -4 l 259 -4 l 261 91 l 281 -4 l 308 -4 l 325 93 l 329 -4 l 362 -4 l 361 230 l 321 230 l 294 83 l 265 230 l 227 230 z m 392 -4 l 429 -4 l 429 110 l 470 -4 l 499 -4 l 499 230 l 462 230 l 462 118 l 422 230 l 392 230 z m 525 -4 l 565 -4 l 565 38 l 525 38 z m 646 -7 b 672 -1 686 19 687 40 b 691 70 681 96 660 118 l 641 139 b 633 147 624 153 619 167 b 616 175 617 198 635 197 b 651 194 647 167 650 151 l 686 153 b 686 181 683 215 656 228 b 623 244 584 221 583 187 b 579 168 583 147 592 133 b 595 124 606 118 614 108 b 627 93 650 74 650 50 b 650 40 647 32 640 30 b 633 27 629 32 626 38 b 617 51 617 66 617 80 l 580 78 b 580 57 583 38 590 20 b 599 -1 624 -10 646 -7 z m 788 3 l 790 -4 l 820 -4 l 820 118 l 760 118 l 760 83 l 783 83 b 783 70 787 19 760 30 b 741 35 746 67 746 80 l 746 165 b 746 183 750 199 768 197 b 778 192 780 188 780 147 l 818 147 b 818 173 820 209 793 225 b 778 235 758 235 740 230 b 720 221 710 201 706 181 b 703 160 705 136 705 113 b 705 91 703 70 706 48 b 708 30 714 8 730 0 b 746 -10 773 -10 788 3 z m 828 -34 l 861 -34 l 928 260 l 891 260 z m 983 -9 b 992 -10 1003 -9 1011 -4 b 1038 8 1041 42 1041 71 l 1004 73 b 1004 58 1006 30 989 27 b 982 26 974 30 974 42 l 974 180 b 974 192 982 197 989 195 b 1006 192 1004 165 1004 150 l 1041 152 b 1041 180 1038 215 1011 227 b 1003 231 992 233 983 231 b 960 229 936 211 936 182 l 936 41 b 936 12 960 -6 983 -9 z m 1061 -6 l 1103 -6 l 1103 93 l 1138 93 l 1138 -6 l 1176 -6 l 1176 229 l 1138 229 l 1138 134 l 1103 134 l 1103 229 l 1061 229 z m 1196 -6 l 1234 -6 l 1234 96 l 1245 96 l 1265 -6 l 1304 -6 l 1278 103 b 1299 117 1306 146 1306 168 b 1306 211 1281 229 1264 229 l 1196 229 z m 1255 129 l 1234 129 l 1234 195 l 1246 195 b 1270 195 1268 136 1255 129 z m 1326 -6 l 1367 -6 l 1367 229 l 1326 229 z m 1452 -9 b 1477 -3 1492 18 1493 39 b 1497 69 1485 95 1465 117 l 1446 138 b 1438 146 1431 152 1426 165 b 1423 175 1424 197 1440 195 b 1455 192 1454 165 1454 150 l 1492 152 b 1492 180 1488 215 1460 227 b 1430 241 1389 221 1387 186 b 1385 167 1387 146 1399 131 b 1402 124 1411 117 1418 107 b 1432 92 1454 74 1454 48 b 1454 39 1454 30 1446 29 b 1438 26 1433 30 1432 37 b 1424 50 1424 65 1424 78 l 1387 77 b 1387 56 1387 37 1395 20 b 1406 -3 1431 -12 1452 -9 z m 1536 -6 l 1576 -6 l 1576 189 l 1609 189 l 1609 229 l 1502 229 l 1502 189 l 1536 189 z m 1620 -6 l 1657 -6 l 1657 90 l 1676 -6 l 1702 -6 l 1721 92 l 1723 -6 l 1758 -6 l 1757 229 l 1715 229 l 1689 81 l 1661 229 l 1625 229 z m 1763 -6 l 1803 -6 l 1811 50 l 1837 50 l 1844 -6 l 1883 -6 l 1843 229 l 1806 229 z m 1817 83 l 1823 131 l 1830 83 z m 1954 -9 b 1978 -3 1994 18 1995 39 b 1998 69 1987 95 1967 117 l 1948 138 b 1940 146 1932 152 1928 165 b 1924 175 1926 197 1942 195 b 1957 192 1956 165 1956 150 l 1994 152 b 1994 180 1990 215 1962 227 b 1931 241 1891 221 1889 186 b 1887 167 1889 146 1900 131 b 1903 124 1913 117 1919 107 b 1933 92 1956 74 1956 48 b 1956 39 1956 30 1948 29 b 1940 26 1935 30 1933 37 b 1926 50 1926 65 1926 78 l 1889 77 b 1889 56 1889 37 1897 20 b 1907 -3 1932 -12 1954 -9 z m 2005 90 l 2055 90 l 2055 131 l 2005 131 z m 2123 -9 b 2132 -10 2143 -9 2150 -4 b 2177 8 2181 42 2181 71 l 2144 73 b 2144 58 2146 30 2128 27 b 2122 26 2114 30 2114 42 l 2114 180 b 2114 192 2122 197 2128 195 b 2146 192 2144 165 2144 150 l 2181 152 b 2181 180 2177 215 2150 227 b 2143 231 2132 233 2123 231 b 2100 229 2075 211 2075 182 l 2075 41 b 2075 12 2100 -6 2123 -9 z m 2186 -6 l 2225 -6 l 2233 50 l 2259 50 l 2266 -6 l 2305 -6 l 2265 229 l 2228 229 z m 2239 83 l 2245 131 l 2252 83 z m 2310 -6 l 2349 -6 l 2349 96 l 2360 96 l 2380 -6 l 2419 -6 l 2393 103 b 2414 117 2421 146 2421 168 b 2421 211 2396 229 2379 229 l 2310 229 z m 2370 129 l 2349 129 l 2349 195 l 2361 195 b 2385 195 2383 136 2370 129 z m 2476 -4 b 2492 -9 2513 -9 2528 1 b 2554 16 2552 52 2552 78 l 2552 146 b 2552 171 2554 208 2528 224 b 2513 233 2492 233 2476 229 b 2455 221 2444 200 2443 179 b 2441 167 2441 155 2441 144 l 2441 78 b 2441 67 2441 56 2443 43 b 2444 23 2455 3 2476 -4 z m 2501 29 b 2493 27 2485 32 2484 37 b 2478 52 2480 71 2480 83 l 2480 139 b 2480 152 2478 171 2484 187 b 2485 190 2493 195 2501 195 b 2508 192 2513 189 2513 180 b 2516 169 2514 158 2514 146 l 2514 78 b 2514 66 2516 54 2513 43 b 2513 33 2508 32 2501 29 z m 2572 -6 l 2662 -6 l 2662 33 l 2613 33 l 2613 229 l 2572 229 z"},";":{"x_min":0,"x_max":144,"ha":144,"o":"m -84 -72 b -54 -76 45 -21 69 44 b 80 71 72 100 51 109 b 30 118 4 103 -7 76 b -17 54 -13 31 -1 18 b -20 -14 -50 -50 -84 -72 z m 98 245 b 119 237 145 251 157 279 b 168 306 160 335 139 344 b 118 353 92 338 81 311 b 69 283 77 254 98 245 z"},"J":{"x_min":0,"x_max":702,"ha":702,"o":"m 263 -97 b 476 -109 608 82 683 286 b 721 386 771 609 877 674 b 895 678 911 683 924 688 b 935 693 937 702 923 703 b 909 704 878 700 845 685 b 824 683 803 684 782 686 b 732 691 684 702 635 709 b 534 725 396 721 324 639 b 287 597 271 543 277 494 b 244 485 213 470 185 451 b 122 407 83 332 81 255 b 49 212 30 160 32 105 b 37 -22 144 -92 263 -97 z m 54 106 b 51 149 62 190 82 226 b 95 144 175 87 255 79 b 326 71 399 106 433 170 b 462 220 465 281 419 322 b 380 357 326 365 276 362 b 213 358 153 329 108 285 b 120 380 192 450 279 478 b 288 441 310 406 346 382 b 419 333 519 366 567 441 b 588 474 601 523 575 557 b 571 563 561 557 565 551 b 581 519 562 483 543 457 b 482 378 397 371 349 404 b 323 422 309 452 308 485 b 327 489 347 491 367 491 b 396 491 429 485 451 466 b 454 464 458 464 460 467 b 462 469 462 473 459 475 b 447 487 431 494 415 498 b 380 507 344 507 308 501 b 311 538 328 577 359 613 b 423 688 539 693 631 683 b 690 677 751 664 812 666 b 793 652 776 635 761 612 b 704 514 671 409 632 305 b 573 146 446 -40 273 -55 b 230 -58 184 -55 145 -35 b 92 -8 57 47 54 106 z m 105 258 b 147 307 211 340 277 344 b 320 347 367 333 394 299 b 430 255 406 193 371 157 b 301 85 162 110 118 200 b 108 218 105 238 105 258 z"},"V":{"x_min":0,"x_max":678,"ha":678,"o":"m 400 -25 b 495 -44 560 56 606 148 b 660 263 859 625 1095 684 b 1116 689 1138 692 1161 692 b 1168 692 1168 701 1162 705 b 1139 718 1101 721 1077 717 b 858 684 675 352 585 166 b 557 94 489 -3 433 15 b 393 28 419 92 429 115 b 464 194 529 277 582 347 b 609 382 638 417 667 451 b 707 498 753 543 771 606 b 778 628 770 661 748 676 b 731 690 710 693 690 699 b 643 708 594 701 549 689 l 525 681 b 468 725 386 700 328 669 b 225 613 138 529 78 428 b 39 360 18 280 34 202 b 55 103 153 46 248 82 b 262 87 276 95 288 103 l 298 111 l 302 114 l 308 121 b 304 117 306 135 300 130 b 266 103 222 89 179 96 b 83 112 52 202 64 289 b 82 415 184 535 285 609 b 336 645 400 682 464 676 b 474 675 483 673 491 669 b 382 624 280 545 212 452 b 185 413 159 367 161 318 b 162 275 191 243 230 228 b 268 214 311 228 343 246 b 439 301 530 417 559 523 b 571 570 573 628 540 667 b 587 681 636 686 685 676 b 709 672 719 657 714 632 b 708 601 680 575 658 549 b 550 436 417 276 363 142 b 337 72 331 -11 400 -25 z m 227 264 b 157 299 200 389 233 438 b 284 511 353 573 430 618 b 455 633 482 646 509 656 b 524 642 532 621 531 597 b 528 555 510 514 492 477 b 462 418 422 364 375 319 b 338 285 277 237 227 264 z"},"\"":{"x_min":0,"x_max":210,"ha":210,"o":"m 214 458 b 214 480 204 497 183 497 b 162 497 141 480 135 458 b 131 436 145 418 167 418 b 169 390 128 354 84 339 l 81 320 b 163 339 214 419 214 458 z m 314 458 b 314 480 304 497 283 497 b 262 497 241 480 235 458 b 231 436 245 418 267 418 b 269 390 228 354 184 339 l 181 320 b 263 339 314 419 314 458 z"},"7":{"x_min":0,"x_max":2955,"ha":2955,"o":"m 1492 612 b 1519 612 1537 623 1542 649 b 1545 661 1545 676 1545 691 b 1545 715 1549 749 1540 772 b 1533 792 1510 798 1490 798 b 1471 797 1452 788 1448 765 b 1441 743 1443 711 1443 684 b 1443 673 1443 663 1446 651 b 1450 626 1464 612 1492 612 z m 987 -247 b 1007 -247 1009 -227 1009 -212 l 998 -212 b 998 -217 999 -224 997 -229 b 992 -237 981 -238 977 -232 b 970 -224 973 -206 973 -200 b 973 -191 970 -172 976 -165 b 981 -159 992 -159 997 -167 b 999 -172 998 -180 998 -184 l 1009 -184 b 1009 -169 1009 -153 990 -153 b 968 -149 959 -164 959 -181 b 959 -205 953 -247 987 -247 z m 1039 -234 b 1028 -230 1031 -201 1031 -191 l 1031 -177 b 1031 -167 1039 -158 1051 -164 b 1061 -167 1059 -193 1059 -203 b 1059 -215 1060 -246 1039 -234 z m 1046 -247 b 1074 -247 1072 -218 1072 -200 b 1072 -180 1074 -153 1046 -153 b 1020 -149 1020 -172 1020 -197 b 1020 -216 1016 -247 1046 -247 z m 1085 -246 l 1095 -246 l 1095 -177 l 1111 -246 l 1121 -246 l 1136 -177 l 1136 -246 l 1146 -246 l 1144 -153 l 1131 -153 l 1117 -227 l 1098 -153 l 1085 -153 z m 1054 -128 l 1069 -128 l 1069 -85 l 1087 -85 l 1087 -77 l 1069 -77 l 1069 -44 l 1091 -44 l 1091 -35 l 1054 -35 z m 1161 -246 l 1171 -246 l 1173 -177 l 1185 -246 l 1196 -246 l 1211 -177 l 1213 -246 l 1222 -246 l 1218 -153 l 1206 -153 l 1192 -227 l 1175 -153 l 1161 -153 z m 1126 -128 b 1151 -128 1151 -103 1151 -83 b 1151 -65 1153 -38 1128 -33 b 1098 -33 1098 -57 1098 -79 b 1098 -100 1096 -128 1126 -128 z m 1121 -120 b 1106 -115 1112 -85 1112 -77 l 1112 -62 b 1112 -50 1121 -39 1131 -45 b 1141 -50 1138 -77 1138 -86 b 1138 -100 1138 -124 1121 -120 z m 1237 -246 l 1274 -246 l 1274 -237 l 1252 -237 l 1252 -201 l 1269 -201 l 1269 -191 l 1252 -191 l 1252 -162 l 1274 -162 l 1274 -153 l 1237 -153 z m 1164 -35 l 1164 -128 l 1175 -128 l 1175 -85 l 1185 -85 l 1199 -128 l 1213 -128 l 1199 -83 b 1215 -77 1213 -45 1199 -38 b 1189 -33 1175 -35 1164 -35 z m 1283 -153 l 1283 -246 l 1298 -246 l 1298 -201 l 1308 -201 l 1319 -246 l 1331 -246 l 1318 -200 b 1333 -193 1331 -164 1319 -154 b 1309 -149 1297 -153 1283 -153 z m 1175 -77 l 1175 -44 b 1189 -44 1199 -45 1199 -60 b 1199 -75 1189 -77 1175 -77 z m 1298 -191 l 1298 -162 b 1309 -162 1318 -164 1318 -177 b 1318 -191 1309 -191 1298 -191 z m 1367 -247 b 1390 -247 1391 -227 1391 -212 l 1378 -212 b 1378 -217 1382 -224 1377 -229 b 1376 -237 1363 -238 1357 -232 b 1351 -224 1354 -206 1354 -200 b 1354 -191 1351 -172 1357 -165 b 1363 -159 1376 -159 1377 -167 b 1382 -172 1378 -180 1378 -184 l 1391 -184 b 1391 -169 1390 -153 1373 -153 b 1351 -149 1342 -164 1342 -181 b 1342 -205 1333 -247 1367 -247 z m 1260 -128 l 1274 -128 l 1274 -44 l 1291 -44 l 1291 -35 l 1244 -35 l 1244 -44 l 1260 -44 z m 1406 -246 l 1418 -246 l 1418 -153 l 1406 -153 z m 1298 -128 l 1309 -128 l 1309 -85 l 1334 -85 l 1334 -128 l 1347 -128 l 1347 -35 l 1334 -35 l 1334 -77 l 1309 -77 l 1309 -35 l 1298 -35 z m 1428 -246 l 1441 -246 l 1446 -222 l 1464 -222 l 1470 -246 l 1481 -246 l 1460 -153 l 1448 -153 z m 1448 -215 l 1455 -169 l 1463 -215 z m 1361 -128 l 1398 -128 l 1398 -121 l 1376 -121 l 1376 -85 l 1394 -85 l 1394 -77 l 1376 -77 l 1376 -44 l 1398 -44 l 1398 -35 l 1361 -35 z m 1490 -246 l 1528 -246 l 1528 -237 l 1503 -237 l 1503 -153 l 1490 -153 z m 1438 -128 l 1448 -128 l 1448 -85 l 1464 -85 l 1464 -77 l 1448 -77 l 1448 -44 l 1473 -44 l 1473 -35 l 1438 -35 z m 1580 -246 l 1589 -246 l 1610 -153 l 1600 -153 l 1584 -222 l 1570 -153 l 1560 -153 z m 1514 -128 b 1533 -121 1531 -95 1531 -78 l 1531 -35 l 1519 -35 l 1519 -77 b 1519 -88 1522 -121 1504 -121 b 1486 -121 1492 -88 1492 -77 l 1492 -35 l 1481 -35 l 1481 -85 b 1481 -91 1480 -100 1481 -106 b 1483 -124 1494 -132 1514 -128 z m 1621 -246 l 1660 -246 l 1660 -237 l 1634 -237 l 1634 -201 l 1654 -201 l 1654 -191 l 1634 -191 l 1634 -162 l 1660 -162 l 1660 -153 l 1621 -153 z m 1545 -128 l 1580 -128 l 1580 -121 l 1559 -121 l 1559 -35 l 1545 -35 z m 1669 -153 l 1669 -246 l 1682 -246 l 1682 -201 l 1691 -201 l 1703 -246 l 1715 -246 l 1701 -200 b 1718 -194 1718 -164 1705 -154 b 1694 -149 1680 -153 1669 -153 z m 1173 359 l 1173 263 l 1185 263 l 1185 307 b 1196 307 1203 306 1213 313 b 1218 321 1218 337 1215 349 b 1206 364 1185 359 1173 359 z m 1682 -191 l 1682 -162 b 1694 -162 1701 -164 1701 -177 b 1701 -191 1694 -191 1682 -191 z m 1589 -128 l 1625 -128 l 1625 -121 l 1602 -121 l 1602 -35 l 1589 -35 z m 1185 315 l 1185 353 b 1199 353 1205 353 1205 336 b 1205 328 1205 322 1199 318 b 1196 315 1190 315 1185 315 z m 1752 -247 b 1769 -247 1776 -232 1770 -217 b 1770 -205 1758 -200 1753 -191 b 1744 -184 1734 -177 1739 -167 b 1742 -162 1747 -159 1753 -162 b 1758 -164 1758 -172 1761 -180 l 1770 -174 b 1770 -165 1769 -158 1758 -153 b 1753 -149 1742 -150 1734 -158 b 1720 -165 1726 -186 1738 -197 b 1744 -203 1761 -215 1761 -225 b 1761 -232 1754 -238 1744 -234 b 1739 -232 1738 -222 1738 -216 l 1726 -218 b 1726 -234 1734 -247 1752 -247 z m 1232 263 l 1266 263 l 1266 273 l 1240 273 l 1240 359 l 1232 359 z m 1091 404 b 1130 416 1121 472 1121 504 l 1121 587 l 1096 587 l 1096 461 b 1096 440 1089 412 1062 420 b 1046 429 1046 450 1046 464 l 1046 587 l 1023 587 l 1023 474 b 1023 455 1023 441 1028 429 b 1038 404 1069 393 1091 404 z m 1784 -246 l 1796 -246 l 1796 -153 l 1784 -153 z m 1660 -128 l 1670 -128 l 1676 -105 l 1694 -105 l 1697 -128 l 1711 -128 l 1691 -35 l 1676 -35 z m 1276 263 l 1310 263 l 1310 273 l 1287 273 l 1287 307 l 1307 307 l 1307 318 l 1287 318 l 1287 353 l 1310 353 l 1310 359 l 1276 359 z m 1676 -97 l 1684 -54 l 1691 -97 z m 1829 -234 b 1819 -230 1826 -201 1826 -191 l 1826 -177 b 1826 -167 1829 -158 1844 -164 b 1852 -167 1850 -193 1850 -203 b 1850 -215 1850 -246 1829 -234 z m 1837 -247 b 1863 -247 1862 -218 1862 -200 b 1862 -180 1865 -153 1839 -153 b 1809 -149 1809 -172 1809 -197 b 1809 -216 1807 -247 1837 -247 z m 1316 263 l 1328 263 l 1331 289 l 1351 289 l 1355 263 l 1369 263 l 1351 359 l 1335 359 z m 1720 -128 l 1733 -128 l 1733 -65 l 1757 -128 l 1766 -128 l 1766 -35 l 1754 -35 l 1754 -97 l 1729 -35 l 1720 -35 z m 1331 297 l 1342 344 l 1351 297 z m 1192 401 b 1222 401 1239 429 1234 457 b 1232 482 1213 494 1196 507 b 1182 520 1161 533 1169 552 b 1170 562 1179 570 1192 565 b 1205 563 1210 547 1211 533 l 1232 541 b 1232 555 1227 570 1215 580 b 1202 587 1183 590 1171 587 b 1141 578 1136 541 1150 518 b 1158 504 1175 494 1185 483 b 1196 478 1200 469 1205 462 b 1213 453 1215 433 1203 427 b 1196 418 1183 420 1175 429 b 1169 435 1169 450 1168 461 l 1141 454 b 1144 425 1161 401 1192 401 z m 1876 -246 l 1883 -246 l 1883 -181 l 1913 -246 l 1923 -246 l 1923 -153 l 1912 -153 l 1912 -215 l 1883 -153 l 1876 -153 z m 1400 263 b 1418 263 1428 278 1422 294 b 1421 305 1410 311 1400 318 b 1394 324 1387 332 1390 344 b 1391 354 1405 358 1411 332 l 1422 334 b 1422 344 1418 354 1410 358 b 1400 363 1390 359 1385 355 b 1369 344 1377 324 1390 314 b 1396 306 1411 297 1411 284 b 1411 277 1406 273 1396 273 b 1390 277 1390 287 1390 294 l 1376 289 b 1377 277 1387 263 1400 263 z m 1782 -35 l 1782 -128 b 1791 -128 1809 -130 1819 -123 b 1833 -116 1828 -97 1828 -83 b 1828 -71 1833 -50 1823 -42 b 1811 -33 1793 -35 1782 -35 z m 1795 -121 l 1795 -44 b 1807 -44 1816 -44 1817 -60 l 1817 -106 b 1813 -121 1805 -121 1795 -121 z m 1433 263 l 1472 263 l 1472 273 l 1448 273 l 1448 307 l 1464 307 l 1464 318 l 1448 318 l 1448 353 l 1471 353 l 1471 359 l 1433 359 z m 1022 614 l 1046 614 l 1046 697 b 1062 697 1085 695 1096 708 b 1117 722 1117 755 1106 777 b 1096 795 1078 797 1061 797 l 1022 797 z m 1257 404 l 1326 404 l 1326 420 l 1281 420 l 1281 488 l 1318 488 l 1318 507 l 1281 507 l 1281 565 l 1326 565 l 1326 587 l 1257 587 z m 1046 716 l 1046 778 b 1054 778 1063 780 1074 777 b 1089 774 1089 757 1089 745 b 1089 733 1087 721 1074 718 b 1063 715 1054 716 1046 716 z m 1524 263 l 1537 263 l 1557 359 l 1545 359 l 1531 289 l 1518 359 l 1503 359 z m 1131 614 l 1202 614 l 1202 630 l 1156 630 l 1156 697 l 1193 697 l 1193 716 l 1156 716 l 1156 778 l 1200 778 l 1200 797 l 1131 797 z m 1566 263 l 1580 263 l 1580 359 l 1566 359 z m 1617 263 b 1632 263 1643 278 1637 294 b 1636 305 1624 313 1618 318 b 1612 324 1601 332 1605 344 b 1610 354 1623 358 1625 332 l 1637 334 b 1636 344 1632 354 1624 358 b 1618 363 1607 359 1600 355 b 1584 344 1593 324 1604 314 b 1613 306 1627 297 1625 284 b 1625 277 1621 273 1613 273 b 1607 277 1604 287 1604 294 l 1591 289 b 1593 277 1600 263 1617 263 z m 1448 401 b 1472 401 1490 414 1492 439 b 1497 453 1494 466 1494 483 b 1494 506 1500 539 1490 561 b 1483 581 1464 587 1442 587 b 1422 587 1406 578 1398 557 b 1394 533 1396 504 1396 478 b 1396 464 1396 453 1398 440 b 1400 414 1421 401 1448 401 z m 1433 422 b 1421 429 1422 447 1422 461 l 1422 494 b 1422 512 1419 533 1422 551 b 1427 561 1431 565 1441 565 b 1448 570 1455 565 1463 561 b 1472 554 1471 543 1471 533 l 1471 466 b 1471 461 1472 453 1471 447 b 1470 439 1464 429 1455 422 b 1450 420 1441 420 1433 422 z m 1649 263 l 1665 263 l 1665 359 l 1649 359 z m 1222 797 l 1222 614 l 1249 614 l 1249 698 l 1268 698 l 1293 614 l 1316 614 l 1293 705 b 1323 715 1321 775 1293 790 b 1274 800 1246 797 1222 797 z m 1690 263 l 1700 263 l 1700 353 l 1715 353 l 1715 359 l 1672 359 l 1672 353 l 1690 353 z m 1249 716 l 1249 778 b 1257 778 1266 780 1276 776 b 1287 772 1289 759 1289 752 b 1291 737 1287 723 1276 718 b 1266 716 1257 716 1249 716 z m 1522 404 l 1542 404 l 1542 528 l 1596 404 l 1613 404 l 1613 587 l 1591 587 l 1591 464 l 1540 587 l 1522 587 z m 1385 612 b 1415 612 1432 638 1427 668 b 1421 688 1405 701 1390 716 b 1375 727 1354 743 1357 764 b 1361 775 1373 780 1385 780 b 1398 776 1400 757 1405 745 l 1424 753 b 1422 765 1419 782 1408 790 b 1396 798 1376 800 1363 795 b 1331 788 1326 753 1342 724 b 1351 713 1367 701 1377 692 b 1389 684 1394 676 1398 671 b 1406 661 1408 644 1398 636 b 1390 629 1376 630 1367 638 b 1361 646 1357 657 1356 671 l 1331 665 b 1333 635 1351 612 1385 612 z m 1643 404 l 1711 404 l 1711 420 l 1668 420 l 1668 587 l 1643 587 z m 1483 633 b 1470 640 1471 657 1471 669 l 1471 701 b 1471 719 1464 745 1472 759 b 1475 772 1480 777 1490 778 b 1497 780 1504 780 1510 772 b 1519 764 1519 753 1519 741 l 1519 657 b 1519 649 1518 638 1505 633 b 1500 630 1490 630 1483 633 z m 1837 404 l 1862 404 l 1862 429 l 1837 429 z m 1757 441 l 1757 404 l 1784 404 l 1784 448 b 1784 455 1782 464 1785 474 l 1798 509 b 1807 537 1816 561 1823 587 l 1798 587 l 1770 499 l 1742 587 l 1720 587 l 1744 504 b 1752 494 1754 483 1757 469 b 1758 461 1757 450 1757 441 z m 1570 614 l 1591 614 l 1591 737 l 1643 614 l 1661 614 l 1661 797 l 1637 797 l 1637 673 l 1585 797 l 1570 797 z m 1844 442 l 1852 442 l 1862 587 l 1837 587 z m 1678 614 l 1701 614 l 1711 657 l 1749 657 l 1757 614 l 1782 614 l 1742 797 l 1718 797 z m 1715 676 l 1731 759 l 1744 676 z m 1800 614 l 1872 614 l 1872 630 l 1827 630 l 1827 797 l 1800 797 z m 224 -4 l 259 -4 l 261 91 l 281 -4 l 308 -4 l 325 93 l 329 -4 l 362 -4 l 361 230 l 321 230 l 294 83 l 265 230 l 227 230 z m 392 -4 l 429 -4 l 429 110 l 470 -4 l 499 -4 l 499 230 l 462 230 l 462 118 l 422 230 l 392 230 z m 525 -4 l 565 -4 l 565 38 l 525 38 z m 646 -7 b 672 -1 686 19 687 40 b 691 70 681 96 660 118 l 641 139 b 633 147 624 153 619 167 b 616 175 617 198 635 197 b 651 194 647 167 650 151 l 686 153 b 686 181 683 215 656 228 b 623 244 584 221 583 187 b 579 168 583 147 592 133 b 595 124 606 118 614 108 b 627 93 650 74 650 50 b 650 40 647 32 640 30 b 633 27 629 32 626 38 b 617 51 617 66 617 80 l 580 78 b 580 57 583 38 590 20 b 599 -1 624 -10 646 -7 z m 788 3 l 790 -4 l 820 -4 l 820 118 l 760 118 l 760 83 l 783 83 b 783 70 787 19 760 30 b 741 35 746 67 746 80 l 746 165 b 746 183 750 199 768 197 b 778 192 780 188 780 147 l 818 147 b 818 173 820 209 793 225 b 778 235 758 235 740 230 b 720 221 710 201 706 181 b 703 160 705 136 705 113 b 705 91 703 70 706 48 b 708 30 714 8 730 0 b 746 -10 773 -10 788 3 z m 828 -34 l 861 -34 l 928 260 l 891 260 z m 983 -9 b 992 -10 1003 -9 1011 -4 b 1038 8 1041 42 1041 71 l 1004 73 b 1004 58 1006 30 989 27 b 982 26 974 30 974 42 l 974 180 b 974 192 982 197 989 195 b 1006 192 1004 165 1004 150 l 1041 152 b 1041 180 1038 215 1011 227 b 1003 231 992 233 983 231 b 960 229 936 211 936 182 l 936 41 b 936 12 960 -6 983 -9 z m 1061 -6 l 1103 -6 l 1103 93 l 1138 93 l 1138 -6 l 1176 -6 l 1176 229 l 1138 229 l 1138 134 l 1103 134 l 1103 229 l 1061 229 z m 1196 -6 l 1234 -6 l 1234 96 l 1245 96 l 1265 -6 l 1304 -6 l 1278 103 b 1299 117 1306 146 1306 168 b 1306 211 1281 229 1264 229 l 1196 229 z m 1255 129 l 1234 129 l 1234 195 l 1246 195 b 1270 195 1268 136 1255 129 z m 1326 -6 l 1367 -6 l 1367 229 l 1326 229 z m 1452 -9 b 1477 -3 1492 18 1493 39 b 1497 69 1485 95 1465 117 l 1446 138 b 1438 146 1431 152 1426 165 b 1423 175 1424 197 1440 195 b 1455 192 1454 165 1454 150 l 1492 152 b 1492 180 1488 215 1460 227 b 1430 241 1389 221 1387 186 b 1385 167 1387 146 1399 131 b 1402 124 1411 117 1418 107 b 1432 92 1454 74 1454 48 b 1454 39 1454 30 1446 29 b 1438 26 1433 30 1432 37 b 1424 50 1424 65 1424 78 l 1387 77 b 1387 56 1387 37 1395 20 b 1406 -3 1431 -12 1452 -9 z m 1536 -6 l 1576 -6 l 1576 189 l 1609 189 l 1609 229 l 1502 229 l 1502 189 l 1536 189 z m 1620 -6 l 1657 -6 l 1657 90 l 1676 -6 l 1702 -6 l 1721 92 l 1723 -6 l 1758 -6 l 1757 229 l 1715 229 l 1689 81 l 1661 229 l 1625 229 z m 1763 -6 l 1803 -6 l 1811 50 l 1837 50 l 1844 -6 l 1883 -6 l 1843 229 l 1806 229 z m 1817 83 l 1823 131 l 1830 83 z m 1954 -9 b 1978 -3 1994 18 1995 39 b 1998 69 1987 95 1967 117 l 1948 138 b 1940 146 1932 152 1928 165 b 1924 175 1926 197 1942 195 b 1957 192 1956 165 1956 150 l 1994 152 b 1994 180 1990 215 1962 227 b 1931 241 1891 221 1889 186 b 1887 167 1889 146 1900 131 b 1903 124 1913 117 1919 107 b 1933 92 1956 74 1956 48 b 1956 39 1956 30 1948 29 b 1940 26 1935 30 1933 37 b 1926 50 1926 65 1926 78 l 1889 77 b 1889 56 1889 37 1897 20 b 1907 -3 1932 -12 1954 -9 z m 2005 90 l 2055 90 l 2055 131 l 2005 131 z m 2123 -9 b 2132 -10 2143 -9 2150 -4 b 2177 8 2181 42 2181 71 l 2144 73 b 2144 58 2146 30 2128 27 b 2122 26 2114 30 2114 42 l 2114 180 b 2114 192 2122 197 2128 195 b 2146 192 2144 165 2144 150 l 2181 152 b 2181 180 2177 215 2150 227 b 2143 231 2132 233 2123 231 b 2100 229 2075 211 2075 182 l 2075 41 b 2075 12 2100 -6 2123 -9 z m 2186 -6 l 2225 -6 l 2233 50 l 2259 50 l 2266 -6 l 2305 -6 l 2265 229 l 2228 229 z m 2239 83 l 2245 131 l 2252 83 z m 2310 -6 l 2349 -6 l 2349 96 l 2360 96 l 2380 -6 l 2419 -6 l 2393 103 b 2414 117 2421 146 2421 168 b 2421 211 2396 229 2379 229 l 2310 229 z m 2370 129 l 2349 129 l 2349 195 l 2361 195 b 2385 195 2383 136 2370 129 z m 2476 -4 b 2492 -9 2513 -9 2528 1 b 2554 16 2552 52 2552 78 l 2552 146 b 2552 171 2554 208 2528 224 b 2513 233 2492 233 2476 229 b 2455 221 2444 200 2443 179 b 2441 167 2441 155 2441 144 l 2441 78 b 2441 67 2441 56 2443 43 b 2444 23 2455 3 2476 -4 z m 2501 29 b 2493 27 2485 32 2484 37 b 2478 52 2480 71 2480 83 l 2480 139 b 2480 152 2478 171 2484 187 b 2485 190 2493 195 2501 195 b 2508 192 2513 189 2513 180 b 2516 169 2514 158 2514 146 l 2514 78 b 2514 66 2516 54 2513 43 b 2513 33 2508 32 2501 29 z m 2572 -6 l 2662 -6 l 2662 33 l 2613 33 l 2613 229 l 2572 229 z"},"S":{"x_min":0,"x_max":594,"ha":594,"o":"m 377 9 b 451 39 509 110 542 180 b 575 251 595 323 618 393 b 651 406 683 421 714 437 b 793 479 913 551 914 652 b 913 706 862 723 816 712 b 752 697 698 655 657 605 b 606 541 574 466 546 389 b 519 382 491 377 463 374 b 445 415 408 445 367 460 b 330 474 292 475 256 466 b 251 481 250 498 252 516 b 256 546 267 573 283 597 b 306 600 329 600 351 595 b 359 593 363 604 355 607 b 336 612 316 614 295 612 b 337 661 402 688 469 680 b 519 674 561 643 556 587 b 548 496 451 474 399 497 b 392 500 388 489 394 486 b 455 453 533 485 572 537 b 600 572 607 623 582 662 b 551 712 486 724 433 715 b 382 707 334 683 297 648 b 285 636 273 622 263 607 b 195 592 129 548 92 500 b 37 431 15 328 55 248 b 52 237 50 226 49 215 b 41 136 82 59 150 19 b 218 -21 305 -21 377 9 z m 69 289 b 48 353 65 428 108 487 b 139 531 194 571 251 589 b 229 548 217 500 227 457 b 189 441 155 415 128 383 b 104 355 83 324 69 289 z m 74 216 l 75 215 b 140 130 264 100 360 149 b 430 185 491 265 472 348 l 471 351 l 509 358 l 537 365 l 503 270 b 459 154 410 55 295 29 b 207 10 109 58 82 147 b 75 170 72 193 74 216 z m 82 258 b 97 307 127 352 163 387 b 183 408 208 424 234 435 b 245 411 262 392 287 376 b 332 349 383 342 434 346 b 437 326 435 306 428 288 b 384 178 254 136 150 193 b 119 210 97 232 82 258 z m 265 444 b 296 451 328 449 358 437 b 378 429 397 415 410 398 b 416 391 422 382 426 373 b 384 373 339 382 305 404 b 288 413 275 427 265 444 z m 627 419 b 642 462 659 503 682 543 b 721 608 795 691 854 685 b 874 684 887 672 886 652 b 882 613 841 572 814 545 b 760 496 696 451 627 419 z"},"}":{"x_min":0,"x_max":277,"ha":277,"o":"m -135 -153 l -41 -153 b -2 -153 44 -122 60 -85 l 167 156 b 178 180 206 199 231 199 l 249 199 l 260 223 l 242 223 b 218 223 205 242 216 266 l 324 508 b 340 545 321 576 282 576 l 188 576 l 177 552 l 244 552 b 259 552 267 541 260 526 l 157 297 b 132 241 134 211 174 211 b 134 211 105 179 82 126 l -20 -103 b -25 -115 -36 -129 -49 -129 l -124 -129 z"},"Z":{"x_min":0,"x_max":575,"ha":575,"o":"m 817 -173 b 854 -158 887 -121 886 -79 b 886 -65 882 -49 868 -42 b 863 -39 857 -45 860 -50 b 864 -58 862 -68 859 -76 b 849 -101 826 -117 800 -124 b 723 -141 635 -106 565 -72 b 487 -32 422 18 348 51 l 376 73 b 482 161 593 351 666 466 b 688 503 710 539 740 570 b 754 585 770 598 786 611 l 836 601 b 882 594 929 584 976 594 b 1008 600 1051 639 1022 672 b 993 701 936 697 898 692 b 858 685 819 672 782 653 b 672 686 562 725 445 718 b 350 712 254 665 203 582 b 174 535 162 475 175 425 l 170 413 b 138 336 165 260 247 235 b 250 234 253 236 254 238 b 256 241 255 245 252 247 b 190 283 179 332 194 384 b 209 362 231 345 261 335 b 370 298 485 397 503 502 b 510 548 491 576 447 589 b 363 612 252 538 196 461 b 195 477 197 494 202 509 b 232 615 347 661 448 663 b 544 665 638 643 732 622 b 705 603 679 581 657 556 b 643 541 626 518 614 502 b 536 402 423 207 338 113 l 296 72 b 265 81 233 88 196 89 b 150 91 98 89 59 61 b 34 42 28 9 53 -13 b 82 -38 123 -39 159 -35 b 215 -27 267 -3 314 28 b 353 8 390 -17 426 -44 b 485 -88 549 -132 619 -158 b 682 -181 752 -199 817 -173 z m 93 -9 b 40 6 54 43 99 56 b 129 66 162 66 194 62 b 220 60 244 55 268 47 b 243 27 215 10 185 -1 b 155 -11 124 -17 93 -9 z m 208 416 b 214 430 222 443 231 456 b 267 507 318 555 380 572 b 410 581 444 579 468 558 b 504 528 454 455 430 428 b 388 380 320 343 257 370 b 234 379 217 396 208 416 z m 831 639 b 873 661 919 673 966 669 b 986 668 1023 658 1000 635 b 977 612 939 617 908 621 b 882 626 857 632 831 639 z"},"x":{"x_min":0,"x_max":222,"ha":222,"o":"m -61 -38 b -31 -79 26 -28 -12 7 b -25 56 15 117 64 146 b 56 51 67 0 111 0 b 150 0 165 59 268 213 b 266 218 257 227 249 228 b 195 150 147 57 132 57 b 113 57 109 99 115 163 b 246 227 259 345 239 368 b 208 402 153 353 194 325 b 205 281 173 227 118 195 b 125 241 135 294 148 350 l 94 350 b 89 333 75 300 27 228 b 32 221 38 215 46 213 b 60 234 72 255 81 274 b 75 238 71 205 67 175 b -60 104 -88 1 -61 -38 z"},")":{"x_min":0,"x_max":224,"ha":224,"o":"m 170 574 l 160 555 b 241 525 224 374 143 204 b 62 33 -90 -107 -191 -147 l -196 -167 b -48 -127 109 19 208 204 b 305 385 288 544 170 574 z"},"&":{"x_min":0,"x_max":420,"ha":420,"o":"m 91 -19 b 216 -55 347 47 312 147 b 380 159 445 173 488 164 b 467 259 357 220 280 188 b 148 290 56 130 209 135 b 232 136 263 138 284 141 b 295 93 232 -32 120 15 b 54 44 47 132 67 186 b 91 251 142 287 206 284 b 310 202 344 292 225 307 b 192 336 214 417 264 470 b 338 549 428 524 430 455 b 431 422 413 386 389 361 b 348 313 271 326 290 384 b 302 422 331 436 365 435 b 373 434 377 445 369 449 b 330 470 260 435 249 393 b 226 317 343 295 405 343 b 449 374 480 436 455 489 b 440 520 406 534 373 539 b 310 547 240 517 200 467 b 155 413 157 350 185 309 b 123 311 47 269 11 205 b -31 134 -12 10 91 -19 z m 212 162 b 127 152 176 244 255 177 b 236 169 221 163 212 162 z"},"_":{"x_min":0,"x_max":292,"ha":292,"o":"m 165 306 b 103 316 56 272 27 228 b 27 219 39 213 46 213 b 85 274 121 292 165 283 b 300 256 216 -148 -145 -164 b -481 -179 -860 -104 -1165 -104 b -1340 -104 -1480 -131 -1535 -225 l -1517 -238 b -1486 -177 -1408 -154 -1289 -154 b -1012 -154 -639 -245 -269 -245 b 251 -245 352 276 165 306 z"},"v":{"x_min":0,"x_max":220,"ha":220,"o":"m 34 0 b 85 5 151 94 189 185 b 217 177 248 186 266 213 b 266 220 259 230 247 228 b 235 210 216 202 198 209 b 213 252 222 293 220 325 b 215 410 101 378 133 251 b 139 228 150 211 163 200 b 131 123 77 51 53 41 b 28 31 18 47 21 73 b 24 100 37 134 69 192 b 87 226 106 256 111 290 b 118 332 106 356 82 360 b 59 364 37 339 44 319 b 52 328 64 317 48 274 b 39 250 22 220 8 187 b -13 136 -30 91 -28 58 b -26 20 -3 -2 34 0 z m 158 260 b 137 329 186 381 187 305 b 188 282 183 256 174 229 b 168 237 163 247 158 260 z"},"O":{"x_min":0,"x_max":660,"ha":660,"o":"m 271 -39 b 373 -69 475 12 538 84 b 624 184 699 359 683 493 b 677 540 658 586 628 622 b 648 616 669 607 688 595 b 691 593 694 594 696 596 b 698 599 698 603 696 605 b 666 633 629 654 588 663 l 577 665 l 566 671 b 539 685 510 694 481 702 b 393 724 297 722 215 679 b 109 626 31 500 59 381 b 34 327 29 263 49 206 b 63 165 94 129 133 114 b 140 111 145 120 140 124 b 87 176 78 247 91 313 b 110 287 136 266 165 251 l 161 228 b 146 131 161 -6 271 -39 z m 90 432 b 103 540 179 637 281 677 b 354 706 437 700 509 671 l 523 665 b 437 655 356 592 292 511 b 244 522 190 512 151 487 b 128 473 107 454 90 432 z m 100 346 b 125 422 186 492 271 487 l 274 487 b 223 417 186 336 168 267 b 161 271 153 276 146 282 b 125 299 109 322 100 346 z m 198 109 b 197 150 206 192 218 232 b 248 226 280 227 309 239 b 387 272 424 378 380 452 b 372 466 361 477 349 486 b 388 538 433 584 481 608 b 512 624 544 631 576 630 b 646 558 635 434 605 334 b 571 223 487 54 383 -4 b 287 -54 199 2 198 109 z m 222 245 b 231 271 241 297 252 321 b 272 365 301 418 335 467 b 373 440 385 389 369 336 b 354 282 306 240 249 242 b 240 242 231 243 222 245 z"},"(":{"x_min":0,"x_max":224,"ha":224,"o":"m 96 -169 l 106 -150 b 25 -120 42 31 123 201 b 204 372 356 512 457 552 l 462 572 b 314 532 157 386 58 201 b -39 20 -22 -139 96 -169 z"},"C":{"x_min":0,"x_max":713,"ha":713,"o":"m 119 146 b 167 129 236 149 263 176 b 268 181 264 187 258 185 b 212 165 153 162 118 198 b 96 221 83 255 81 289 b 73 410 171 518 281 565 b 338 589 413 603 470 570 b 458 567 446 563 435 558 b 374 531 342 482 335 435 b 330 402 340 372 358 353 b 304 238 262 45 402 -9 b 467 -32 535 -8 584 37 b 622 71 653 112 669 162 b 683 204 679 267 621 268 b 607 267 594 263 583 256 b 581 255 579 252 579 250 b 579 246 582 243 586 243 b 602 243 618 243 629 235 b 645 220 638 192 633 172 b 614 110 571 47 510 21 b 472 5 422 12 398 47 b 379 75 378 112 378 145 b 381 208 400 271 424 330 l 430 331 b 497 346 557 412 556 482 b 556 499 553 515 546 529 l 580 567 l 675 569 b 658 559 642 546 628 533 b 610 515 594 494 583 471 b 563 432 545 372 580 335 b 604 311 642 305 674 313 b 766 338 848 439 872 529 b 885 579 885 645 841 681 b 798 716 736 711 688 692 b 625 666 570 627 521 581 l 500 577 l 496 580 b 439 616 356 612 270 578 b 146 528 35 416 37 278 b 38 224 65 166 119 146 z m 354 433 b 363 473 400 516 444 537 b 460 545 475 550 491 555 l 493 552 b 447 501 407 443 374 384 l 367 370 b 354 386 349 409 354 433 z m 432 350 l 434 354 b 453 397 483 448 520 496 b 526 458 513 415 487 386 b 472 369 454 355 432 350 z m 593 392 b 597 412 608 431 620 450 b 649 493 709 571 765 568 b 769 567 774 570 775 574 b 783 593 740 593 729 591 b 721 590 713 587 706 585 l 599 585 b 639 624 682 654 725 668 b 752 677 783 679 809 666 b 887 624 805 474 769 421 b 743 385 711 349 669 334 b 625 319 582 341 593 392 z"},"W":{"x_min":0,"x_max":927,"ha":927,"o":"m 465 -5 b 492 4 511 21 526 38 b 557 71 580 109 604 147 l 667 254 b 642 178 624 95 642 40 b 653 10 679 -15 712 -16 b 774 -23 809 45 832 91 b 856 139 877 194 897 243 b 951 375 1022 565 1140 649 b 1183 678 1230 690 1284 693 b 1291 694 1292 703 1286 705 b 1250 720 1208 720 1171 708 b 1061 670 997 558 950 458 b 911 375 882 288 848 204 b 828 155 807 103 777 61 b 768 47 756 34 744 27 b 728 16 707 18 701 37 b 695 57 696 77 697 99 b 704 167 729 235 755 298 b 798 400 888 586 981 645 b 989 650 988 654 981 659 b 970 666 956 666 944 663 b 912 657 888 634 868 612 b 845 587 825 560 806 532 b 745 448 692 344 651 275 b 608 205 549 90 479 48 b 425 9 402 68 444 148 b 481 221 534 291 585 358 b 624 409 667 459 709 508 b 744 551 810 638 752 688 b 740 697 726 702 713 705 b 691 712 667 715 644 715 b 604 714 565 706 527 693 b 497 716 456 721 420 713 b 265 680 87 504 44 353 b 26 286 24 209 65 150 b 121 66 243 62 311 132 b 316 138 309 146 303 142 b 286 129 268 119 248 113 b 190 94 122 114 90 167 b 68 201 63 243 66 283 b 74 444 269 655 425 686 b 448 691 473 690 494 681 b 459 666 426 648 394 628 b 320 580 251 520 202 445 b 163 386 136 296 211 251 b 255 221 310 236 352 261 b 431 309 490 381 533 461 b 564 522 589 605 551 667 l 542 679 b 575 688 609 694 644 693 b 672 692 724 685 713 645 b 703 607 672 573 645 543 b 618 515 592 486 567 456 b 495 370 352 189 358 65 b 360 -2 415 -22 465 -5 z m 224 432 b 258 487 303 533 352 574 b 400 612 454 647 512 669 b 517 664 521 659 525 652 b 542 618 530 574 517 539 b 487 462 439 390 380 332 b 346 301 294 258 246 270 b 165 294 191 377 224 432 z"},"A":{"x_min":0,"x_max":722,"ha":722,"o":"m 208 -1 b 292 20 359 81 412 148 b 436 177 458 208 478 240 l 481 240 l 550 237 b 543 213 538 192 535 175 b 521 102 521 -1 595 -1 b 634 -1 666 59 768 213 b 767 218 757 227 749 228 b 695 150 634 53 619 53 b 582 53 592 123 611 221 l 615 237 b 674 240 731 254 765 300 b 770 307 761 313 756 308 b 734 286 704 275 673 270 b 656 267 639 265 621 265 b 643 347 677 416 706 474 b 723 509 741 542 763 572 b 779 594 798 611 816 629 b 823 635 831 644 839 650 b 849 658 846 668 835 664 b 824 660 808 661 795 661 b 754 662 714 668 675 675 l 555 698 b 486 712 410 712 344 679 b 284 651 236 595 215 532 l 193 518 b 146 484 112 436 88 385 b 65 334 46 280 46 225 l 48 204 b 38 169 34 134 41 99 b 57 19 127 -22 208 -1 z m 391 227 b 410 238 432 240 454 240 l 444 226 b 383 142 306 54 204 30 b 113 11 71 72 69 145 b 117 74 226 77 301 155 b 346 198 383 263 382 325 b 391 327 399 331 407 335 b 476 371 513 455 505 528 b 502 557 491 587 468 605 b 462 609 455 602 458 596 b 473 575 477 550 477 525 b 476 500 471 475 461 451 b 445 411 418 374 380 353 b 377 366 373 378 366 390 b 336 439 274 448 222 425 l 222 429 b 219 457 222 485 230 512 b 250 524 272 533 294 540 b 311 544 331 548 346 542 b 349 540 352 541 354 543 b 362 554 340 560 334 561 b 304 565 273 559 245 547 b 269 593 308 632 355 654 b 403 677 457 683 509 677 b 535 675 563 669 589 666 b 644 659 697 653 752 649 l 775 648 b 710 618 673 574 639 530 b 581 454 527 349 470 264 b 438 261 406 254 384 237 b 378 232 384 223 391 227 z m 69 258 b 71 286 79 315 89 341 b 112 401 153 456 205 495 b 201 471 200 448 204 425 l 205 417 b 158 390 122 346 93 301 b 84 287 76 273 69 258 z m 74 194 l 80 218 b 101 285 148 362 210 399 b 218 374 234 350 257 337 b 286 321 321 314 355 319 b 346 247 280 165 217 136 b 173 116 118 122 91 160 b 83 171 78 182 74 194 z m 226 407 b 283 433 348 409 355 344 l 355 343 b 331 335 306 336 283 343 b 253 353 234 378 226 407 z m 494 265 l 549 354 b 593 424 657 550 731 607 b 701 573 675 530 657 497 b 617 425 581 336 558 264 z"},"f":{"x_min":0,"x_max":163,"ha":163,"o":"m 36 249 l 22 218 b 9 201 -11 193 -28 189 b -26 174 -22 157 -15 140 b -79 2 -130 -90 -168 -187 l -103 -187 b -86 -133 -33 -14 24 108 b 80 63 157 138 209 213 b 208 218 198 227 190 228 b 129 140 69 129 42 151 l 70 213 b 162 260 241 350 288 427 b 353 535 352 615 301 615 b 197 615 124 447 36 249 z m 83 244 b 146 378 238 595 293 595 b 317 595 306 534 244 434 b 206 373 159 307 83 244 z"},"Q":{"x_min":0,"x_max":651,"ha":651,"o":"m 465 -176 b 530 -234 621 -211 640 -124 l 648 -74 b 650 -64 638 -54 629 -59 b 622 -62 619 -70 622 -77 b 628 -91 628 -106 624 -120 b 617 -146 591 -165 566 -161 b 542 -158 522 -146 503 -131 b 470 -104 445 -68 424 -31 l 399 6 b 462 27 521 79 563 126 b 649 226 703 361 687 495 b 681 543 663 588 632 624 b 653 618 673 609 693 597 b 695 595 698 596 700 598 b 703 601 703 605 700 607 b 670 635 633 656 593 665 l 581 667 l 570 673 b 543 687 514 696 485 704 b 398 726 301 724 220 681 b 113 628 36 503 64 384 b 39 329 33 265 53 208 b 67 167 98 131 138 116 b 144 113 150 122 145 126 b 91 178 82 249 95 315 b 117 285 148 262 183 247 b 178 204 180 155 194 113 b 164 102 141 77 132 38 b 130 30 142 27 144 35 b 152 69 173 90 199 98 b 216 54 246 18 296 3 b 319 -4 342 -5 365 -2 l 369 -9 b 384 -36 394 -65 406 -93 b 419 -124 438 -154 465 -176 z m 94 434 b 107 542 184 639 285 679 b 358 708 441 702 514 673 l 526 668 b 434 659 352 596 291 514 b 245 523 193 513 155 489 b 132 474 111 455 94 434 z m 104 349 b 129 423 189 493 273 489 b 227 419 195 339 186 270 l 185 262 b 172 268 161 276 150 284 b 128 302 113 324 104 349 z m 223 151 b 222 178 225 206 231 233 b 259 228 287 230 313 241 b 391 274 429 380 385 454 b 376 469 364 481 351 491 b 387 540 431 582 485 610 b 517 626 550 633 583 632 b 654 565 649 455 620 356 b 585 245 512 96 407 38 b 399 34 390 30 382 27 b 356 59 326 86 289 104 b 268 114 246 119 226 119 b 224 129 223 140 223 151 z m 230 102 b 246 100 263 95 279 86 b 308 70 331 47 350 20 b 295 15 248 46 230 102 z m 234 246 b 244 286 260 326 277 363 b 294 400 314 437 337 471 b 376 445 390 393 374 338 b 358 284 311 242 253 244 z"},"w":{"x_min":0,"x_max":316,"ha":316,"o":"m 12 0 b 39 0 56 17 81 53 b 83 19 106 -3 131 0 b 188 7 245 104 274 183 b 304 171 341 182 362 213 b 362 220 354 230 343 228 b 329 207 305 195 284 207 b 299 242 307 277 305 315 b 300 393 206 394 224 267 b 230 228 242 208 252 198 b 225 115 172 31 143 42 b 101 58 200 218 209 317 b 203 339 179 346 161 344 b 153 266 85 55 32 47 b 3 42 -3 86 77 208 b 135 296 114 361 79 362 b 52 363 36 339 38 319 b 56 328 69 317 50 274 b 40 250 20 217 3 186 b -26 133 -40 79 -36 50 b -32 16 -11 0 12 0 z m 263 228 b 258 234 253 242 248 278 b 240 328 268 366 271 302 b 273 267 270 248 263 228 z"},"-":{"x_min":0,"x_max":246,"ha":246,"o":"m 211 214 l 72 214 l 47 166 l 186 166 z"},"E":{"x_min":0,"x_max":750,"ha":750,"o":"m 281 275 b 287 278 285 288 278 286 b 95 228 46 421 113 545 b 146 609 209 656 279 675 b 313 685 351 689 386 683 b 415 677 437 666 452 650 l 432 649 b 373 643 312 607 292 549 b 274 493 311 439 371 443 b 443 449 512 510 512 584 b 512 597 510 610 506 622 b 526 619 546 615 567 610 b 536 567 524 512 532 461 b 534 446 539 431 545 418 b 451 427 360 371 318 283 b 275 195 279 79 361 14 b 394 -12 438 -23 478 -19 b 557 -16 629 28 673 92 b 746 206 693 300 606 253 b 599 249 602 237 609 240 b 668 263 689 217 659 141 b 638 89 598 42 545 22 b 505 7 453 8 419 32 b 354 79 349 187 378 256 b 413 342 497 387 573 381 b 584 371 596 363 610 358 b 624 353 643 351 653 356 b 663 361 660 372 650 380 b 639 389 620 399 600 406 b 590 422 583 443 582 466 b 579 516 595 559 624 594 b 649 588 673 581 697 577 b 674 564 656 542 648 516 b 641 494 644 465 660 446 b 679 422 711 417 739 413 b 774 411 808 424 836 444 b 894 483 937 561 907 631 b 889 673 846 696 803 704 b 723 717 636 688 581 627 b 552 636 524 643 494 647 b 483 665 467 680 448 689 b 370 729 239 688 169 644 b 103 602 49 531 39 451 b 20 302 145 205 281 275 z m 310 494 b 285 565 373 619 434 625 b 446 626 457 626 468 626 b 493 573 463 499 394 469 b 364 455 324 461 310 494 z m 638 610 b 647 619 657 627 668 635 b 705 662 753 679 798 673 b 845 667 878 637 873 588 b 869 544 847 500 816 469 b 800 452 779 439 757 435 b 740 432 721 432 706 441 b 694 449 683 462 682 476 b 681 484 684 493 688 502 b 706 539 744 568 788 565 b 798 564 803 578 794 583 b 775 594 750 596 729 590 l 724 589 b 700 593 677 599 655 605 z"},"s":{"x_min":0,"x_max":201,"ha":201,"o":"m -31 -11 b 29 -44 118 -9 131 87 l 133 114 b 172 130 212 160 247 213 b 246 218 236 227 228 228 b 200 188 169 160 133 142 b 132 203 119 262 131 309 b 156 324 171 327 187 346 b 214 376 191 413 148 371 b 136 360 125 344 114 326 b 88 307 59 277 27 228 b 29 221 40 213 46 213 b 59 233 75 256 90 274 b 75 233 65 187 69 143 l 70 123 b 54 121 38 120 20 120 b -72 111 -91 21 -31 -11 z m 27 93 b 39 93 53 94 68 96 b 59 31 20 -4 -16 12 b -52 28 -39 89 27 93 z"},">":{"x_min":0,"x_max":270,"ha":270,"o":"m 115 334 l 100 297 l 204 219 l 14 134 l -2 96 l 278 219 z"},"l":{"x_min":0,"x_max":114,"ha":114,"o":"m -14 0 b 25 0 58 59 160 213 b 159 218 149 227 141 228 b 87 150 26 53 11 53 b 6 53 2 59 17 92 b 33 129 250 528 276 577 l 213 577 b 183 519 -4 177 -32 109 b -61 40 -45 0 -14 0 z"},"8":{"x_min":0,"x_max":2955,"ha":2955,"o":"m 1492 612 b 1519 612 1537 623 1542 649 b 1545 661 1545 676 1545 691 b 1545 715 1549 749 1540 772 b 1533 792 1510 798 1490 798 b 1471 797 1452 788 1448 765 b 1441 743 1443 711 1443 684 b 1443 673 1443 663 1446 651 b 1450 626 1464 612 1492 612 z m 987 -247 b 1007 -247 1009 -227 1009 -212 l 998 -212 b 998 -217 999 -224 997 -229 b 992 -237 981 -238 977 -232 b 970 -224 973 -206 973 -200 b 973 -191 970 -172 976 -165 b 981 -159 992 -159 997 -167 b 999 -172 998 -180 998 -184 l 1009 -184 b 1009 -169 1009 -153 990 -153 b 968 -149 959 -164 959 -181 b 959 -205 953 -247 987 -247 z m 1039 -234 b 1028 -230 1031 -201 1031 -191 l 1031 -177 b 1031 -167 1039 -158 1051 -164 b 1061 -167 1059 -193 1059 -203 b 1059 -215 1060 -246 1039 -234 z m 1046 -247 b 1074 -247 1072 -218 1072 -200 b 1072 -180 1074 -153 1046 -153 b 1020 -149 1020 -172 1020 -197 b 1020 -216 1016 -247 1046 -247 z m 1085 -246 l 1095 -246 l 1095 -177 l 1111 -246 l 1121 -246 l 1136 -177 l 1136 -246 l 1146 -246 l 1144 -153 l 1131 -153 l 1117 -227 l 1098 -153 l 1085 -153 z m 1054 -128 l 1069 -128 l 1069 -85 l 1087 -85 l 1087 -77 l 1069 -77 l 1069 -44 l 1091 -44 l 1091 -35 l 1054 -35 z m 1161 -246 l 1171 -246 l 1173 -177 l 1185 -246 l 1196 -246 l 1211 -177 l 1213 -246 l 1222 -246 l 1218 -153 l 1206 -153 l 1192 -227 l 1175 -153 l 1161 -153 z m 1126 -128 b 1151 -128 1151 -103 1151 -83 b 1151 -65 1153 -38 1128 -33 b 1098 -33 1098 -57 1098 -79 b 1098 -100 1096 -128 1126 -128 z m 1121 -120 b 1106 -115 1112 -85 1112 -77 l 1112 -62 b 1112 -50 1121 -39 1131 -45 b 1141 -50 1138 -77 1138 -86 b 1138 -100 1138 -124 1121 -120 z m 1237 -246 l 1274 -246 l 1274 -237 l 1252 -237 l 1252 -201 l 1269 -201 l 1269 -191 l 1252 -191 l 1252 -162 l 1274 -162 l 1274 -153 l 1237 -153 z m 1164 -35 l 1164 -128 l 1175 -128 l 1175 -85 l 1185 -85 l 1199 -128 l 1213 -128 l 1199 -83 b 1215 -77 1213 -45 1199 -38 b 1189 -33 1175 -35 1164 -35 z m 1283 -153 l 1283 -246 l 1298 -246 l 1298 -201 l 1308 -201 l 1319 -246 l 1331 -246 l 1318 -200 b 1333 -193 1331 -164 1319 -154 b 1309 -149 1297 -153 1283 -153 z m 1175 -77 l 1175 -44 b 1189 -44 1199 -45 1199 -60 b 1199 -75 1189 -77 1175 -77 z m 1298 -191 l 1298 -162 b 1309 -162 1318 -164 1318 -177 b 1318 -191 1309 -191 1298 -191 z m 1367 -247 b 1390 -247 1391 -227 1391 -212 l 1378 -212 b 1378 -217 1382 -224 1377 -229 b 1376 -237 1363 -238 1357 -232 b 1351 -224 1354 -206 1354 -200 b 1354 -191 1351 -172 1357 -165 b 1363 -159 1376 -159 1377 -167 b 1382 -172 1378 -180 1378 -184 l 1391 -184 b 1391 -169 1390 -153 1373 -153 b 1351 -149 1342 -164 1342 -181 b 1342 -205 1333 -247 1367 -247 z m 1260 -128 l 1274 -128 l 1274 -44 l 1291 -44 l 1291 -35 l 1244 -35 l 1244 -44 l 1260 -44 z m 1406 -246 l 1418 -246 l 1418 -153 l 1406 -153 z m 1298 -128 l 1309 -128 l 1309 -85 l 1334 -85 l 1334 -128 l 1347 -128 l 1347 -35 l 1334 -35 l 1334 -77 l 1309 -77 l 1309 -35 l 1298 -35 z m 1428 -246 l 1441 -246 l 1446 -222 l 1464 -222 l 1470 -246 l 1481 -246 l 1460 -153 l 1448 -153 z m 1448 -215 l 1455 -169 l 1463 -215 z m 1361 -128 l 1398 -128 l 1398 -121 l 1376 -121 l 1376 -85 l 1394 -85 l 1394 -77 l 1376 -77 l 1376 -44 l 1398 -44 l 1398 -35 l 1361 -35 z m 1490 -246 l 1528 -246 l 1528 -237 l 1503 -237 l 1503 -153 l 1490 -153 z m 1438 -128 l 1448 -128 l 1448 -85 l 1464 -85 l 1464 -77 l 1448 -77 l 1448 -44 l 1473 -44 l 1473 -35 l 1438 -35 z m 1580 -246 l 1589 -246 l 1610 -153 l 1600 -153 l 1584 -222 l 1570 -153 l 1560 -153 z m 1514 -128 b 1533 -121 1531 -95 1531 -78 l 1531 -35 l 1519 -35 l 1519 -77 b 1519 -88 1522 -121 1504 -121 b 1486 -121 1492 -88 1492 -77 l 1492 -35 l 1481 -35 l 1481 -85 b 1481 -91 1480 -100 1481 -106 b 1483 -124 1494 -132 1514 -128 z m 1621 -246 l 1660 -246 l 1660 -237 l 1634 -237 l 1634 -201 l 1654 -201 l 1654 -191 l 1634 -191 l 1634 -162 l 1660 -162 l 1660 -153 l 1621 -153 z m 1545 -128 l 1580 -128 l 1580 -121 l 1559 -121 l 1559 -35 l 1545 -35 z m 1669 -153 l 1669 -246 l 1682 -246 l 1682 -201 l 1691 -201 l 1703 -246 l 1715 -246 l 1701 -200 b 1718 -194 1718 -164 1705 -154 b 1694 -149 1680 -153 1669 -153 z m 1173 359 l 1173 263 l 1185 263 l 1185 307 b 1196 307 1203 306 1213 313 b 1218 321 1218 337 1215 349 b 1206 364 1185 359 1173 359 z m 1682 -191 l 1682 -162 b 1694 -162 1701 -164 1701 -177 b 1701 -191 1694 -191 1682 -191 z m 1589 -128 l 1625 -128 l 1625 -121 l 1602 -121 l 1602 -35 l 1589 -35 z m 1185 315 l 1185 353 b 1199 353 1205 353 1205 336 b 1205 328 1205 322 1199 318 b 1196 315 1190 315 1185 315 z m 1752 -247 b 1769 -247 1776 -232 1770 -217 b 1770 -205 1758 -200 1753 -191 b 1744 -184 1734 -177 1739 -167 b 1742 -162 1747 -159 1753 -162 b 1758 -164 1758 -172 1761 -180 l 1770 -174 b 1770 -165 1769 -158 1758 -153 b 1753 -149 1742 -150 1734 -158 b 1720 -165 1726 -186 1738 -197 b 1744 -203 1761 -215 1761 -225 b 1761 -232 1754 -238 1744 -234 b 1739 -232 1738 -222 1738 -216 l 1726 -218 b 1726 -234 1734 -247 1752 -247 z m 1232 263 l 1266 263 l 1266 273 l 1240 273 l 1240 359 l 1232 359 z m 1091 404 b 1130 416 1121 472 1121 504 l 1121 587 l 1096 587 l 1096 461 b 1096 440 1089 412 1062 420 b 1046 429 1046 450 1046 464 l 1046 587 l 1023 587 l 1023 474 b 1023 455 1023 441 1028 429 b 1038 404 1069 393 1091 404 z m 1784 -246 l 1796 -246 l 1796 -153 l 1784 -153 z m 1660 -128 l 1670 -128 l 1676 -105 l 1694 -105 l 1697 -128 l 1711 -128 l 1691 -35 l 1676 -35 z m 1276 263 l 1310 263 l 1310 273 l 1287 273 l 1287 307 l 1307 307 l 1307 318 l 1287 318 l 1287 353 l 1310 353 l 1310 359 l 1276 359 z m 1676 -97 l 1684 -54 l 1691 -97 z m 1829 -234 b 1819 -230 1826 -201 1826 -191 l 1826 -177 b 1826 -167 1829 -158 1844 -164 b 1852 -167 1850 -193 1850 -203 b 1850 -215 1850 -246 1829 -234 z m 1837 -247 b 1863 -247 1862 -218 1862 -200 b 1862 -180 1865 -153 1839 -153 b 1809 -149 1809 -172 1809 -197 b 1809 -216 1807 -247 1837 -247 z m 1316 263 l 1328 263 l 1331 289 l 1351 289 l 1355 263 l 1369 263 l 1351 359 l 1335 359 z m 1720 -128 l 1733 -128 l 1733 -65 l 1757 -128 l 1766 -128 l 1766 -35 l 1754 -35 l 1754 -97 l 1729 -35 l 1720 -35 z m 1331 297 l 1342 344 l 1351 297 z m 1192 401 b 1222 401 1239 429 1234 457 b 1232 482 1213 494 1196 507 b 1182 520 1161 533 1169 552 b 1170 562 1179 570 1192 565 b 1205 563 1210 547 1211 533 l 1232 541 b 1232 555 1227 570 1215 580 b 1202 587 1183 590 1171 587 b 1141 578 1136 541 1150 518 b 1158 504 1175 494 1185 483 b 1196 478 1200 469 1205 462 b 1213 453 1215 433 1203 427 b 1196 418 1183 420 1175 429 b 1169 435 1169 450 1168 461 l 1141 454 b 1144 425 1161 401 1192 401 z m 1876 -246 l 1883 -246 l 1883 -181 l 1913 -246 l 1923 -246 l 1923 -153 l 1912 -153 l 1912 -215 l 1883 -153 l 1876 -153 z m 1400 263 b 1418 263 1428 278 1422 294 b 1421 305 1410 311 1400 318 b 1394 324 1387 332 1390 344 b 1391 354 1405 358 1411 332 l 1422 334 b 1422 344 1418 354 1410 358 b 1400 363 1390 359 1385 355 b 1369 344 1377 324 1390 314 b 1396 306 1411 297 1411 284 b 1411 277 1406 273 1396 273 b 1390 277 1390 287 1390 294 l 1376 289 b 1377 277 1387 263 1400 263 z m 1782 -35 l 1782 -128 b 1791 -128 1809 -130 1819 -123 b 1833 -116 1828 -97 1828 -83 b 1828 -71 1833 -50 1823 -42 b 1811 -33 1793 -35 1782 -35 z m 1795 -121 l 1795 -44 b 1807 -44 1816 -44 1817 -60 l 1817 -106 b 1813 -121 1805 -121 1795 -121 z m 1433 263 l 1472 263 l 1472 273 l 1448 273 l 1448 307 l 1464 307 l 1464 318 l 1448 318 l 1448 353 l 1471 353 l 1471 359 l 1433 359 z m 1022 614 l 1046 614 l 1046 697 b 1062 697 1085 695 1096 708 b 1117 722 1117 755 1106 777 b 1096 795 1078 797 1061 797 l 1022 797 z m 1257 404 l 1326 404 l 1326 420 l 1281 420 l 1281 488 l 1318 488 l 1318 507 l 1281 507 l 1281 565 l 1326 565 l 1326 587 l 1257 587 z m 1046 716 l 1046 778 b 1054 778 1063 780 1074 777 b 1089 774 1089 757 1089 745 b 1089 733 1087 721 1074 718 b 1063 715 1054 716 1046 716 z m 1524 263 l 1537 263 l 1557 359 l 1545 359 l 1531 289 l 1518 359 l 1503 359 z m 1131 614 l 1202 614 l 1202 630 l 1156 630 l 1156 697 l 1193 697 l 1193 716 l 1156 716 l 1156 778 l 1200 778 l 1200 797 l 1131 797 z m 1566 263 l 1580 263 l 1580 359 l 1566 359 z m 1617 263 b 1632 263 1643 278 1637 294 b 1636 305 1624 313 1618 318 b 1612 324 1601 332 1605 344 b 1610 354 1623 358 1625 332 l 1637 334 b 1636 344 1632 354 1624 358 b 1618 363 1607 359 1600 355 b 1584 344 1593 324 1604 314 b 1613 306 1627 297 1625 284 b 1625 277 1621 273 1613 273 b 1607 277 1604 287 1604 294 l 1591 289 b 1593 277 1600 263 1617 263 z m 1448 401 b 1472 401 1490 414 1492 439 b 1497 453 1494 466 1494 483 b 1494 506 1500 539 1490 561 b 1483 581 1464 587 1442 587 b 1422 587 1406 578 1398 557 b 1394 533 1396 504 1396 478 b 1396 464 1396 453 1398 440 b 1400 414 1421 401 1448 401 z m 1433 422 b 1421 429 1422 447 1422 461 l 1422 494 b 1422 512 1419 533 1422 551 b 1427 561 1431 565 1441 565 b 1448 570 1455 565 1463 561 b 1472 554 1471 543 1471 533 l 1471 466 b 1471 461 1472 453 1471 447 b 1470 439 1464 429 1455 422 b 1450 420 1441 420 1433 422 z m 1649 263 l 1665 263 l 1665 359 l 1649 359 z m 1222 797 l 1222 614 l 1249 614 l 1249 698 l 1268 698 l 1293 614 l 1316 614 l 1293 705 b 1323 715 1321 775 1293 790 b 1274 800 1246 797 1222 797 z m 1690 263 l 1700 263 l 1700 353 l 1715 353 l 1715 359 l 1672 359 l 1672 353 l 1690 353 z m 1249 716 l 1249 778 b 1257 778 1266 780 1276 776 b 1287 772 1289 759 1289 752 b 1291 737 1287 723 1276 718 b 1266 716 1257 716 1249 716 z m 1522 404 l 1542 404 l 1542 528 l 1596 404 l 1613 404 l 1613 587 l 1591 587 l 1591 464 l 1540 587 l 1522 587 z m 1385 612 b 1415 612 1432 638 1427 668 b 1421 688 1405 701 1390 716 b 1375 727 1354 743 1357 764 b 1361 775 1373 780 1385 780 b 1398 776 1400 757 1405 745 l 1424 753 b 1422 765 1419 782 1408 790 b 1396 798 1376 800 1363 795 b 1331 788 1326 753 1342 724 b 1351 713 1367 701 1377 692 b 1389 684 1394 676 1398 671 b 1406 661 1408 644 1398 636 b 1390 629 1376 630 1367 638 b 1361 646 1357 657 1356 671 l 1331 665 b 1333 635 1351 612 1385 612 z m 1643 404 l 1711 404 l 1711 420 l 1668 420 l 1668 587 l 1643 587 z m 1483 633 b 1470 640 1471 657 1471 669 l 1471 701 b 1471 719 1464 745 1472 759 b 1475 772 1480 777 1490 778 b 1497 780 1504 780 1510 772 b 1519 764 1519 753 1519 741 l 1519 657 b 1519 649 1518 638 1505 633 b 1500 630 1490 630 1483 633 z m 1837 404 l 1862 404 l 1862 429 l 1837 429 z m 1757 441 l 1757 404 l 1784 404 l 1784 448 b 1784 455 1782 464 1785 474 l 1798 509 b 1807 537 1816 561 1823 587 l 1798 587 l 1770 499 l 1742 587 l 1720 587 l 1744 504 b 1752 494 1754 483 1757 469 b 1758 461 1757 450 1757 441 z m 1570 614 l 1591 614 l 1591 737 l 1643 614 l 1661 614 l 1661 797 l 1637 797 l 1637 673 l 1585 797 l 1570 797 z m 1844 442 l 1852 442 l 1862 587 l 1837 587 z m 1678 614 l 1701 614 l 1711 657 l 1749 657 l 1757 614 l 1782 614 l 1742 797 l 1718 797 z m 1715 676 l 1731 759 l 1744 676 z m 1800 614 l 1872 614 l 1872 630 l 1827 630 l 1827 797 l 1800 797 z m 224 -4 l 259 -4 l 261 91 l 281 -4 l 308 -4 l 325 93 l 329 -4 l 362 -4 l 361 230 l 321 230 l 294 83 l 265 230 l 227 230 z m 392 -4 l 429 -4 l 429 110 l 470 -4 l 499 -4 l 499 230 l 462 230 l 462 118 l 422 230 l 392 230 z m 525 -4 l 565 -4 l 565 38 l 525 38 z m 646 -7 b 672 -1 686 19 687 40 b 691 70 681 96 660 118 l 641 139 b 633 147 624 153 619 167 b 616 175 617 198 635 197 b 651 194 647 167 650 151 l 686 153 b 686 181 683 215 656 228 b 623 244 584 221 583 187 b 579 168 583 147 592 133 b 595 124 606 118 614 108 b 627 93 650 74 650 50 b 650 40 647 32 640 30 b 633 27 629 32 626 38 b 617 51 617 66 617 80 l 580 78 b 580 57 583 38 590 20 b 599 -1 624 -10 646 -7 z m 788 3 l 790 -4 l 820 -4 l 820 118 l 760 118 l 760 83 l 783 83 b 783 70 787 19 760 30 b 741 35 746 67 746 80 l 746 165 b 746 183 750 199 768 197 b 778 192 780 188 780 147 l 818 147 b 818 173 820 209 793 225 b 778 235 758 235 740 230 b 720 221 710 201 706 181 b 703 160 705 136 705 113 b 705 91 703 70 706 48 b 708 30 714 8 730 0 b 746 -10 773 -10 788 3 z m 828 -34 l 861 -34 l 928 260 l 891 260 z m 983 -9 b 992 -10 1003 -9 1011 -4 b 1038 8 1041 42 1041 71 l 1004 73 b 1004 58 1006 30 989 27 b 982 26 974 30 974 42 l 974 180 b 974 192 982 197 989 195 b 1006 192 1004 165 1004 150 l 1041 152 b 1041 180 1038 215 1011 227 b 1003 231 992 233 983 231 b 960 229 936 211 936 182 l 936 41 b 936 12 960 -6 983 -9 z m 1061 -6 l 1103 -6 l 1103 93 l 1138 93 l 1138 -6 l 1176 -6 l 1176 229 l 1138 229 l 1138 134 l 1103 134 l 1103 229 l 1061 229 z m 1196 -6 l 1234 -6 l 1234 96 l 1245 96 l 1265 -6 l 1304 -6 l 1278 103 b 1299 117 1306 146 1306 168 b 1306 211 1281 229 1264 229 l 1196 229 z m 1255 129 l 1234 129 l 1234 195 l 1246 195 b 1270 195 1268 136 1255 129 z m 1326 -6 l 1367 -6 l 1367 229 l 1326 229 z m 1452 -9 b 1477 -3 1492 18 1493 39 b 1497 69 1485 95 1465 117 l 1446 138 b 1438 146 1431 152 1426 165 b 1423 175 1424 197 1440 195 b 1455 192 1454 165 1454 150 l 1492 152 b 1492 180 1488 215 1460 227 b 1430 241 1389 221 1387 186 b 1385 167 1387 146 1399 131 b 1402 124 1411 117 1418 107 b 1432 92 1454 74 1454 48 b 1454 39 1454 30 1446 29 b 1438 26 1433 30 1432 37 b 1424 50 1424 65 1424 78 l 1387 77 b 1387 56 1387 37 1395 20 b 1406 -3 1431 -12 1452 -9 z m 1536 -6 l 1576 -6 l 1576 189 l 1609 189 l 1609 229 l 1502 229 l 1502 189 l 1536 189 z m 1620 -6 l 1657 -6 l 1657 90 l 1676 -6 l 1702 -6 l 1721 92 l 1723 -6 l 1758 -6 l 1757 229 l 1715 229 l 1689 81 l 1661 229 l 1625 229 z m 1763 -6 l 1803 -6 l 1811 50 l 1837 50 l 1844 -6 l 1883 -6 l 1843 229 l 1806 229 z m 1817 83 l 1823 131 l 1830 83 z m 1954 -9 b 1978 -3 1994 18 1995 39 b 1998 69 1987 95 1967 117 l 1948 138 b 1940 146 1932 152 1928 165 b 1924 175 1926 197 1942 195 b 1957 192 1956 165 1956 150 l 1994 152 b 1994 180 1990 215 1962 227 b 1931 241 1891 221 1889 186 b 1887 167 1889 146 1900 131 b 1903 124 1913 117 1919 107 b 1933 92 1956 74 1956 48 b 1956 39 1956 30 1948 29 b 1940 26 1935 30 1933 37 b 1926 50 1926 65 1926 78 l 1889 77 b 1889 56 1889 37 1897 20 b 1907 -3 1932 -12 1954 -9 z m 2005 90 l 2055 90 l 2055 131 l 2005 131 z m 2123 -9 b 2132 -10 2143 -9 2150 -4 b 2177 8 2181 42 2181 71 l 2144 73 b 2144 58 2146 30 2128 27 b 2122 26 2114 30 2114 42 l 2114 180 b 2114 192 2122 197 2128 195 b 2146 192 2144 165 2144 150 l 2181 152 b 2181 180 2177 215 2150 227 b 2143 231 2132 233 2123 231 b 2100 229 2075 211 2075 182 l 2075 41 b 2075 12 2100 -6 2123 -9 z m 2186 -6 l 2225 -6 l 2233 50 l 2259 50 l 2266 -6 l 2305 -6 l 2265 229 l 2228 229 z m 2239 83 l 2245 131 l 2252 83 z m 2310 -6 l 2349 -6 l 2349 96 l 2360 96 l 2380 -6 l 2419 -6 l 2393 103 b 2414 117 2421 146 2421 168 b 2421 211 2396 229 2379 229 l 2310 229 z m 2370 129 l 2349 129 l 2349 195 l 2361 195 b 2385 195 2383 136 2370 129 z m 2476 -4 b 2492 -9 2513 -9 2528 1 b 2554 16 2552 52 2552 78 l 2552 146 b 2552 171 2554 208 2528 224 b 2513 233 2492 233 2476 229 b 2455 221 2444 200 2443 179 b 2441 167 2441 155 2441 144 l 2441 78 b 2441 67 2441 56 2443 43 b 2444 23 2455 3 2476 -4 z m 2501 29 b 2493 27 2485 32 2484 37 b 2478 52 2480 71 2480 83 l 2480 139 b 2480 152 2478 171 2484 187 b 2485 190 2493 195 2501 195 b 2508 192 2513 189 2513 180 b 2516 169 2514 158 2514 146 l 2514 78 b 2514 66 2516 54 2513 43 b 2513 33 2508 32 2501 29 z m 2572 -6 l 2662 -6 l 2662 33 l 2613 33 l 2613 229 l 2572 229 z"},"\\":{"x_min":0,"x_max":351,"ha":351,"o":"m -1 572 l 221 -127 l 257 -127 l 34 572 z"},"e":{"x_min":0,"x_max":224,"ha":224,"o":"m 47 0 b 87 0 159 36 270 213 b 270 222 258 228 251 228 b 101 -2 30 8 43 99 b 120 121 169 171 203 225 b 232 270 257 362 183 362 b 118 362 55 297 10 195 b -44 70 -3 0 47 0 z m 49 127 b 53 140 58 154 64 169 b 95 243 150 337 183 337 b 205 337 198 297 162 239 b 125 179 91 133 49 127 z"},"b":{"x_min":0,"x_max":236,"ha":236,"o":"m 24 0 b 96 0 164 94 197 181 b 224 169 254 175 282 213 b 280 223 274 231 263 228 b 243 200 223 198 207 208 b 214 233 219 257 219 277 b 220 348 175 366 150 342 l 278 577 l 215 577 b 185 519 36 255 7 186 b -27 129 -61 0 24 0 z m 43 38 b 13 38 31 102 75 200 b 81 213 105 259 135 314 b 131 297 132 275 142 247 b 148 231 157 216 167 204 b 143 125 85 38 43 38 z m 168 256 b 144 310 184 335 179 262 l 176 240 z"},"%":{"x_min":0,"x_max":401,"ha":401,"o":"m 127 186 b 141 186 155 189 169 193 l -67 0 l -28 0 l 141 138 b 103 70 110 -6 191 -6 b 328 -6 450 240 298 240 b 285 240 272 238 259 235 l 483 418 l 443 418 l 270 276 b 318 347 324 432 234 432 b 76 432 -19 186 127 186 z m 140 215 b 65 220 175 431 228 402 b 275 376 197 211 140 215 z m 204 23 b 129 28 239 239 292 210 b 339 184 261 19 204 23 z"},"m":{"x_min":0,"x_max":349,"ha":349,"o":"m -91 0 l -29 0 l 59 171 b 109 270 158 325 173 315 b 189 304 151 234 124 184 b 91 124 53 42 29 0 l 91 0 b 114 43 153 126 178 177 b 219 257 272 325 287 315 b 303 304 286 264 232 181 b 187 113 132 0 197 0 b 262 0 304 77 395 213 b 394 220 383 229 376 228 b 310 131 263 53 243 55 b 224 57 244 102 292 177 b 339 253 376 335 328 352 b 296 363 262 340 229 300 b 235 325 233 345 214 352 b 190 360 163 347 136 320 l 151 350 l 89 350 z"},"#":{"x_min":0,"x_max":510,"ha":510,"o":"m 390 249 l 486 249 l 496 276 l 409 276 l 488 396 l 431 396 l 351 276 l 281 276 l 360 396 l 303 396 l 223 276 l 110 276 l 100 249 l 205 249 l 143 158 l 36 158 l 27 131 l 125 131 l 37 0 l 94 0 l 183 131 l 253 131 l 165 0 l 222 0 l 310 131 l 414 131 l 423 158 l 328 158 z m 333 249 l 271 158 l 201 158 l 262 249 z"},",":{"x_min":0,"x_max":144,"ha":144,"o":"m -84 -72 b -54 -76 45 -21 69 44 b 80 71 72 100 51 109 b 30 118 4 103 -7 76 b -17 54 -13 31 -1 18 b -20 -14 -50 -50 -84 -72 z"},"n":{"x_min":0,"x_max":236,"ha":236,"o":"m -90 0 l -28 0 l 71 194 b 117 278 159 324 173 315 b 189 304 172 264 118 181 b 73 113 18 0 83 0 b 149 0 191 77 282 213 b 282 220 270 229 263 228 b 197 131 149 53 130 55 b 111 57 130 102 178 177 b 226 253 263 335 215 352 b 191 360 163 347 135 320 l 151 350 l 89 350 z"},"h":{"x_min":0,"x_max":235,"ha":235,"o":"m 83 0 b 148 0 190 77 281 213 b 280 220 269 229 262 228 b 196 131 149 53 129 55 b 110 57 130 102 178 177 b 225 253 262 335 214 352 b 191 360 166 348 140 324 l 273 577 l 211 577 l -93 0 l -31 0 l 76 203 b 120 282 160 324 173 315 b 189 304 172 264 118 181 b 73 113 18 0 83 0 z"},"z":{"x_min":0,"x_max":208,"ha":208,"o":"m 64 -8 b 118 -8 162 77 254 213 b 253 220 242 229 235 228 b 171 134 124 42 73 47 b 62 47 49 52 34 57 b 107 134 157 257 199 309 b 216 313 233 320 248 333 b 316 389 248 424 187 337 b 162 329 131 339 115 352 b 126 457 37 436 66 357 b 68 351 74 344 82 337 b 77 312 61 279 27 228 b 32 221 38 215 46 213 b 76 256 94 296 103 324 b 120 315 140 309 162 307 b 115 252 63 151 -7 71 b -20 74 -33 76 -47 75 b -121 70 -121 -44 -21 13 l -2 25 b 15 10 32 -8 64 -8 z m -42 47 b -38 47 -35 46 -31 45 b -88 -13 -86 55 -42 47 z"},"B":{"x_min":0,"x_max":800,"ha":800,"o":"m 212 2 b 372 -11 463 138 523 290 b 543 341 562 393 584 442 b 607 491 631 539 666 581 b 683 602 703 621 726 635 b 755 606 767 563 752 525 b 730 467 685 424 624 412 b 611 412 598 411 591 409 b 580 406 581 392 593 392 b 599 392 609 393 621 395 b 739 391 741 250 699 149 b 669 75 634 41 594 22 b 563 8 533 13 517 44 b 491 99 521 163 560 203 b 577 219 597 234 618 244 b 621 246 624 248 627 251 b 651 282 609 318 583 289 b 524 224 456 124 492 33 b 513 -15 559 -29 607 -15 b 663 1 709 41 747 122 b 795 226 792 372 681 405 b 736 419 784 448 808 503 b 827 547 813 601 778 633 b 771 640 763 646 755 652 b 769 658 783 663 798 667 b 804 668 804 679 796 679 b 782 679 767 678 752 675 b 743 673 734 671 725 668 b 713 673 701 678 688 682 b 632 699 573 699 516 693 b 419 684 314 650 256 567 b 206 552 161 522 129 480 b 98 439 78 387 75 335 b 4 221 24 18 212 2 z m 76 299 b 79 274 85 250 96 227 b 123 170 182 138 244 137 b 307 135 369 172 400 227 b 424 268 431 314 422 353 l 426 356 b 492 404 515 500 478 572 b 475 579 464 574 467 567 b 493 499 469 419 412 378 b 395 413 361 438 309 443 b 286 446 262 445 238 441 b 238 454 238 467 240 480 b 244 503 252 525 264 544 b 283 551 303 557 323 560 b 336 563 350 564 364 566 b 371 567 371 577 364 578 b 338 581 311 579 286 575 b 312 605 346 629 383 645 b 425 664 471 675 517 680 b 554 684 592 684 629 678 b 652 674 676 667 697 656 b 661 638 628 610 602 579 b 537 500 499 402 464 309 b 409 164 350 36 211 36 b 83 36 21 179 76 299 z m 100 340 b 128 378 170 405 216 417 l 219 403 b 230 360 265 326 310 323 b 337 321 364 325 389 335 l 388 319 b 379 258 336 200 280 175 b 244 159 201 160 167 179 b 132 198 110 236 103 274 b 98 296 98 318 100 340 z m 107 375 b 115 407 131 437 151 463 b 173 492 202 515 234 531 b 220 502 212 469 214 436 b 174 425 136 404 107 375 z m 241 422 l 266 424 b 321 428 371 409 385 363 b 373 357 360 354 347 352 b 326 349 302 349 282 360 b 263 370 251 390 244 411 z"},"K":{"x_min":0,"x_max":937,"ha":937,"o":"m 329 -24 b 478 1 589 137 649 278 l 681 362 b 694 366 707 370 719 374 b 740 326 736 264 733 210 b 730 150 725 0 809 0 b 848 0 881 59 983 213 b 982 218 972 227 964 228 b 910 150 852 53 827 53 b 802 53 799 123 800 155 b 802 191 805 229 801 276 b 798 314 785 357 761 394 b 798 413 833 436 867 459 b 922 497 1149 704 1199 687 b 1204 681 1216 694 1197 707 b 1104 771 909 546 842 489 b 816 465 789 442 759 421 l 747 413 b 738 424 727 435 716 443 b 743 505 775 565 812 621 b 830 649 844 670 870 685 b 877 688 879 700 866 696 b 845 689 822 688 799 688 b 752 689 705 697 659 701 b 588 709 515 710 445 694 b 404 685 365 662 338 629 b 319 622 302 613 287 605 b 207 560 143 484 117 395 b 79 355 50 306 41 251 b 22 150 75 40 169 -6 b 217 -30 277 -32 329 -24 z m 63 248 b 68 287 84 323 107 355 b 100 311 101 265 119 224 b 140 174 191 140 244 135 b 334 125 423 178 462 258 b 477 287 487 320 489 353 b 508 357 527 364 543 374 b 562 359 588 355 611 354 l 620 354 l 616 343 b 539 136 351 -39 183 26 b 97 58 49 158 63 248 z m 134 369 l 140 393 b 167 420 198 443 231 461 b 252 472 275 482 298 488 b 303 445 323 404 360 379 b 387 361 417 351 448 350 b 446 339 443 329 440 318 b 424 262 386 212 332 187 b 281 162 213 161 170 201 b 124 243 122 312 134 369 z m 152 428 b 181 496 233 553 295 591 l 322 606 b 305 576 296 540 297 505 b 244 493 194 462 152 428 z m 331 510 b 331 539 338 569 351 593 b 358 605 366 616 375 626 b 392 631 410 634 428 634 b 444 634 459 632 472 626 b 475 624 479 625 481 628 b 482 631 481 635 478 637 b 454 649 426 650 398 646 b 414 657 432 666 451 671 b 517 690 589 692 658 687 b 705 683 751 677 798 676 l 800 676 b 797 674 794 672 791 669 b 762 639 738 603 717 567 b 699 535 682 503 667 469 b 651 475 634 479 616 480 b 616 494 612 508 603 521 b 598 527 589 521 592 514 b 597 505 599 495 598 484 l 597 480 b 586 478 574 475 563 470 b 536 458 516 427 525 399 b 513 393 500 389 488 387 b 484 413 475 438 457 459 b 435 487 402 504 367 509 b 355 511 343 511 331 510 z m 333 493 b 343 493 354 493 364 491 b 410 485 444 449 450 404 l 451 385 b 421 387 391 398 368 418 b 348 438 336 464 333 493 z m 543 409 b 541 427 556 443 572 449 b 577 451 581 452 586 453 b 576 435 561 421 543 409 z m 559 385 l 560 386 b 581 402 602 426 611 453 l 619 452 b 632 449 644 445 654 440 l 627 372 l 611 372 b 593 373 573 375 559 385 z m 691 386 l 699 406 l 709 393 z"},"R":{"x_min":0,"x_max":807,"ha":807,"o":"m 162 -11 b 209 -24 261 -24 308 -7 b 425 37 497 161 540 280 l 544 292 b 562 289 580 287 598 288 b 603 274 606 261 609 246 b 613 226 613 204 613 182 b 613 111 602 0 679 0 b 718 0 751 59 853 213 b 852 218 842 227 834 228 b 780 150 722 53 697 53 b 662 53 686 144 677 190 b 671 225 658 263 636 291 b 667 297 697 309 723 326 b 795 372 855 462 832 554 b 818 612 780 652 731 677 b 753 696 777 707 802 707 b 809 707 810 719 800 719 b 778 719 756 716 734 708 b 722 704 710 698 698 692 b 627 718 542 720 473 706 b 406 693 337 664 293 606 b 200 588 121 518 92 416 b 85 393 81 369 80 345 b 49 292 34 228 38 166 b 43 86 86 7 162 -11 z m 81 303 b 88 217 135 141 226 130 b 297 118 369 157 404 226 b 428 269 438 326 422 376 b 419 385 415 394 411 402 b 440 421 464 450 478 484 b 495 523 500 574 472 608 b 467 614 458 607 463 600 b 476 576 475 547 467 521 b 454 481 427 445 393 425 b 371 446 342 458 312 461 b 300 462 288 463 275 463 l 273 471 b 267 510 278 550 298 582 b 321 589 345 593 368 596 b 375 596 375 608 368 609 b 351 611 335 611 319 609 l 330 621 b 372 661 425 682 479 691 b 543 700 611 693 666 668 b 656 659 647 650 639 641 b 577 571 544 480 512 390 l 508 380 b 433 393 410 341 484 310 b 462 250 438 191 403 138 b 375 96 338 56 293 36 b 246 14 190 12 141 31 b 51 77 43 210 81 303 z m 103 347 b 140 403 198 435 260 440 b 264 428 271 418 280 408 b 307 379 349 375 384 388 b 402 350 393 296 367 250 b 340 204 299 164 247 157 b 193 149 142 181 119 235 b 104 271 100 309 103 347 z m 110 386 b 126 449 164 507 214 541 b 232 555 252 565 272 573 b 255 540 246 498 253 461 b 214 456 177 442 144 417 b 132 408 121 398 110 386 z m 286 440 l 310 438 b 334 435 352 426 365 414 l 363 413 b 340 408 314 411 296 428 b 292 431 289 436 286 440 z m 490 328 b 448 344 451 369 501 359 z m 552 316 l 559 336 b 567 331 574 324 580 317 b 571 316 562 316 552 316 z m 566 357 l 599 453 b 623 519 658 595 701 647 b 733 623 757 591 767 549 b 785 476 737 401 689 363 b 665 344 638 330 609 323 b 597 336 582 348 566 357 z"},"T":{"x_min":0,"x_max":596,"ha":596,"o":"m 207 -51 b 382 -62 480 78 570 272 b 604 350 642 439 682 514 b 697 541 712 571 731 598 l 786 589 l 830 583 l 826 569 b 819 537 834 502 862 500 b 885 498 898 535 873 535 b 859 535 854 551 856 563 b 857 569 858 575 860 580 b 926 575 993 579 1052 612 b 1072 623 1094 637 1104 658 b 1122 697 1076 722 1013 715 b 956 708 892 679 855 631 b 827 636 799 642 773 648 b 796 669 823 684 857 688 b 860 688 862 691 863 694 b 863 697 860 700 857 700 b 814 703 774 685 736 656 b 635 679 527 705 424 678 b 360 661 300 621 265 564 b 257 552 251 540 246 527 b 234 521 223 515 212 509 b 130 462 70 370 74 275 b 50 235 35 189 32 142 b 30 94 43 42 78 6 b 112 -30 160 -48 207 -51 z m 334 297 b 364 295 392 301 418 314 l 418 311 b 419 274 400 234 374 207 b 314 139 187 121 129 201 b 117 219 109 238 105 258 b 120 285 138 309 157 328 b 179 350 207 369 237 380 l 238 377 b 253 333 287 300 334 297 z m 85 217 b 126 101 273 77 371 141 b 434 182 484 267 459 341 b 483 361 503 386 517 413 b 541 458 554 536 496 561 b 489 564 484 555 490 551 b 505 540 514 524 514 506 b 515 459 487 415 457 381 l 445 369 b 403 426 319 428 253 410 b 249 451 262 493 286 527 l 300 532 b 328 541 357 547 387 551 b 390 552 393 555 392 558 b 392 562 389 564 385 564 b 357 561 329 555 302 547 b 312 559 324 569 337 578 b 439 647 564 628 683 607 b 641 561 607 506 585 464 b 557 411 531 355 507 300 b 453 177 383 -1 239 -22 b 198 -28 134 -18 97 24 b 54 77 59 151 85 217 z m 103 314 b 108 358 128 403 156 436 b 178 463 207 486 237 504 b 228 471 225 436 231 403 l 218 398 b 174 380 134 350 103 314 z m 256 386 l 268 389 b 318 400 390 390 411 343 b 380 323 345 312 309 322 b 282 331 263 356 257 383 z m 884 626 b 915 664 966 689 1017 693 b 1054 697 1101 685 1066 658 b 1016 620 951 617 884 626 z"},"P":{"x_min":0,"x_max":731,"ha":731,"o":"m 133 -1 b 223 -52 356 -44 452 93 b 491 149 519 223 539 279 b 581 268 626 265 668 274 b 786 298 883 414 872 537 b 865 606 821 655 763 684 b 778 693 796 699 815 704 b 818 705 820 707 820 710 b 820 713 817 716 814 716 b 792 717 769 713 748 707 b 741 705 734 702 727 699 b 704 707 681 711 658 714 b 521 728 386 697 315 615 b 219 601 136 536 105 438 b 99 418 95 398 93 377 b 4 255 19 63 133 -1 z m 94 336 b 101 257 149 187 239 176 b 310 166 383 201 418 264 b 441 305 452 356 436 401 b 446 408 454 416 462 424 b 506 470 538 554 496 611 b 491 616 482 610 485 603 b 505 568 495 525 478 491 b 465 466 447 443 424 426 b 403 459 366 477 326 481 b 312 482 299 482 285 482 b 283 505 288 530 296 551 b 302 566 310 580 320 593 b 340 598 360 601 381 603 b 389 604 389 615 381 616 b 368 617 354 618 341 617 b 414 686 541 709 634 696 b 657 693 678 689 696 683 b 680 672 665 660 652 646 b 591 580 558 497 525 416 l 519 400 b 507 398 495 395 484 390 b 463 381 447 358 456 334 b 462 319 473 308 486 300 b 466 241 442 178 407 124 b 333 11 237 -22 144 26 b 31 84 49 244 94 336 z m 117 376 b 153 425 208 454 267 460 b 271 436 283 413 302 397 b 333 373 371 372 406 385 b 410 354 400 318 380 287 b 353 245 312 208 261 202 b 207 195 155 223 133 273 b 118 306 113 341 117 376 z m 124 413 b 140 470 178 522 227 554 b 248 568 271 578 295 586 b 278 559 268 528 265 492 l 265 480 b 227 475 190 462 158 440 b 146 432 134 423 124 413 z m 289 462 b 300 462 312 461 323 460 b 362 454 386 436 398 412 l 395 411 b 361 397 319 403 299 437 b 294 445 291 453 289 462 z m 497 333 b 483 342 476 354 497 366 l 509 371 z m 553 315 l 577 377 b 617 373 659 358 694 341 b 682 334 669 328 655 324 b 623 313 587 310 553 315 z m 585 398 l 613 472 b 643 547 675 620 734 666 b 764 648 786 622 802 583 b 834 499 785 402 710 351 b 681 367 650 381 618 390 z"},"|":{"x_min":0,"x_max":258,"ha":258,"o":"m 385 800 l 337 800 l 27 -100 l 75 -100 z"},"t":{"x_min":0,"x_max":114,"ha":114,"o":"m -14 0 b 25 0 58 59 160 213 b 159 218 149 227 141 228 b 87 150 26 53 11 53 b 6 53 2 59 17 92 b 28 117 130 306 203 442 b 246 435 290 431 333 432 b 426 434 519 459 597 541 b 602 547 595 558 585 550 b 539 498 478 483 406 482 b 352 481 292 488 232 495 l 276 577 l 213 577 l 173 502 b 122 507 71 512 23 511 b -58 510 -130 493 -180 441 l -182 437 b -182 433 -179 430 -176 430 b -174 430 -171 431 -169 433 b -139 465 -98 476 -50 476 b 7 477 74 463 146 451 b 79 327 -13 155 -32 109 b -61 40 -45 0 -14 0 z"},"M":{"x_min":0,"x_max":867,"ha":867,"o":"m 135 -64 b 196 -95 272 -85 327 -45 b 353 -27 374 -3 394 22 b 506 166 575 335 656 497 b 667 521 685 553 703 582 b 688 547 672 506 662 476 b 636 400 614 323 592 247 b 578 196 557 121 557 60 b 558 47 561 38 563 34 b 567 27 575 30 575 38 b 588 111 608 142 623 169 b 703 303 796 430 896 551 l 878 523 b 832 449 789 372 754 293 b 727 232 699 171 684 106 b 668 38 700 0 739 0 b 778 0 811 59 913 213 b 912 218 902 227 894 228 b 840 150 782 53 757 53 b 731 53 741 97 760 151 b 782 209 810 267 838 324 b 885 419 933 517 983 610 b 996 634 1017 675 1039 698 l 1048 706 b 1054 712 1047 723 1039 718 b 936 633 855 535 770 431 b 734 385 699 339 665 292 l 670 305 b 695 380 719 455 747 529 b 750 538 791 646 806 667 b 815 677 813 683 799 678 b 757 661 624 657 576 659 b 550 661 524 660 498 658 b 423 651 350 615 303 556 b 271 545 242 527 220 511 b 158 464 113 396 95 321 b 88 296 84 271 82 246 b 56 201 36 150 37 97 b 36 31 74 -36 135 -64 z m 63 98 b 59 136 67 175 82 210 b 82 201 83 191 85 181 b 95 111 143 53 217 47 b 286 42 350 80 391 132 b 423 174 449 228 453 283 b 467 289 480 296 491 306 b 545 353 569 430 554 499 b 548 526 535 552 513 570 b 507 574 500 566 504 561 b 519 542 526 518 528 495 b 532 432 505 363 450 331 b 448 343 445 354 440 365 b 419 415 366 441 313 434 b 302 433 291 430 280 427 b 279 465 290 504 311 536 l 318 547 b 341 554 366 559 388 551 l 393 562 b 375 569 354 569 333 565 b 375 611 437 636 499 644 b 550 651 601 643 652 643 b 677 643 701 643 731 645 b 693 609 658 539 641 505 b 585 399 532 291 470 188 b 440 138 408 88 368 43 b 328 -4 274 -41 210 -39 b 133 -39 70 21 63 98 z m 110 264 b 143 312 183 357 234 386 l 250 394 b 252 379 256 364 262 350 b 277 312 313 281 355 274 b 371 270 388 269 404 271 b 401 258 397 245 393 233 b 375 182 341 135 294 108 b 249 82 189 78 151 116 b 113 153 106 212 110 264 z m 113 293 b 128 395 194 489 286 534 b 275 516 265 496 259 475 b 253 456 249 435 249 415 b 195 389 149 342 113 293 z m 283 405 b 319 414 358 410 385 381 b 401 363 408 340 409 317 b 391 314 373 315 356 320 b 318 329 292 360 284 398 z"},"g":{"x_min":0,"x_max":252,"ha":252,"o":"m -232 -230 b -177 -267 -48 -252 52 -116 b 68 -94 84 -69 98 -42 b 156 -24 193 55 298 213 b 296 218 287 227 279 228 b 224 148 168 38 117 -3 b 176 119 222 265 291 345 l 234 345 b 221 344 209 331 198 311 b 196 335 182 350 158 350 b 116 350 62 308 4 182 b -51 63 -41 0 4 0 b 28 0 52 17 74 43 b 66 17 58 -7 46 -28 b 14 -34 -32 -36 -118 -54 b -253 -82 -286 -193 -232 -230 z m -206 -196 b -257 -177 -207 -103 -120 -81 b -68 -68 -18 -67 25 -59 b -56 -170 -157 -214 -206 -196 z m 40 53 b 19 53 28 102 61 175 b 95 248 134 307 167 307 b 186 307 182 280 165 250 l 92 109 b 78 78 59 53 40 53 z"},"j":{"x_min":0,"x_max":116,"ha":116,"o":"m -368 -230 b -313 -267 -212 -252 -112 -116 b -97 -95 -80 -69 -61 -40 b 11 -14 54 51 162 213 b 161 218 151 227 143 228 b 84 142 23 39 -37 0 b 53 151 154 350 154 350 l 92 350 l -111 -28 b -139 -34 -180 -38 -254 -54 b -389 -82 -422 -193 -368 -230 z m 159 424 b 180 416 206 430 218 458 b 229 485 222 514 201 523 b 180 532 154 517 142 490 b 131 462 138 433 159 424 z m -342 -196 b -393 -177 -343 -103 -256 -81 b -206 -69 -165 -64 -126 -57 b -193 -171 -291 -214 -342 -196 z"},"i":{"x_min":0,"x_max":116,"ha":116,"o":"m -12 0 b 27 0 60 59 162 213 b 161 218 151 227 143 228 b 89 150 28 53 13 53 b 7 53 3 59 18 92 b 35 129 128 302 154 350 l 91 350 b 61 292 -2 177 -30 109 b -59 40 -43 0 -12 0 z m 169 298 b 175 387 180 418 187 453 b 220 461 253 466 342 471 b 253 476 223 481 187 489 b 180 522 175 555 169 644 b 164 558 159 525 152 489 b 119 481 88 476 -3 471 b 88 466 119 461 152 453 b 159 418 164 385 169 298 z"},"y":{"x_min":0,"x_max":238,"ha":238,"o":"m -246 -230 b -191 -267 -91 -252 9 -116 b 24 -95 42 -69 60 -40 b 133 -15 176 50 284 213 b 283 218 273 227 265 228 b 206 142 144 38 84 0 b 174 150 276 350 276 350 l 213 350 l 153 238 b 103 146 52 53 27 53 b 8 53 10 78 20 100 b 37 137 129 302 155 350 l 93 350 b 62 292 -4 177 -33 109 b -61 40 -42 0 -10 0 b 6 0 23 11 45 34 l 11 -28 b -17 -34 -58 -38 -133 -54 b -267 -82 -301 -193 -246 -230 z m -220 -196 b -272 -177 -222 -103 -134 -81 b -84 -69 -43 -64 -4 -57 b -71 -171 -170 -214 -220 -196 z"},"@":{"x_min":0,"x_max":568,"ha":568,"o":"m 401 499 b 198 499 7 272 -23 99 b -41 -8 1 -94 140 -94 l 141 -67 b 30 -67 13 -10 31 88 b 61 259 219 472 399 472 b 506 472 546 380 492 238 b 454 140 393 56 349 46 b 333 42 323 58 327 80 b 332 110 407 244 469 357 l 411 357 l 375 292 b 379 330 366 357 328 357 b 228 357 119 201 101 96 b 91 41 105 0 158 0 b 189 0 230 32 268 78 b 259 26 287 0 331 0 b 411 0 491 137 532 246 b 585 390 530 499 401 499 z m 181 41 b 163 41 158 59 163 86 b 178 170 275 321 330 321 b 350 321 356 301 351 273 b 337 189 234 41 181 41 z"},".":{"x_min":0,"x_max":144,"ha":144,"o":"m 10 10 b 31 2 57 16 69 44 b 80 71 72 100 51 109 b 30 118 4 103 -7 76 b -19 48 -11 19 10 10 z"},"p":{"x_min":0,"x_max":238,"ha":238,"o":"m -218 -247 l -156 -247 l -2 52 b -3 26 3 0 33 0 b 86 0 167 36 284 213 b 283 218 273 227 265 228 b 218 160 173 103 124 68 b 147 98 169 134 186 169 b 228 255 257 337 214 352 b 190 360 163 346 135 319 l 151 350 l 89 350 z m 59 171 b 109 270 158 325 173 315 b 189 304 172 260 126 173 b 88 101 57 61 33 61 b 23 61 12 80 26 106 z"},"X":{"x_min":0,"x_max":793,"ha":793,"o":"m 178 1 b 335 -42 455 84 564 235 b 566 104 603 -3 672 -3 b 710 -3 737 59 839 213 b 838 218 828 227 820 228 b 766 150 715 63 690 63 b 651 63 606 167 600 285 b 659 370 716 459 775 526 b 843 604 951 713 1058 683 b 1060 682 1063 683 1065 686 b 1067 690 1066 694 1063 695 b 951 760 812 653 733 571 b 684 519 642 461 603 400 l 604 407 b 612 466 630 524 649 577 b 656 594 663 612 671 628 b 683 653 693 667 698 687 b 700 697 692 699 687 695 b 679 688 661 684 651 684 b 575 678 501 704 426 712 b 360 719 290 706 235 663 b 200 635 173 596 157 553 b 92 509 46 433 38 350 b 35 313 41 277 55 247 l 54 242 b 36 135 72 27 178 1 z m 64 287 b 52 347 73 418 112 469 b 121 482 132 494 144 504 b 139 476 138 447 143 418 b 105 385 79 338 64 287 z m 72 218 b 87 197 108 180 133 169 b 171 152 213 143 254 150 b 335 159 399 244 396 332 b 456 389 468 511 392 559 b 386 563 379 554 384 549 b 396 534 405 518 409 500 b 420 459 409 416 388 382 b 375 418 347 446 311 457 b 266 470 216 466 175 441 l 159 431 l 159 437 b 157 468 162 498 172 527 b 196 543 222 555 250 562 b 277 568 305 569 334 567 b 337 567 340 568 340 572 b 341 576 339 579 336 580 b 307 589 276 592 245 587 b 227 584 209 579 193 572 b 208 598 228 621 251 639 b 311 684 389 692 460 678 b 511 670 562 666 613 667 l 638 668 b 614 633 600 569 593 533 l 583 472 l 571 349 l 567 343 b 501 244 434 140 339 73 b 293 40 239 23 185 35 b 160 41 134 51 115 72 b 80 110 68 164 72 218 z m 76 252 b 84 294 100 333 121 364 b 129 376 138 386 148 396 l 148 394 b 160 352 189 314 229 301 b 269 289 315 286 355 304 b 339 249 295 201 247 184 b 214 172 178 175 146 188 b 112 202 90 225 76 252 z m 163 409 b 192 432 227 445 264 442 b 303 442 345 422 357 379 b 359 369 361 360 361 350 b 327 317 278 306 234 319 b 195 330 171 368 163 409 z"},"*":{"x_min":0,"x_max":244,"ha":244,"o":"m 267 574 l 211 484 l 131 483 l 175 428 l 101 314 l 211 382 l 266 314 l 264 418 l 357 475 l 262 479 z"},"Y":{"x_min":0,"x_max":772,"ha":772,"o":"m 270 -55 b 352 -85 438 -62 513 -19 b 553 4 615 56 655 104 b 746 214 809 344 879 468 b 906 517 937 575 969 619 b 990 650 1015 679 1051 691 b 1054 691 1056 694 1056 697 b 1057 700 1054 703 1051 703 b 1044 704 1037 704 1030 703 b 995 701 962 686 935 665 b 863 609 820 529 776 451 b 751 410 725 369 692 334 b 667 307 636 281 603 268 b 569 254 550 274 564 309 b 587 365 659 430 691 462 b 830 597 793 726 622 715 b 590 712 559 705 529 695 b 520 702 510 707 499 711 b 458 725 415 715 375 701 b 226 642 55 469 36 304 b 28 242 39 173 86 128 b 103 110 125 98 148 91 b 161 26 204 -32 270 -55 z m 69 300 b 76 356 100 407 130 455 b 192 548 281 633 385 676 b 418 688 457 697 490 685 l 496 682 l 452 662 b 347 606 250 529 191 424 b 167 380 151 319 184 277 b 162 242 148 203 144 162 b 143 149 142 135 143 122 b 130 128 118 137 107 149 b 70 188 62 247 69 300 z m 200 107 b 198 123 199 140 201 156 b 205 183 213 209 223 234 l 227 244 b 280 221 341 250 390 287 b 390 276 387 266 384 256 b 378 237 368 220 356 204 b 354 201 355 197 358 195 b 361 193 365 194 367 197 b 377 214 388 233 394 252 b 399 266 403 282 403 297 b 417 309 430 321 442 333 b 513 408 593 531 566 638 b 562 653 555 668 545 680 l 568 686 b 595 693 624 696 652 694 b 755 691 722 592 646 519 b 578 459 474 358 491 271 b 498 238 530 218 564 218 b 596 218 641 245 671 275 b 738 342 783 428 836 507 b 740 341 635 91 484 -7 b 441 -35 387 -49 336 -43 b 262 -34 216 20 203 85 b 244 87 285 104 313 134 b 318 139 311 148 305 143 b 275 119 237 106 200 107 z m 203 303 b 168 361 240 461 280 504 b 344 575 424 636 514 670 b 556 629 526 551 503 503 b 474 444 436 388 390 342 l 387 345 b 347 392 275 367 235 334 b 223 325 213 314 203 303 z m 240 273 b 246 285 253 297 261 307 b 282 335 318 359 354 349 b 365 346 373 339 379 331 l 370 323 b 336 294 286 256 240 273 z"},"c":{"x_min":0,"x_max":204,"ha":204,"o":"m 37 0 b 87 0 139 36 250 213 b 250 222 238 228 231 228 b 140 85 92 38 54 39 b 26 40 26 87 47 136 b 93 244 152 332 187 336 b 204 338 209 322 200 304 b 183 272 145 250 123 228 b 87 192 125 162 159 194 b 191 225 213 262 225 302 b 235 336 221 362 185 362 b 123 362 55 297 10 195 b -44 70 -13 0 37 0 z"},"!":{"x_min":0,"x_max":144,"ha":144,"o":"m 10 10 b 31 2 57 16 69 44 b 80 71 72 100 51 109 b 30 118 4 103 -7 76 b -19 48 -11 19 10 10 z m 60 168 l 80 167 l 323 553 l 235 580 z"},"/":{"x_min":0,"x_max":270,"ha":270,"o":"m -210 -159 l 611 576 l 562 576 l -258 -159 z"},"[":{"x_min":0,"x_max":316,"ha":316,"o":"m 165 -124 l 51 -124 l 339 512 l 434 512 l 440 540 l 267 540 l -43 -153 l 159 -153 z"},"6":{"x_min":0,"x_max":2955,"ha":2955,"o":"m 1492 612 b 1519 612 1537 623 1542 649 b 1545 661 1545 676 1545 691 b 1545 715 1549 749 1540 772 b 1533 792 1510 798 1490 798 b 1471 797 1452 788 1448 765 b 1441 743 1443 711 1443 684 b 1443 673 1443 663 1446 651 b 1450 626 1464 612 1492 612 z m 987 -247 b 1007 -247 1009 -227 1009 -212 l 998 -212 b 998 -217 999 -224 997 -229 b 992 -237 981 -238 977 -232 b 970 -224 973 -206 973 -200 b 973 -191 970 -172 976 -165 b 981 -159 992 -159 997 -167 b 999 -172 998 -180 998 -184 l 1009 -184 b 1009 -169 1009 -153 990 -153 b 968 -149 959 -164 959 -181 b 959 -205 953 -247 987 -247 z m 1039 -234 b 1028 -230 1031 -201 1031 -191 l 1031 -177 b 1031 -167 1039 -158 1051 -164 b 1061 -167 1059 -193 1059 -203 b 1059 -215 1060 -246 1039 -234 z m 1046 -247 b 1074 -247 1072 -218 1072 -200 b 1072 -180 1074 -153 1046 -153 b 1020 -149 1020 -172 1020 -197 b 1020 -216 1016 -247 1046 -247 z m 1085 -246 l 1095 -246 l 1095 -177 l 1111 -246 l 1121 -246 l 1136 -177 l 1136 -246 l 1146 -246 l 1144 -153 l 1131 -153 l 1117 -227 l 1098 -153 l 1085 -153 z m 1054 -128 l 1069 -128 l 1069 -85 l 1087 -85 l 1087 -77 l 1069 -77 l 1069 -44 l 1091 -44 l 1091 -35 l 1054 -35 z m 1161 -246 l 1171 -246 l 1173 -177 l 1185 -246 l 1196 -246 l 1211 -177 l 1213 -246 l 1222 -246 l 1218 -153 l 1206 -153 l 1192 -227 l 1175 -153 l 1161 -153 z m 1126 -128 b 1151 -128 1151 -103 1151 -83 b 1151 -65 1153 -38 1128 -33 b 1098 -33 1098 -57 1098 -79 b 1098 -100 1096 -128 1126 -128 z m 1121 -120 b 1106 -115 1112 -85 1112 -77 l 1112 -62 b 1112 -50 1121 -39 1131 -45 b 1141 -50 1138 -77 1138 -86 b 1138 -100 1138 -124 1121 -120 z m 1237 -246 l 1274 -246 l 1274 -237 l 1252 -237 l 1252 -201 l 1269 -201 l 1269 -191 l 1252 -191 l 1252 -162 l 1274 -162 l 1274 -153 l 1237 -153 z m 1164 -35 l 1164 -128 l 1175 -128 l 1175 -85 l 1185 -85 l 1199 -128 l 1213 -128 l 1199 -83 b 1215 -77 1213 -45 1199 -38 b 1189 -33 1175 -35 1164 -35 z m 1283 -153 l 1283 -246 l 1298 -246 l 1298 -201 l 1308 -201 l 1319 -246 l 1331 -246 l 1318 -200 b 1333 -193 1331 -164 1319 -154 b 1309 -149 1297 -153 1283 -153 z m 1175 -77 l 1175 -44 b 1189 -44 1199 -45 1199 -60 b 1199 -75 1189 -77 1175 -77 z m 1298 -191 l 1298 -162 b 1309 -162 1318 -164 1318 -177 b 1318 -191 1309 -191 1298 -191 z m 1367 -247 b 1390 -247 1391 -227 1391 -212 l 1378 -212 b 1378 -217 1382 -224 1377 -229 b 1376 -237 1363 -238 1357 -232 b 1351 -224 1354 -206 1354 -200 b 1354 -191 1351 -172 1357 -165 b 1363 -159 1376 -159 1377 -167 b 1382 -172 1378 -180 1378 -184 l 1391 -184 b 1391 -169 1390 -153 1373 -153 b 1351 -149 1342 -164 1342 -181 b 1342 -205 1333 -247 1367 -247 z m 1260 -128 l 1274 -128 l 1274 -44 l 1291 -44 l 1291 -35 l 1244 -35 l 1244 -44 l 1260 -44 z m 1406 -246 l 1418 -246 l 1418 -153 l 1406 -153 z m 1298 -128 l 1309 -128 l 1309 -85 l 1334 -85 l 1334 -128 l 1347 -128 l 1347 -35 l 1334 -35 l 1334 -77 l 1309 -77 l 1309 -35 l 1298 -35 z m 1428 -246 l 1441 -246 l 1446 -222 l 1464 -222 l 1470 -246 l 1481 -246 l 1460 -153 l 1448 -153 z m 1448 -215 l 1455 -169 l 1463 -215 z m 1361 -128 l 1398 -128 l 1398 -121 l 1376 -121 l 1376 -85 l 1394 -85 l 1394 -77 l 1376 -77 l 1376 -44 l 1398 -44 l 1398 -35 l 1361 -35 z m 1490 -246 l 1528 -246 l 1528 -237 l 1503 -237 l 1503 -153 l 1490 -153 z m 1438 -128 l 1448 -128 l 1448 -85 l 1464 -85 l 1464 -77 l 1448 -77 l 1448 -44 l 1473 -44 l 1473 -35 l 1438 -35 z m 1580 -246 l 1589 -246 l 1610 -153 l 1600 -153 l 1584 -222 l 1570 -153 l 1560 -153 z m 1514 -128 b 1533 -121 1531 -95 1531 -78 l 1531 -35 l 1519 -35 l 1519 -77 b 1519 -88 1522 -121 1504 -121 b 1486 -121 1492 -88 1492 -77 l 1492 -35 l 1481 -35 l 1481 -85 b 1481 -91 1480 -100 1481 -106 b 1483 -124 1494 -132 1514 -128 z m 1621 -246 l 1660 -246 l 1660 -237 l 1634 -237 l 1634 -201 l 1654 -201 l 1654 -191 l 1634 -191 l 1634 -162 l 1660 -162 l 1660 -153 l 1621 -153 z m 1545 -128 l 1580 -128 l 1580 -121 l 1559 -121 l 1559 -35 l 1545 -35 z m 1669 -153 l 1669 -246 l 1682 -246 l 1682 -201 l 1691 -201 l 1703 -246 l 1715 -246 l 1701 -200 b 1718 -194 1718 -164 1705 -154 b 1694 -149 1680 -153 1669 -153 z m 1173 359 l 1173 263 l 1185 263 l 1185 307 b 1196 307 1203 306 1213 313 b 1218 321 1218 337 1215 349 b 1206 364 1185 359 1173 359 z m 1682 -191 l 1682 -162 b 1694 -162 1701 -164 1701 -177 b 1701 -191 1694 -191 1682 -191 z m 1589 -128 l 1625 -128 l 1625 -121 l 1602 -121 l 1602 -35 l 1589 -35 z m 1185 315 l 1185 353 b 1199 353 1205 353 1205 336 b 1205 328 1205 322 1199 318 b 1196 315 1190 315 1185 315 z m 1752 -247 b 1769 -247 1776 -232 1770 -217 b 1770 -205 1758 -200 1753 -191 b 1744 -184 1734 -177 1739 -167 b 1742 -162 1747 -159 1753 -162 b 1758 -164 1758 -172 1761 -180 l 1770 -174 b 1770 -165 1769 -158 1758 -153 b 1753 -149 1742 -150 1734 -158 b 1720 -165 1726 -186 1738 -197 b 1744 -203 1761 -215 1761 -225 b 1761 -232 1754 -238 1744 -234 b 1739 -232 1738 -222 1738 -216 l 1726 -218 b 1726 -234 1734 -247 1752 -247 z m 1232 263 l 1266 263 l 1266 273 l 1240 273 l 1240 359 l 1232 359 z m 1091 404 b 1130 416 1121 472 1121 504 l 1121 587 l 1096 587 l 1096 461 b 1096 440 1089 412 1062 420 b 1046 429 1046 450 1046 464 l 1046 587 l 1023 587 l 1023 474 b 1023 455 1023 441 1028 429 b 1038 404 1069 393 1091 404 z m 1784 -246 l 1796 -246 l 1796 -153 l 1784 -153 z m 1660 -128 l 1670 -128 l 1676 -105 l 1694 -105 l 1697 -128 l 1711 -128 l 1691 -35 l 1676 -35 z m 1276 263 l 1310 263 l 1310 273 l 1287 273 l 1287 307 l 1307 307 l 1307 318 l 1287 318 l 1287 353 l 1310 353 l 1310 359 l 1276 359 z m 1676 -97 l 1684 -54 l 1691 -97 z m 1829 -234 b 1819 -230 1826 -201 1826 -191 l 1826 -177 b 1826 -167 1829 -158 1844 -164 b 1852 -167 1850 -193 1850 -203 b 1850 -215 1850 -246 1829 -234 z m 1837 -247 b 1863 -247 1862 -218 1862 -200 b 1862 -180 1865 -153 1839 -153 b 1809 -149 1809 -172 1809 -197 b 1809 -216 1807 -247 1837 -247 z m 1316 263 l 1328 263 l 1331 289 l 1351 289 l 1355 263 l 1369 263 l 1351 359 l 1335 359 z m 1720 -128 l 1733 -128 l 1733 -65 l 1757 -128 l 1766 -128 l 1766 -35 l 1754 -35 l 1754 -97 l 1729 -35 l 1720 -35 z m 1331 297 l 1342 344 l 1351 297 z m 1192 401 b 1222 401 1239 429 1234 457 b 1232 482 1213 494 1196 507 b 1182 520 1161 533 1169 552 b 1170 562 1179 570 1192 565 b 1205 563 1210 547 1211 533 l 1232 541 b 1232 555 1227 570 1215 580 b 1202 587 1183 590 1171 587 b 1141 578 1136 541 1150 518 b 1158 504 1175 494 1185 483 b 1196 478 1200 469 1205 462 b 1213 453 1215 433 1203 427 b 1196 418 1183 420 1175 429 b 1169 435 1169 450 1168 461 l 1141 454 b 1144 425 1161 401 1192 401 z m 1876 -246 l 1883 -246 l 1883 -181 l 1913 -246 l 1923 -246 l 1923 -153 l 1912 -153 l 1912 -215 l 1883 -153 l 1876 -153 z m 1400 263 b 1418 263 1428 278 1422 294 b 1421 305 1410 311 1400 318 b 1394 324 1387 332 1390 344 b 1391 354 1405 358 1411 332 l 1422 334 b 1422 344 1418 354 1410 358 b 1400 363 1390 359 1385 355 b 1369 344 1377 324 1390 314 b 1396 306 1411 297 1411 284 b 1411 277 1406 273 1396 273 b 1390 277 1390 287 1390 294 l 1376 289 b 1377 277 1387 263 1400 263 z m 1782 -35 l 1782 -128 b 1791 -128 1809 -130 1819 -123 b 1833 -116 1828 -97 1828 -83 b 1828 -71 1833 -50 1823 -42 b 1811 -33 1793 -35 1782 -35 z m 1795 -121 l 1795 -44 b 1807 -44 1816 -44 1817 -60 l 1817 -106 b 1813 -121 1805 -121 1795 -121 z m 1433 263 l 1472 263 l 1472 273 l 1448 273 l 1448 307 l 1464 307 l 1464 318 l 1448 318 l 1448 353 l 1471 353 l 1471 359 l 1433 359 z m 1022 614 l 1046 614 l 1046 697 b 1062 697 1085 695 1096 708 b 1117 722 1117 755 1106 777 b 1096 795 1078 797 1061 797 l 1022 797 z m 1257 404 l 1326 404 l 1326 420 l 1281 420 l 1281 488 l 1318 488 l 1318 507 l 1281 507 l 1281 565 l 1326 565 l 1326 587 l 1257 587 z m 1046 716 l 1046 778 b 1054 778 1063 780 1074 777 b 1089 774 1089 757 1089 745 b 1089 733 1087 721 1074 718 b 1063 715 1054 716 1046 716 z m 1524 263 l 1537 263 l 1557 359 l 1545 359 l 1531 289 l 1518 359 l 1503 359 z m 1131 614 l 1202 614 l 1202 630 l 1156 630 l 1156 697 l 1193 697 l 1193 716 l 1156 716 l 1156 778 l 1200 778 l 1200 797 l 1131 797 z m 1566 263 l 1580 263 l 1580 359 l 1566 359 z m 1617 263 b 1632 263 1643 278 1637 294 b 1636 305 1624 313 1618 318 b 1612 324 1601 332 1605 344 b 1610 354 1623 358 1625 332 l 1637 334 b 1636 344 1632 354 1624 358 b 1618 363 1607 359 1600 355 b 1584 344 1593 324 1604 314 b 1613 306 1627 297 1625 284 b 1625 277 1621 273 1613 273 b 1607 277 1604 287 1604 294 l 1591 289 b 1593 277 1600 263 1617 263 z m 1448 401 b 1472 401 1490 414 1492 439 b 1497 453 1494 466 1494 483 b 1494 506 1500 539 1490 561 b 1483 581 1464 587 1442 587 b 1422 587 1406 578 1398 557 b 1394 533 1396 504 1396 478 b 1396 464 1396 453 1398 440 b 1400 414 1421 401 1448 401 z m 1433 422 b 1421 429 1422 447 1422 461 l 1422 494 b 1422 512 1419 533 1422 551 b 1427 561 1431 565 1441 565 b 1448 570 1455 565 1463 561 b 1472 554 1471 543 1471 533 l 1471 466 b 1471 461 1472 453 1471 447 b 1470 439 1464 429 1455 422 b 1450 420 1441 420 1433 422 z m 1649 263 l 1665 263 l 1665 359 l 1649 359 z m 1222 797 l 1222 614 l 1249 614 l 1249 698 l 1268 698 l 1293 614 l 1316 614 l 1293 705 b 1323 715 1321 775 1293 790 b 1274 800 1246 797 1222 797 z m 1690 263 l 1700 263 l 1700 353 l 1715 353 l 1715 359 l 1672 359 l 1672 353 l 1690 353 z m 1249 716 l 1249 778 b 1257 778 1266 780 1276 776 b 1287 772 1289 759 1289 752 b 1291 737 1287 723 1276 718 b 1266 716 1257 716 1249 716 z m 1522 404 l 1542 404 l 1542 528 l 1596 404 l 1613 404 l 1613 587 l 1591 587 l 1591 464 l 1540 587 l 1522 587 z m 1385 612 b 1415 612 1432 638 1427 668 b 1421 688 1405 701 1390 716 b 1375 727 1354 743 1357 764 b 1361 775 1373 780 1385 780 b 1398 776 1400 757 1405 745 l 1424 753 b 1422 765 1419 782 1408 790 b 1396 798 1376 800 1363 795 b 1331 788 1326 753 1342 724 b 1351 713 1367 701 1377 692 b 1389 684 1394 676 1398 671 b 1406 661 1408 644 1398 636 b 1390 629 1376 630 1367 638 b 1361 646 1357 657 1356 671 l 1331 665 b 1333 635 1351 612 1385 612 z m 1643 404 l 1711 404 l 1711 420 l 1668 420 l 1668 587 l 1643 587 z m 1483 633 b 1470 640 1471 657 1471 669 l 1471 701 b 1471 719 1464 745 1472 759 b 1475 772 1480 777 1490 778 b 1497 780 1504 780 1510 772 b 1519 764 1519 753 1519 741 l 1519 657 b 1519 649 1518 638 1505 633 b 1500 630 1490 630 1483 633 z m 1837 404 l 1862 404 l 1862 429 l 1837 429 z m 1757 441 l 1757 404 l 1784 404 l 1784 448 b 1784 455 1782 464 1785 474 l 1798 509 b 1807 537 1816 561 1823 587 l 1798 587 l 1770 499 l 1742 587 l 1720 587 l 1744 504 b 1752 494 1754 483 1757 469 b 1758 461 1757 450 1757 441 z m 1570 614 l 1591 614 l 1591 737 l 1643 614 l 1661 614 l 1661 797 l 1637 797 l 1637 673 l 1585 797 l 1570 797 z m 1844 442 l 1852 442 l 1862 587 l 1837 587 z m 1678 614 l 1701 614 l 1711 657 l 1749 657 l 1757 614 l 1782 614 l 1742 797 l 1718 797 z m 1715 676 l 1731 759 l 1744 676 z m 1800 614 l 1872 614 l 1872 630 l 1827 630 l 1827 797 l 1800 797 z m 224 -4 l 259 -4 l 261 91 l 281 -4 l 308 -4 l 325 93 l 329 -4 l 362 -4 l 361 230 l 321 230 l 294 83 l 265 230 l 227 230 z m 392 -4 l 429 -4 l 429 110 l 470 -4 l 499 -4 l 499 230 l 462 230 l 462 118 l 422 230 l 392 230 z m 525 -4 l 565 -4 l 565 38 l 525 38 z m 646 -7 b 672 -1 686 19 687 40 b 691 70 681 96 660 118 l 641 139 b 633 147 624 153 619 167 b 616 175 617 198 635 197 b 651 194 647 167 650 151 l 686 153 b 686 181 683 215 656 228 b 623 244 584 221 583 187 b 579 168 583 147 592 133 b 595 124 606 118 614 108 b 627 93 650 74 650 50 b 650 40 647 32 640 30 b 633 27 629 32 626 38 b 617 51 617 66 617 80 l 580 78 b 580 57 583 38 590 20 b 599 -1 624 -10 646 -7 z m 788 3 l 790 -4 l 820 -4 l 820 118 l 760 118 l 760 83 l 783 83 b 783 70 787 19 760 30 b 741 35 746 67 746 80 l 746 165 b 746 183 750 199 768 197 b 778 192 780 188 780 147 l 818 147 b 818 173 820 209 793 225 b 778 235 758 235 740 230 b 720 221 710 201 706 181 b 703 160 705 136 705 113 b 705 91 703 70 706 48 b 708 30 714 8 730 0 b 746 -10 773 -10 788 3 z m 828 -34 l 861 -34 l 928 260 l 891 260 z m 983 -9 b 992 -10 1003 -9 1011 -4 b 1038 8 1041 42 1041 71 l 1004 73 b 1004 58 1006 30 989 27 b 982 26 974 30 974 42 l 974 180 b 974 192 982 197 989 195 b 1006 192 1004 165 1004 150 l 1041 152 b 1041 180 1038 215 1011 227 b 1003 231 992 233 983 231 b 960 229 936 211 936 182 l 936 41 b 936 12 960 -6 983 -9 z m 1061 -6 l 1103 -6 l 1103 93 l 1138 93 l 1138 -6 l 1176 -6 l 1176 229 l 1138 229 l 1138 134 l 1103 134 l 1103 229 l 1061 229 z m 1196 -6 l 1234 -6 l 1234 96 l 1245 96 l 1265 -6 l 1304 -6 l 1278 103 b 1299 117 1306 146 1306 168 b 1306 211 1281 229 1264 229 l 1196 229 z m 1255 129 l 1234 129 l 1234 195 l 1246 195 b 1270 195 1268 136 1255 129 z m 1326 -6 l 1367 -6 l 1367 229 l 1326 229 z m 1452 -9 b 1477 -3 1492 18 1493 39 b 1497 69 1485 95 1465 117 l 1446 138 b 1438 146 1431 152 1426 165 b 1423 175 1424 197 1440 195 b 1455 192 1454 165 1454 150 l 1492 152 b 1492 180 1488 215 1460 227 b 1430 241 1389 221 1387 186 b 1385 167 1387 146 1399 131 b 1402 124 1411 117 1418 107 b 1432 92 1454 74 1454 48 b 1454 39 1454 30 1446 29 b 1438 26 1433 30 1432 37 b 1424 50 1424 65 1424 78 l 1387 77 b 1387 56 1387 37 1395 20 b 1406 -3 1431 -12 1452 -9 z m 1536 -6 l 1576 -6 l 1576 189 l 1609 189 l 1609 229 l 1502 229 l 1502 189 l 1536 189 z m 1620 -6 l 1657 -6 l 1657 90 l 1676 -6 l 1702 -6 l 1721 92 l 1723 -6 l 1758 -6 l 1757 229 l 1715 229 l 1689 81 l 1661 229 l 1625 229 z m 1763 -6 l 1803 -6 l 1811 50 l 1837 50 l 1844 -6 l 1883 -6 l 1843 229 l 1806 229 z m 1817 83 l 1823 131 l 1830 83 z m 1954 -9 b 1978 -3 1994 18 1995 39 b 1998 69 1987 95 1967 117 l 1948 138 b 1940 146 1932 152 1928 165 b 1924 175 1926 197 1942 195 b 1957 192 1956 165 1956 150 l 1994 152 b 1994 180 1990 215 1962 227 b 1931 241 1891 221 1889 186 b 1887 167 1889 146 1900 131 b 1903 124 1913 117 1919 107 b 1933 92 1956 74 1956 48 b 1956 39 1956 30 1948 29 b 1940 26 1935 30 1933 37 b 1926 50 1926 65 1926 78 l 1889 77 b 1889 56 1889 37 1897 20 b 1907 -3 1932 -12 1954 -9 z m 2005 90 l 2055 90 l 2055 131 l 2005 131 z m 2123 -9 b 2132 -10 2143 -9 2150 -4 b 2177 8 2181 42 2181 71 l 2144 73 b 2144 58 2146 30 2128 27 b 2122 26 2114 30 2114 42 l 2114 180 b 2114 192 2122 197 2128 195 b 2146 192 2144 165 2144 150 l 2181 152 b 2181 180 2177 215 2150 227 b 2143 231 2132 233 2123 231 b 2100 229 2075 211 2075 182 l 2075 41 b 2075 12 2100 -6 2123 -9 z m 2186 -6 l 2225 -6 l 2233 50 l 2259 50 l 2266 -6 l 2305 -6 l 2265 229 l 2228 229 z m 2239 83 l 2245 131 l 2252 83 z m 2310 -6 l 2349 -6 l 2349 96 l 2360 96 l 2380 -6 l 2419 -6 l 2393 103 b 2414 117 2421 146 2421 168 b 2421 211 2396 229 2379 229 l 2310 229 z m 2370 129 l 2349 129 l 2349 195 l 2361 195 b 2385 195 2383 136 2370 129 z m 2476 -4 b 2492 -9 2513 -9 2528 1 b 2554 16 2552 52 2552 78 l 2552 146 b 2552 171 2554 208 2528 224 b 2513 233 2492 233 2476 229 b 2455 221 2444 200 2443 179 b 2441 167 2441 155 2441 144 l 2441 78 b 2441 67 2441 56 2443 43 b 2444 23 2455 3 2476 -4 z m 2501 29 b 2493 27 2485 32 2484 37 b 2478 52 2480 71 2480 83 l 2480 139 b 2480 152 2478 171 2484 187 b 2485 190 2493 195 2501 195 b 2508 192 2513 189 2513 180 b 2516 169 2514 158 2514 146 l 2514 78 b 2514 66 2516 54 2513 43 b 2513 33 2508 32 2501 29 z m 2572 -6 l 2662 -6 l 2662 33 l 2613 33 l 2613 229 l 2572 229 z"},"r":{"x_min":0,"x_max":176,"ha":176,"o":"m 43 0 b 97 0 131 77 222 213 b 222 220 211 229 203 228 b 137 131 96 53 77 55 b 57 57 82 117 125 201 b 148 246 190 312 205 337 b 179 337 132 339 115 352 b 126 457 37 436 66 357 b 69 349 75 342 82 335 b 76 310 60 278 27 228 b 33 221 38 215 46 213 b 75 255 92 293 102 321 b 111 316 120 312 128 309 b 120 295 96 248 69 202 b 27 132 -23 0 43 0 z"},"2":{"x_min":0,"x_max":2955,"ha":2955,"o":"m 1492 612 b 1519 612 1537 623 1542 649 b 1545 661 1545 676 1545 691 b 1545 715 1549 749 1540 772 b 1533 792 1510 798 1490 798 b 1471 797 1452 788 1448 765 b 1441 743 1443 711 1443 684 b 1443 673 1443 663 1446 651 b 1450 626 1464 612 1492 612 z m 987 -247 b 1007 -247 1009 -227 1009 -212 l 998 -212 b 998 -217 999 -224 997 -229 b 992 -237 981 -238 977 -232 b 970 -224 973 -206 973 -200 b 973 -191 970 -172 976 -165 b 981 -159 992 -159 997 -167 b 999 -172 998 -180 998 -184 l 1009 -184 b 1009 -169 1009 -153 990 -153 b 968 -149 959 -164 959 -181 b 959 -205 953 -247 987 -247 z m 1039 -234 b 1028 -230 1031 -201 1031 -191 l 1031 -177 b 1031 -167 1039 -158 1051 -164 b 1061 -167 1059 -193 1059 -203 b 1059 -215 1060 -246 1039 -234 z m 1046 -247 b 1074 -247 1072 -218 1072 -200 b 1072 -180 1074 -153 1046 -153 b 1020 -149 1020 -172 1020 -197 b 1020 -216 1016 -247 1046 -247 z m 1085 -246 l 1095 -246 l 1095 -177 l 1111 -246 l 1121 -246 l 1136 -177 l 1136 -246 l 1146 -246 l 1144 -153 l 1131 -153 l 1117 -227 l 1098 -153 l 1085 -153 z m 1054 -128 l 1069 -128 l 1069 -85 l 1087 -85 l 1087 -77 l 1069 -77 l 1069 -44 l 1091 -44 l 1091 -35 l 1054 -35 z m 1161 -246 l 1171 -246 l 1173 -177 l 1185 -246 l 1196 -246 l 1211 -177 l 1213 -246 l 1222 -246 l 1218 -153 l 1206 -153 l 1192 -227 l 1175 -153 l 1161 -153 z m 1126 -128 b 1151 -128 1151 -103 1151 -83 b 1151 -65 1153 -38 1128 -33 b 1098 -33 1098 -57 1098 -79 b 1098 -100 1096 -128 1126 -128 z m 1121 -120 b 1106 -115 1112 -85 1112 -77 l 1112 -62 b 1112 -50 1121 -39 1131 -45 b 1141 -50 1138 -77 1138 -86 b 1138 -100 1138 -124 1121 -120 z m 1237 -246 l 1274 -246 l 1274 -237 l 1252 -237 l 1252 -201 l 1269 -201 l 1269 -191 l 1252 -191 l 1252 -162 l 1274 -162 l 1274 -153 l 1237 -153 z m 1164 -35 l 1164 -128 l 1175 -128 l 1175 -85 l 1185 -85 l 1199 -128 l 1213 -128 l 1199 -83 b 1215 -77 1213 -45 1199 -38 b 1189 -33 1175 -35 1164 -35 z m 1283 -153 l 1283 -246 l 1298 -246 l 1298 -201 l 1308 -201 l 1319 -246 l 1331 -246 l 1318 -200 b 1333 -193 1331 -164 1319 -154 b 1309 -149 1297 -153 1283 -153 z m 1175 -77 l 1175 -44 b 1189 -44 1199 -45 1199 -60 b 1199 -75 1189 -77 1175 -77 z m 1298 -191 l 1298 -162 b 1309 -162 1318 -164 1318 -177 b 1318 -191 1309 -191 1298 -191 z m 1367 -247 b 1390 -247 1391 -227 1391 -212 l 1378 -212 b 1378 -217 1382 -224 1377 -229 b 1376 -237 1363 -238 1357 -232 b 1351 -224 1354 -206 1354 -200 b 1354 -191 1351 -172 1357 -165 b 1363 -159 1376 -159 1377 -167 b 1382 -172 1378 -180 1378 -184 l 1391 -184 b 1391 -169 1390 -153 1373 -153 b 1351 -149 1342 -164 1342 -181 b 1342 -205 1333 -247 1367 -247 z m 1260 -128 l 1274 -128 l 1274 -44 l 1291 -44 l 1291 -35 l 1244 -35 l 1244 -44 l 1260 -44 z m 1406 -246 l 1418 -246 l 1418 -153 l 1406 -153 z m 1298 -128 l 1309 -128 l 1309 -85 l 1334 -85 l 1334 -128 l 1347 -128 l 1347 -35 l 1334 -35 l 1334 -77 l 1309 -77 l 1309 -35 l 1298 -35 z m 1428 -246 l 1441 -246 l 1446 -222 l 1464 -222 l 1470 -246 l 1481 -246 l 1460 -153 l 1448 -153 z m 1448 -215 l 1455 -169 l 1463 -215 z m 1361 -128 l 1398 -128 l 1398 -121 l 1376 -121 l 1376 -85 l 1394 -85 l 1394 -77 l 1376 -77 l 1376 -44 l 1398 -44 l 1398 -35 l 1361 -35 z m 1490 -246 l 1528 -246 l 1528 -237 l 1503 -237 l 1503 -153 l 1490 -153 z m 1438 -128 l 1448 -128 l 1448 -85 l 1464 -85 l 1464 -77 l 1448 -77 l 1448 -44 l 1473 -44 l 1473 -35 l 1438 -35 z m 1580 -246 l 1589 -246 l 1610 -153 l 1600 -153 l 1584 -222 l 1570 -153 l 1560 -153 z m 1514 -128 b 1533 -121 1531 -95 1531 -78 l 1531 -35 l 1519 -35 l 1519 -77 b 1519 -88 1522 -121 1504 -121 b 1486 -121 1492 -88 1492 -77 l 1492 -35 l 1481 -35 l 1481 -85 b 1481 -91 1480 -100 1481 -106 b 1483 -124 1494 -132 1514 -128 z m 1621 -246 l 1660 -246 l 1660 -237 l 1634 -237 l 1634 -201 l 1654 -201 l 1654 -191 l 1634 -191 l 1634 -162 l 1660 -162 l 1660 -153 l 1621 -153 z m 1545 -128 l 1580 -128 l 1580 -121 l 1559 -121 l 1559 -35 l 1545 -35 z m 1669 -153 l 1669 -246 l 1682 -246 l 1682 -201 l 1691 -201 l 1703 -246 l 1715 -246 l 1701 -200 b 1718 -194 1718 -164 1705 -154 b 1694 -149 1680 -153 1669 -153 z m 1173 359 l 1173 263 l 1185 263 l 1185 307 b 1196 307 1203 306 1213 313 b 1218 321 1218 337 1215 349 b 1206 364 1185 359 1173 359 z m 1682 -191 l 1682 -162 b 1694 -162 1701 -164 1701 -177 b 1701 -191 1694 -191 1682 -191 z m 1589 -128 l 1625 -128 l 1625 -121 l 1602 -121 l 1602 -35 l 1589 -35 z m 1185 315 l 1185 353 b 1199 353 1205 353 1205 336 b 1205 328 1205 322 1199 318 b 1196 315 1190 315 1185 315 z m 1752 -247 b 1769 -247 1776 -232 1770 -217 b 1770 -205 1758 -200 1753 -191 b 1744 -184 1734 -177 1739 -167 b 1742 -162 1747 -159 1753 -162 b 1758 -164 1758 -172 1761 -180 l 1770 -174 b 1770 -165 1769 -158 1758 -153 b 1753 -149 1742 -150 1734 -158 b 1720 -165 1726 -186 1738 -197 b 1744 -203 1761 -215 1761 -225 b 1761 -232 1754 -238 1744 -234 b 1739 -232 1738 -222 1738 -216 l 1726 -218 b 1726 -234 1734 -247 1752 -247 z m 1232 263 l 1266 263 l 1266 273 l 1240 273 l 1240 359 l 1232 359 z m 1091 404 b 1130 416 1121 472 1121 504 l 1121 587 l 1096 587 l 1096 461 b 1096 440 1089 412 1062 420 b 1046 429 1046 450 1046 464 l 1046 587 l 1023 587 l 1023 474 b 1023 455 1023 441 1028 429 b 1038 404 1069 393 1091 404 z m 1784 -246 l 1796 -246 l 1796 -153 l 1784 -153 z m 1660 -128 l 1670 -128 l 1676 -105 l 1694 -105 l 1697 -128 l 1711 -128 l 1691 -35 l 1676 -35 z m 1276 263 l 1310 263 l 1310 273 l 1287 273 l 1287 307 l 1307 307 l 1307 318 l 1287 318 l 1287 353 l 1310 353 l 1310 359 l 1276 359 z m 1676 -97 l 1684 -54 l 1691 -97 z m 1829 -234 b 1819 -230 1826 -201 1826 -191 l 1826 -177 b 1826 -167 1829 -158 1844 -164 b 1852 -167 1850 -193 1850 -203 b 1850 -215 1850 -246 1829 -234 z m 1837 -247 b 1863 -247 1862 -218 1862 -200 b 1862 -180 1865 -153 1839 -153 b 1809 -149 1809 -172 1809 -197 b 1809 -216 1807 -247 1837 -247 z m 1316 263 l 1328 263 l 1331 289 l 1351 289 l 1355 263 l 1369 263 l 1351 359 l 1335 359 z m 1720 -128 l 1733 -128 l 1733 -65 l 1757 -128 l 1766 -128 l 1766 -35 l 1754 -35 l 1754 -97 l 1729 -35 l 1720 -35 z m 1331 297 l 1342 344 l 1351 297 z m 1192 401 b 1222 401 1239 429 1234 457 b 1232 482 1213 494 1196 507 b 1182 520 1161 533 1169 552 b 1170 562 1179 570 1192 565 b 1205 563 1210 547 1211 533 l 1232 541 b 1232 555 1227 570 1215 580 b 1202 587 1183 590 1171 587 b 1141 578 1136 541 1150 518 b 1158 504 1175 494 1185 483 b 1196 478 1200 469 1205 462 b 1213 453 1215 433 1203 427 b 1196 418 1183 420 1175 429 b 1169 435 1169 450 1168 461 l 1141 454 b 1144 425 1161 401 1192 401 z m 1876 -246 l 1883 -246 l 1883 -181 l 1913 -246 l 1923 -246 l 1923 -153 l 1912 -153 l 1912 -215 l 1883 -153 l 1876 -153 z m 1400 263 b 1418 263 1428 278 1422 294 b 1421 305 1410 311 1400 318 b 1394 324 1387 332 1390 344 b 1391 354 1405 358 1411 332 l 1422 334 b 1422 344 1418 354 1410 358 b 1400 363 1390 359 1385 355 b 1369 344 1377 324 1390 314 b 1396 306 1411 297 1411 284 b 1411 277 1406 273 1396 273 b 1390 277 1390 287 1390 294 l 1376 289 b 1377 277 1387 263 1400 263 z m 1782 -35 l 1782 -128 b 1791 -128 1809 -130 1819 -123 b 1833 -116 1828 -97 1828 -83 b 1828 -71 1833 -50 1823 -42 b 1811 -33 1793 -35 1782 -35 z m 1795 -121 l 1795 -44 b 1807 -44 1816 -44 1817 -60 l 1817 -106 b 1813 -121 1805 -121 1795 -121 z m 1433 263 l 1472 263 l 1472 273 l 1448 273 l 1448 307 l 1464 307 l 1464 318 l 1448 318 l 1448 353 l 1471 353 l 1471 359 l 1433 359 z m 1022 614 l 1046 614 l 1046 697 b 1062 697 1085 695 1096 708 b 1117 722 1117 755 1106 777 b 1096 795 1078 797 1061 797 l 1022 797 z m 1257 404 l 1326 404 l 1326 420 l 1281 420 l 1281 488 l 1318 488 l 1318 507 l 1281 507 l 1281 565 l 1326 565 l 1326 587 l 1257 587 z m 1046 716 l 1046 778 b 1054 778 1063 780 1074 777 b 1089 774 1089 757 1089 745 b 1089 733 1087 721 1074 718 b 1063 715 1054 716 1046 716 z m 1524 263 l 1537 263 l 1557 359 l 1545 359 l 1531 289 l 1518 359 l 1503 359 z m 1131 614 l 1202 614 l 1202 630 l 1156 630 l 1156 697 l 1193 697 l 1193 716 l 1156 716 l 1156 778 l 1200 778 l 1200 797 l 1131 797 z m 1566 263 l 1580 263 l 1580 359 l 1566 359 z m 1617 263 b 1632 263 1643 278 1637 294 b 1636 305 1624 313 1618 318 b 1612 324 1601 332 1605 344 b 1610 354 1623 358 1625 332 l 1637 334 b 1636 344 1632 354 1624 358 b 1618 363 1607 359 1600 355 b 1584 344 1593 324 1604 314 b 1613 306 1627 297 1625 284 b 1625 277 1621 273 1613 273 b 1607 277 1604 287 1604 294 l 1591 289 b 1593 277 1600 263 1617 263 z m 1448 401 b 1472 401 1490 414 1492 439 b 1497 453 1494 466 1494 483 b 1494 506 1500 539 1490 561 b 1483 581 1464 587 1442 587 b 1422 587 1406 578 1398 557 b 1394 533 1396 504 1396 478 b 1396 464 1396 453 1398 440 b 1400 414 1421 401 1448 401 z m 1433 422 b 1421 429 1422 447 1422 461 l 1422 494 b 1422 512 1419 533 1422 551 b 1427 561 1431 565 1441 565 b 1448 570 1455 565 1463 561 b 1472 554 1471 543 1471 533 l 1471 466 b 1471 461 1472 453 1471 447 b 1470 439 1464 429 1455 422 b 1450 420 1441 420 1433 422 z m 1649 263 l 1665 263 l 1665 359 l 1649 359 z m 1222 797 l 1222 614 l 1249 614 l 1249 698 l 1268 698 l 1293 614 l 1316 614 l 1293 705 b 1323 715 1321 775 1293 790 b 1274 800 1246 797 1222 797 z m 1690 263 l 1700 263 l 1700 353 l 1715 353 l 1715 359 l 1672 359 l 1672 353 l 1690 353 z m 1249 716 l 1249 778 b 1257 778 1266 780 1276 776 b 1287 772 1289 759 1289 752 b 1291 737 1287 723 1276 718 b 1266 716 1257 716 1249 716 z m 1522 404 l 1542 404 l 1542 528 l 1596 404 l 1613 404 l 1613 587 l 1591 587 l 1591 464 l 1540 587 l 1522 587 z m 1385 612 b 1415 612 1432 638 1427 668 b 1421 688 1405 701 1390 716 b 1375 727 1354 743 1357 764 b 1361 775 1373 780 1385 780 b 1398 776 1400 757 1405 745 l 1424 753 b 1422 765 1419 782 1408 790 b 1396 798 1376 800 1363 795 b 1331 788 1326 753 1342 724 b 1351 713 1367 701 1377 692 b 1389 684 1394 676 1398 671 b 1406 661 1408 644 1398 636 b 1390 629 1376 630 1367 638 b 1361 646 1357 657 1356 671 l 1331 665 b 1333 635 1351 612 1385 612 z m 1643 404 l 1711 404 l 1711 420 l 1668 420 l 1668 587 l 1643 587 z m 1483 633 b 1470 640 1471 657 1471 669 l 1471 701 b 1471 719 1464 745 1472 759 b 1475 772 1480 777 1490 778 b 1497 780 1504 780 1510 772 b 1519 764 1519 753 1519 741 l 1519 657 b 1519 649 1518 638 1505 633 b 1500 630 1490 630 1483 633 z m 1837 404 l 1862 404 l 1862 429 l 1837 429 z m 1757 441 l 1757 404 l 1784 404 l 1784 448 b 1784 455 1782 464 1785 474 l 1798 509 b 1807 537 1816 561 1823 587 l 1798 587 l 1770 499 l 1742 587 l 1720 587 l 1744 504 b 1752 494 1754 483 1757 469 b 1758 461 1757 450 1757 441 z m 1570 614 l 1591 614 l 1591 737 l 1643 614 l 1661 614 l 1661 797 l 1637 797 l 1637 673 l 1585 797 l 1570 797 z m 1844 442 l 1852 442 l 1862 587 l 1837 587 z m 1678 614 l 1701 614 l 1711 657 l 1749 657 l 1757 614 l 1782 614 l 1742 797 l 1718 797 z m 1715 676 l 1731 759 l 1744 676 z m 1800 614 l 1872 614 l 1872 630 l 1827 630 l 1827 797 l 1800 797 z m 224 -4 l 259 -4 l 261 91 l 281 -4 l 308 -4 l 325 93 l 329 -4 l 362 -4 l 361 230 l 321 230 l 294 83 l 265 230 l 227 230 z m 392 -4 l 429 -4 l 429 110 l 470 -4 l 499 -4 l 499 230 l 462 230 l 462 118 l 422 230 l 392 230 z m 525 -4 l 565 -4 l 565 38 l 525 38 z m 646 -7 b 672 -1 686 19 687 40 b 691 70 681 96 660 118 l 641 139 b 633 147 624 153 619 167 b 616 175 617 198 635 197 b 651 194 647 167 650 151 l 686 153 b 686 181 683 215 656 228 b 623 244 584 221 583 187 b 579 168 583 147 592 133 b 595 124 606 118 614 108 b 627 93 650 74 650 50 b 650 40 647 32 640 30 b 633 27 629 32 626 38 b 617 51 617 66 617 80 l 580 78 b 580 57 583 38 590 20 b 599 -1 624 -10 646 -7 z m 788 3 l 790 -4 l 820 -4 l 820 118 l 760 118 l 760 83 l 783 83 b 783 70 787 19 760 30 b 741 35 746 67 746 80 l 746 165 b 746 183 750 199 768 197 b 778 192 780 188 780 147 l 818 147 b 818 173 820 209 793 225 b 778 235 758 235 740 230 b 720 221 710 201 706 181 b 703 160 705 136 705 113 b 705 91 703 70 706 48 b 708 30 714 8 730 0 b 746 -10 773 -10 788 3 z m 828 -34 l 861 -34 l 928 260 l 891 260 z m 983 -9 b 992 -10 1003 -9 1011 -4 b 1038 8 1041 42 1041 71 l 1004 73 b 1004 58 1006 30 989 27 b 982 26 974 30 974 42 l 974 180 b 974 192 982 197 989 195 b 1006 192 1004 165 1004 150 l 1041 152 b 1041 180 1038 215 1011 227 b 1003 231 992 233 983 231 b 960 229 936 211 936 182 l 936 41 b 936 12 960 -6 983 -9 z m 1061 -6 l 1103 -6 l 1103 93 l 1138 93 l 1138 -6 l 1176 -6 l 1176 229 l 1138 229 l 1138 134 l 1103 134 l 1103 229 l 1061 229 z m 1196 -6 l 1234 -6 l 1234 96 l 1245 96 l 1265 -6 l 1304 -6 l 1278 103 b 1299 117 1306 146 1306 168 b 1306 211 1281 229 1264 229 l 1196 229 z m 1255 129 l 1234 129 l 1234 195 l 1246 195 b 1270 195 1268 136 1255 129 z m 1326 -6 l 1367 -6 l 1367 229 l 1326 229 z m 1452 -9 b 1477 -3 1492 18 1493 39 b 1497 69 1485 95 1465 117 l 1446 138 b 1438 146 1431 152 1426 165 b 1423 175 1424 197 1440 195 b 1455 192 1454 165 1454 150 l 1492 152 b 1492 180 1488 215 1460 227 b 1430 241 1389 221 1387 186 b 1385 167 1387 146 1399 131 b 1402 124 1411 117 1418 107 b 1432 92 1454 74 1454 48 b 1454 39 1454 30 1446 29 b 1438 26 1433 30 1432 37 b 1424 50 1424 65 1424 78 l 1387 77 b 1387 56 1387 37 1395 20 b 1406 -3 1431 -12 1452 -9 z m 1536 -6 l 1576 -6 l 1576 189 l 1609 189 l 1609 229 l 1502 229 l 1502 189 l 1536 189 z m 1620 -6 l 1657 -6 l 1657 90 l 1676 -6 l 1702 -6 l 1721 92 l 1723 -6 l 1758 -6 l 1757 229 l 1715 229 l 1689 81 l 1661 229 l 1625 229 z m 1763 -6 l 1803 -6 l 1811 50 l 1837 50 l 1844 -6 l 1883 -6 l 1843 229 l 1806 229 z m 1817 83 l 1823 131 l 1830 83 z m 1954 -9 b 1978 -3 1994 18 1995 39 b 1998 69 1987 95 1967 117 l 1948 138 b 1940 146 1932 152 1928 165 b 1924 175 1926 197 1942 195 b 1957 192 1956 165 1956 150 l 1994 152 b 1994 180 1990 215 1962 227 b 1931 241 1891 221 1889 186 b 1887 167 1889 146 1900 131 b 1903 124 1913 117 1919 107 b 1933 92 1956 74 1956 48 b 1956 39 1956 30 1948 29 b 1940 26 1935 30 1933 37 b 1926 50 1926 65 1926 78 l 1889 77 b 1889 56 1889 37 1897 20 b 1907 -3 1932 -12 1954 -9 z m 2005 90 l 2055 90 l 2055 131 l 2005 131 z m 2123 -9 b 2132 -10 2143 -9 2150 -4 b 2177 8 2181 42 2181 71 l 2144 73 b 2144 58 2146 30 2128 27 b 2122 26 2114 30 2114 42 l 2114 180 b 2114 192 2122 197 2128 195 b 2146 192 2144 165 2144 150 l 2181 152 b 2181 180 2177 215 2150 227 b 2143 231 2132 233 2123 231 b 2100 229 2075 211 2075 182 l 2075 41 b 2075 12 2100 -6 2123 -9 z m 2186 -6 l 2225 -6 l 2233 50 l 2259 50 l 2266 -6 l 2305 -6 l 2265 229 l 2228 229 z m 2239 83 l 2245 131 l 2252 83 z m 2310 -6 l 2349 -6 l 2349 96 l 2360 96 l 2380 -6 l 2419 -6 l 2393 103 b 2414 117 2421 146 2421 168 b 2421 211 2396 229 2379 229 l 2310 229 z m 2370 129 l 2349 129 l 2349 195 l 2361 195 b 2385 195 2383 136 2370 129 z m 2476 -4 b 2492 -9 2513 -9 2528 1 b 2554 16 2552 52 2552 78 l 2552 146 b 2552 171 2554 208 2528 224 b 2513 233 2492 233 2476 229 b 2455 221 2444 200 2443 179 b 2441 167 2441 155 2441 144 l 2441 78 b 2441 67 2441 56 2443 43 b 2444 23 2455 3 2476 -4 z m 2501 29 b 2493 27 2485 32 2484 37 b 2478 52 2480 71 2480 83 l 2480 139 b 2480 152 2478 171 2484 187 b 2485 190 2493 195 2501 195 b 2508 192 2513 189 2513 180 b 2516 169 2514 158 2514 146 l 2514 78 b 2514 66 2516 54 2513 43 b 2513 33 2508 32 2501 29 z m 2572 -6 l 2662 -6 l 2662 33 l 2613 33 l 2613 229 l 2572 229 z"},"{":{"x_min":0,"x_max":277,"ha":277,"o":"m 433 576 l 339 576 b 300 576 254 545 238 508 l 131 267 b 120 243 92 224 67 224 l 49 224 l 38 200 l 56 200 b 80 200 93 181 82 157 l -26 -85 b -42 -122 -23 -153 16 -153 l 110 -153 l 121 -129 l 54 -129 b 39 -129 31 -118 38 -103 l 141 126 b 166 182 164 212 124 212 b 164 212 193 244 216 297 l 318 526 b 323 538 334 552 347 552 l 422 552 z"},"9":{"x_min":0,"x_max":2955,"ha":2955,"o":"m 1492 612 b 1519 612 1537 623 1542 649 b 1545 661 1545 676 1545 691 b 1545 715 1549 749 1540 772 b 1533 792 1510 798 1490 798 b 1471 797 1452 788 1448 765 b 1441 743 1443 711 1443 684 b 1443 673 1443 663 1446 651 b 1450 626 1464 612 1492 612 z m 987 -247 b 1007 -247 1009 -227 1009 -212 l 998 -212 b 998 -217 999 -224 997 -229 b 992 -237 981 -238 977 -232 b 970 -224 973 -206 973 -200 b 973 -191 970 -172 976 -165 b 981 -159 992 -159 997 -167 b 999 -172 998 -180 998 -184 l 1009 -184 b 1009 -169 1009 -153 990 -153 b 968 -149 959 -164 959 -181 b 959 -205 953 -247 987 -247 z m 1039 -234 b 1028 -230 1031 -201 1031 -191 l 1031 -177 b 1031 -167 1039 -158 1051 -164 b 1061 -167 1059 -193 1059 -203 b 1059 -215 1060 -246 1039 -234 z m 1046 -247 b 1074 -247 1072 -218 1072 -200 b 1072 -180 1074 -153 1046 -153 b 1020 -149 1020 -172 1020 -197 b 1020 -216 1016 -247 1046 -247 z m 1085 -246 l 1095 -246 l 1095 -177 l 1111 -246 l 1121 -246 l 1136 -177 l 1136 -246 l 1146 -246 l 1144 -153 l 1131 -153 l 1117 -227 l 1098 -153 l 1085 -153 z m 1054 -128 l 1069 -128 l 1069 -85 l 1087 -85 l 1087 -77 l 1069 -77 l 1069 -44 l 1091 -44 l 1091 -35 l 1054 -35 z m 1161 -246 l 1171 -246 l 1173 -177 l 1185 -246 l 1196 -246 l 1211 -177 l 1213 -246 l 1222 -246 l 1218 -153 l 1206 -153 l 1192 -227 l 1175 -153 l 1161 -153 z m 1126 -128 b 1151 -128 1151 -103 1151 -83 b 1151 -65 1153 -38 1128 -33 b 1098 -33 1098 -57 1098 -79 b 1098 -100 1096 -128 1126 -128 z m 1121 -120 b 1106 -115 1112 -85 1112 -77 l 1112 -62 b 1112 -50 1121 -39 1131 -45 b 1141 -50 1138 -77 1138 -86 b 1138 -100 1138 -124 1121 -120 z m 1237 -246 l 1274 -246 l 1274 -237 l 1252 -237 l 1252 -201 l 1269 -201 l 1269 -191 l 1252 -191 l 1252 -162 l 1274 -162 l 1274 -153 l 1237 -153 z m 1164 -35 l 1164 -128 l 1175 -128 l 1175 -85 l 1185 -85 l 1199 -128 l 1213 -128 l 1199 -83 b 1215 -77 1213 -45 1199 -38 b 1189 -33 1175 -35 1164 -35 z m 1283 -153 l 1283 -246 l 1298 -246 l 1298 -201 l 1308 -201 l 1319 -246 l 1331 -246 l 1318 -200 b 1333 -193 1331 -164 1319 -154 b 1309 -149 1297 -153 1283 -153 z m 1175 -77 l 1175 -44 b 1189 -44 1199 -45 1199 -60 b 1199 -75 1189 -77 1175 -77 z m 1298 -191 l 1298 -162 b 1309 -162 1318 -164 1318 -177 b 1318 -191 1309 -191 1298 -191 z m 1367 -247 b 1390 -247 1391 -227 1391 -212 l 1378 -212 b 1378 -217 1382 -224 1377 -229 b 1376 -237 1363 -238 1357 -232 b 1351 -224 1354 -206 1354 -200 b 1354 -191 1351 -172 1357 -165 b 1363 -159 1376 -159 1377 -167 b 1382 -172 1378 -180 1378 -184 l 1391 -184 b 1391 -169 1390 -153 1373 -153 b 1351 -149 1342 -164 1342 -181 b 1342 -205 1333 -247 1367 -247 z m 1260 -128 l 1274 -128 l 1274 -44 l 1291 -44 l 1291 -35 l 1244 -35 l 1244 -44 l 1260 -44 z m 1406 -246 l 1418 -246 l 1418 -153 l 1406 -153 z m 1298 -128 l 1309 -128 l 1309 -85 l 1334 -85 l 1334 -128 l 1347 -128 l 1347 -35 l 1334 -35 l 1334 -77 l 1309 -77 l 1309 -35 l 1298 -35 z m 1428 -246 l 1441 -246 l 1446 -222 l 1464 -222 l 1470 -246 l 1481 -246 l 1460 -153 l 1448 -153 z m 1448 -215 l 1455 -169 l 1463 -215 z m 1361 -128 l 1398 -128 l 1398 -121 l 1376 -121 l 1376 -85 l 1394 -85 l 1394 -77 l 1376 -77 l 1376 -44 l 1398 -44 l 1398 -35 l 1361 -35 z m 1490 -246 l 1528 -246 l 1528 -237 l 1503 -237 l 1503 -153 l 1490 -153 z m 1438 -128 l 1448 -128 l 1448 -85 l 1464 -85 l 1464 -77 l 1448 -77 l 1448 -44 l 1473 -44 l 1473 -35 l 1438 -35 z m 1580 -246 l 1589 -246 l 1610 -153 l 1600 -153 l 1584 -222 l 1570 -153 l 1560 -153 z m 1514 -128 b 1533 -121 1531 -95 1531 -78 l 1531 -35 l 1519 -35 l 1519 -77 b 1519 -88 1522 -121 1504 -121 b 1486 -121 1492 -88 1492 -77 l 1492 -35 l 1481 -35 l 1481 -85 b 1481 -91 1480 -100 1481 -106 b 1483 -124 1494 -132 1514 -128 z m 1621 -246 l 1660 -246 l 1660 -237 l 1634 -237 l 1634 -201 l 1654 -201 l 1654 -191 l 1634 -191 l 1634 -162 l 1660 -162 l 1660 -153 l 1621 -153 z m 1545 -128 l 1580 -128 l 1580 -121 l 1559 -121 l 1559 -35 l 1545 -35 z m 1669 -153 l 1669 -246 l 1682 -246 l 1682 -201 l 1691 -201 l 1703 -246 l 1715 -246 l 1701 -200 b 1718 -194 1718 -164 1705 -154 b 1694 -149 1680 -153 1669 -153 z m 1173 359 l 1173 263 l 1185 263 l 1185 307 b 1196 307 1203 306 1213 313 b 1218 321 1218 337 1215 349 b 1206 364 1185 359 1173 359 z m 1682 -191 l 1682 -162 b 1694 -162 1701 -164 1701 -177 b 1701 -191 1694 -191 1682 -191 z m 1589 -128 l 1625 -128 l 1625 -121 l 1602 -121 l 1602 -35 l 1589 -35 z m 1185 315 l 1185 353 b 1199 353 1205 353 1205 336 b 1205 328 1205 322 1199 318 b 1196 315 1190 315 1185 315 z m 1752 -247 b 1769 -247 1776 -232 1770 -217 b 1770 -205 1758 -200 1753 -191 b 1744 -184 1734 -177 1739 -167 b 1742 -162 1747 -159 1753 -162 b 1758 -164 1758 -172 1761 -180 l 1770 -174 b 1770 -165 1769 -158 1758 -153 b 1753 -149 1742 -150 1734 -158 b 1720 -165 1726 -186 1738 -197 b 1744 -203 1761 -215 1761 -225 b 1761 -232 1754 -238 1744 -234 b 1739 -232 1738 -222 1738 -216 l 1726 -218 b 1726 -234 1734 -247 1752 -247 z m 1232 263 l 1266 263 l 1266 273 l 1240 273 l 1240 359 l 1232 359 z m 1091 404 b 1130 416 1121 472 1121 504 l 1121 587 l 1096 587 l 1096 461 b 1096 440 1089 412 1062 420 b 1046 429 1046 450 1046 464 l 1046 587 l 1023 587 l 1023 474 b 1023 455 1023 441 1028 429 b 1038 404 1069 393 1091 404 z m 1784 -246 l 1796 -246 l 1796 -153 l 1784 -153 z m 1660 -128 l 1670 -128 l 1676 -105 l 1694 -105 l 1697 -128 l 1711 -128 l 1691 -35 l 1676 -35 z m 1276 263 l 1310 263 l 1310 273 l 1287 273 l 1287 307 l 1307 307 l 1307 318 l 1287 318 l 1287 353 l 1310 353 l 1310 359 l 1276 359 z m 1676 -97 l 1684 -54 l 1691 -97 z m 1829 -234 b 1819 -230 1826 -201 1826 -191 l 1826 -177 b 1826 -167 1829 -158 1844 -164 b 1852 -167 1850 -193 1850 -203 b 1850 -215 1850 -246 1829 -234 z m 1837 -247 b 1863 -247 1862 -218 1862 -200 b 1862 -180 1865 -153 1839 -153 b 1809 -149 1809 -172 1809 -197 b 1809 -216 1807 -247 1837 -247 z m 1316 263 l 1328 263 l 1331 289 l 1351 289 l 1355 263 l 1369 263 l 1351 359 l 1335 359 z m 1720 -128 l 1733 -128 l 1733 -65 l 1757 -128 l 1766 -128 l 1766 -35 l 1754 -35 l 1754 -97 l 1729 -35 l 1720 -35 z m 1331 297 l 1342 344 l 1351 297 z m 1192 401 b 1222 401 1239 429 1234 457 b 1232 482 1213 494 1196 507 b 1182 520 1161 533 1169 552 b 1170 562 1179 570 1192 565 b 1205 563 1210 547 1211 533 l 1232 541 b 1232 555 1227 570 1215 580 b 1202 587 1183 590 1171 587 b 1141 578 1136 541 1150 518 b 1158 504 1175 494 1185 483 b 1196 478 1200 469 1205 462 b 1213 453 1215 433 1203 427 b 1196 418 1183 420 1175 429 b 1169 435 1169 450 1168 461 l 1141 454 b 1144 425 1161 401 1192 401 z m 1876 -246 l 1883 -246 l 1883 -181 l 1913 -246 l 1923 -246 l 1923 -153 l 1912 -153 l 1912 -215 l 1883 -153 l 1876 -153 z m 1400 263 b 1418 263 1428 278 1422 294 b 1421 305 1410 311 1400 318 b 1394 324 1387 332 1390 344 b 1391 354 1405 358 1411 332 l 1422 334 b 1422 344 1418 354 1410 358 b 1400 363 1390 359 1385 355 b 1369 344 1377 324 1390 314 b 1396 306 1411 297 1411 284 b 1411 277 1406 273 1396 273 b 1390 277 1390 287 1390 294 l 1376 289 b 1377 277 1387 263 1400 263 z m 1782 -35 l 1782 -128 b 1791 -128 1809 -130 1819 -123 b 1833 -116 1828 -97 1828 -83 b 1828 -71 1833 -50 1823 -42 b 1811 -33 1793 -35 1782 -35 z m 1795 -121 l 1795 -44 b 1807 -44 1816 -44 1817 -60 l 1817 -106 b 1813 -121 1805 -121 1795 -121 z m 1433 263 l 1472 263 l 1472 273 l 1448 273 l 1448 307 l 1464 307 l 1464 318 l 1448 318 l 1448 353 l 1471 353 l 1471 359 l 1433 359 z m 1022 614 l 1046 614 l 1046 697 b 1062 697 1085 695 1096 708 b 1117 722 1117 755 1106 777 b 1096 795 1078 797 1061 797 l 1022 797 z m 1257 404 l 1326 404 l 1326 420 l 1281 420 l 1281 488 l 1318 488 l 1318 507 l 1281 507 l 1281 565 l 1326 565 l 1326 587 l 1257 587 z m 1046 716 l 1046 778 b 1054 778 1063 780 1074 777 b 1089 774 1089 757 1089 745 b 1089 733 1087 721 1074 718 b 1063 715 1054 716 1046 716 z m 1524 263 l 1537 263 l 1557 359 l 1545 359 l 1531 289 l 1518 359 l 1503 359 z m 1131 614 l 1202 614 l 1202 630 l 1156 630 l 1156 697 l 1193 697 l 1193 716 l 1156 716 l 1156 778 l 1200 778 l 1200 797 l 1131 797 z m 1566 263 l 1580 263 l 1580 359 l 1566 359 z m 1617 263 b 1632 263 1643 278 1637 294 b 1636 305 1624 313 1618 318 b 1612 324 1601 332 1605 344 b 1610 354 1623 358 1625 332 l 1637 334 b 1636 344 1632 354 1624 358 b 1618 363 1607 359 1600 355 b 1584 344 1593 324 1604 314 b 1613 306 1627 297 1625 284 b 1625 277 1621 273 1613 273 b 1607 277 1604 287 1604 294 l 1591 289 b 1593 277 1600 263 1617 263 z m 1448 401 b 1472 401 1490 414 1492 439 b 1497 453 1494 466 1494 483 b 1494 506 1500 539 1490 561 b 1483 581 1464 587 1442 587 b 1422 587 1406 578 1398 557 b 1394 533 1396 504 1396 478 b 1396 464 1396 453 1398 440 b 1400 414 1421 401 1448 401 z m 1433 422 b 1421 429 1422 447 1422 461 l 1422 494 b 1422 512 1419 533 1422 551 b 1427 561 1431 565 1441 565 b 1448 570 1455 565 1463 561 b 1472 554 1471 543 1471 533 l 1471 466 b 1471 461 1472 453 1471 447 b 1470 439 1464 429 1455 422 b 1450 420 1441 420 1433 422 z m 1649 263 l 1665 263 l 1665 359 l 1649 359 z m 1222 797 l 1222 614 l 1249 614 l 1249 698 l 1268 698 l 1293 614 l 1316 614 l 1293 705 b 1323 715 1321 775 1293 790 b 1274 800 1246 797 1222 797 z m 1690 263 l 1700 263 l 1700 353 l 1715 353 l 1715 359 l 1672 359 l 1672 353 l 1690 353 z m 1249 716 l 1249 778 b 1257 778 1266 780 1276 776 b 1287 772 1289 759 1289 752 b 1291 737 1287 723 1276 718 b 1266 716 1257 716 1249 716 z m 1522 404 l 1542 404 l 1542 528 l 1596 404 l 1613 404 l 1613 587 l 1591 587 l 1591 464 l 1540 587 l 1522 587 z m 1385 612 b 1415 612 1432 638 1427 668 b 1421 688 1405 701 1390 716 b 1375 727 1354 743 1357 764 b 1361 775 1373 780 1385 780 b 1398 776 1400 757 1405 745 l 1424 753 b 1422 765 1419 782 1408 790 b 1396 798 1376 800 1363 795 b 1331 788 1326 753 1342 724 b 1351 713 1367 701 1377 692 b 1389 684 1394 676 1398 671 b 1406 661 1408 644 1398 636 b 1390 629 1376 630 1367 638 b 1361 646 1357 657 1356 671 l 1331 665 b 1333 635 1351 612 1385 612 z m 1643 404 l 1711 404 l 1711 420 l 1668 420 l 1668 587 l 1643 587 z m 1483 633 b 1470 640 1471 657 1471 669 l 1471 701 b 1471 719 1464 745 1472 759 b 1475 772 1480 777 1490 778 b 1497 780 1504 780 1510 772 b 1519 764 1519 753 1519 741 l 1519 657 b 1519 649 1518 638 1505 633 b 1500 630 1490 630 1483 633 z m 1837 404 l 1862 404 l 1862 429 l 1837 429 z m 1757 441 l 1757 404 l 1784 404 l 1784 448 b 1784 455 1782 464 1785 474 l 1798 509 b 1807 537 1816 561 1823 587 l 1798 587 l 1770 499 l 1742 587 l 1720 587 l 1744 504 b 1752 494 1754 483 1757 469 b 1758 461 1757 450 1757 441 z m 1570 614 l 1591 614 l 1591 737 l 1643 614 l 1661 614 l 1661 797 l 1637 797 l 1637 673 l 1585 797 l 1570 797 z m 1844 442 l 1852 442 l 1862 587 l 1837 587 z m 1678 614 l 1701 614 l 1711 657 l 1749 657 l 1757 614 l 1782 614 l 1742 797 l 1718 797 z m 1715 676 l 1731 759 l 1744 676 z m 1800 614 l 1872 614 l 1872 630 l 1827 630 l 1827 797 l 1800 797 z m 224 -4 l 259 -4 l 261 91 l 281 -4 l 308 -4 l 325 93 l 329 -4 l 362 -4 l 361 230 l 321 230 l 294 83 l 265 230 l 227 230 z m 392 -4 l 429 -4 l 429 110 l 470 -4 l 499 -4 l 499 230 l 462 230 l 462 118 l 422 230 l 392 230 z m 525 -4 l 565 -4 l 565 38 l 525 38 z m 646 -7 b 672 -1 686 19 687 40 b 691 70 681 96 660 118 l 641 139 b 633 147 624 153 619 167 b 616 175 617 198 635 197 b 651 194 647 167 650 151 l 686 153 b 686 181 683 215 656 228 b 623 244 584 221 583 187 b 579 168 583 147 592 133 b 595 124 606 118 614 108 b 627 93 650 74 650 50 b 650 40 647 32 640 30 b 633 27 629 32 626 38 b 617 51 617 66 617 80 l 580 78 b 580 57 583 38 590 20 b 599 -1 624 -10 646 -7 z m 788 3 l 790 -4 l 820 -4 l 820 118 l 760 118 l 760 83 l 783 83 b 783 70 787 19 760 30 b 741 35 746 67 746 80 l 746 165 b 746 183 750 199 768 197 b 778 192 780 188 780 147 l 818 147 b 818 173 820 209 793 225 b 778 235 758 235 740 230 b 720 221 710 201 706 181 b 703 160 705 136 705 113 b 705 91 703 70 706 48 b 708 30 714 8 730 0 b 746 -10 773 -10 788 3 z m 828 -34 l 861 -34 l 928 260 l 891 260 z m 983 -9 b 992 -10 1003 -9 1011 -4 b 1038 8 1041 42 1041 71 l 1004 73 b 1004 58 1006 30 989 27 b 982 26 974 30 974 42 l 974 180 b 974 192 982 197 989 195 b 1006 192 1004 165 1004 150 l 1041 152 b 1041 180 1038 215 1011 227 b 1003 231 992 233 983 231 b 960 229 936 211 936 182 l 936 41 b 936 12 960 -6 983 -9 z m 1061 -6 l 1103 -6 l 1103 93 l 1138 93 l 1138 -6 l 1176 -6 l 1176 229 l 1138 229 l 1138 134 l 1103 134 l 1103 229 l 1061 229 z m 1196 -6 l 1234 -6 l 1234 96 l 1245 96 l 1265 -6 l 1304 -6 l 1278 103 b 1299 117 1306 146 1306 168 b 1306 211 1281 229 1264 229 l 1196 229 z m 1255 129 l 1234 129 l 1234 195 l 1246 195 b 1270 195 1268 136 1255 129 z m 1326 -6 l 1367 -6 l 1367 229 l 1326 229 z m 1452 -9 b 1477 -3 1492 18 1493 39 b 1497 69 1485 95 1465 117 l 1446 138 b 1438 146 1431 152 1426 165 b 1423 175 1424 197 1440 195 b 1455 192 1454 165 1454 150 l 1492 152 b 1492 180 1488 215 1460 227 b 1430 241 1389 221 1387 186 b 1385 167 1387 146 1399 131 b 1402 124 1411 117 1418 107 b 1432 92 1454 74 1454 48 b 1454 39 1454 30 1446 29 b 1438 26 1433 30 1432 37 b 1424 50 1424 65 1424 78 l 1387 77 b 1387 56 1387 37 1395 20 b 1406 -3 1431 -12 1452 -9 z m 1536 -6 l 1576 -6 l 1576 189 l 1609 189 l 1609 229 l 1502 229 l 1502 189 l 1536 189 z m 1620 -6 l 1657 -6 l 1657 90 l 1676 -6 l 1702 -6 l 1721 92 l 1723 -6 l 1758 -6 l 1757 229 l 1715 229 l 1689 81 l 1661 229 l 1625 229 z m 1763 -6 l 1803 -6 l 1811 50 l 1837 50 l 1844 -6 l 1883 -6 l 1843 229 l 1806 229 z m 1817 83 l 1823 131 l 1830 83 z m 1954 -9 b 1978 -3 1994 18 1995 39 b 1998 69 1987 95 1967 117 l 1948 138 b 1940 146 1932 152 1928 165 b 1924 175 1926 197 1942 195 b 1957 192 1956 165 1956 150 l 1994 152 b 1994 180 1990 215 1962 227 b 1931 241 1891 221 1889 186 b 1887 167 1889 146 1900 131 b 1903 124 1913 117 1919 107 b 1933 92 1956 74 1956 48 b 1956 39 1956 30 1948 29 b 1940 26 1935 30 1933 37 b 1926 50 1926 65 1926 78 l 1889 77 b 1889 56 1889 37 1897 20 b 1907 -3 1932 -12 1954 -9 z m 2005 90 l 2055 90 l 2055 131 l 2005 131 z m 2123 -9 b 2132 -10 2143 -9 2150 -4 b 2177 8 2181 42 2181 71 l 2144 73 b 2144 58 2146 30 2128 27 b 2122 26 2114 30 2114 42 l 2114 180 b 2114 192 2122 197 2128 195 b 2146 192 2144 165 2144 150 l 2181 152 b 2181 180 2177 215 2150 227 b 2143 231 2132 233 2123 231 b 2100 229 2075 211 2075 182 l 2075 41 b 2075 12 2100 -6 2123 -9 z m 2186 -6 l 2225 -6 l 2233 50 l 2259 50 l 2266 -6 l 2305 -6 l 2265 229 l 2228 229 z m 2239 83 l 2245 131 l 2252 83 z m 2310 -6 l 2349 -6 l 2349 96 l 2360 96 l 2380 -6 l 2419 -6 l 2393 103 b 2414 117 2421 146 2421 168 b 2421 211 2396 229 2379 229 l 2310 229 z m 2370 129 l 2349 129 l 2349 195 l 2361 195 b 2385 195 2383 136 2370 129 z m 2476 -4 b 2492 -9 2513 -9 2528 1 b 2554 16 2552 52 2552 78 l 2552 146 b 2552 171 2554 208 2528 224 b 2513 233 2492 233 2476 229 b 2455 221 2444 200 2443 179 b 2441 167 2441 155 2441 144 l 2441 78 b 2441 67 2441 56 2443 43 b 2444 23 2455 3 2476 -4 z m 2501 29 b 2493 27 2485 32 2484 37 b 2478 52 2480 71 2480 83 l 2480 139 b 2480 152 2478 171 2484 187 b 2485 190 2493 195 2501 195 b 2508 192 2513 189 2513 180 b 2516 169 2514 158 2514 146 l 2514 78 b 2514 66 2516 54 2513 43 b 2513 33 2508 32 2501 29 z m 2572 -6 l 2662 -6 l 2662 33 l 2613 33 l 2613 229 l 2572 229 z"}," ":{"x_min":0,"x_max":170,"ha":170,"o":""},"I":{"x_min":0,"x_max":657,"ha":657,"o":"m 169 4 b 224 -23 307 -21 364 -4 b 521 42 615 188 666 335 b 694 409 726 486 762 555 b 790 609 829 678 857 691 l 867 694 l 870 695 b 872 695 874 697 874 700 b 875 713 844 706 826 699 l 798 698 b 750 699 703 707 656 712 b 602 717 548 719 494 713 b 450 708 407 697 371 670 b 359 661 348 651 339 639 b 321 633 304 624 287 615 b 207 570 143 493 116 404 b 79 364 51 316 41 261 b 22 159 75 50 169 4 z m 69 167 b 51 226 62 291 94 345 l 107 365 b 102 338 101 311 104 284 b 111 231 143 181 193 159 b 293 115 416 172 462 268 b 470 284 476 300 481 316 b 486 333 489 351 489 370 l 504 375 b 552 395 591 436 606 485 b 614 509 615 540 598 561 b 594 567 584 561 588 554 b 603 524 587 489 569 464 b 549 437 519 414 486 404 b 478 445 455 482 416 503 b 389 518 360 522 331 520 b 330 565 347 606 375 636 b 393 640 410 643 428 644 b 443 644 459 642 472 636 b 475 634 479 635 480 638 b 482 641 481 645 478 647 b 462 655 445 657 428 658 b 418 658 408 657 398 655 b 412 666 428 674 446 679 b 537 707 633 700 726 691 b 750 689 775 686 799 686 b 788 678 776 666 759 645 b 717 593 672 495 633 399 b 621 370 611 339 598 310 b 574 253 542 200 502 154 b 412 52 248 -17 149 54 b 110 80 82 122 69 167 z m 134 380 l 139 403 b 182 445 241 484 298 497 b 303 455 323 413 360 388 b 386 371 417 363 448 363 b 446 349 442 336 438 323 b 417 255 362 198 291 183 b 252 175 209 181 177 205 b 124 245 121 319 134 380 z m 152 438 b 184 513 248 580 323 616 b 305 586 296 550 297 515 b 267 508 238 495 212 480 b 191 468 171 454 152 438 z m 332 503 b 359 504 384 499 406 486 b 437 466 449 433 450 398 b 439 398 427 399 416 403 b 401 407 386 414 374 423 b 350 442 337 472 332 503 z"},"H":{"x_min":0,"x_max":837,"ha":837,"o":"m 247 -34 b 286 -35 325 -31 362 -20 b 392 -11 419 1 445 16 b 454 2 465 -10 479 -20 b 501 -35 534 -47 559 -31 b 565 -27 561 -18 554 -20 b 533 -23 514 -9 500 5 b 491 15 483 26 478 38 b 568 105 630 210 667 317 l 671 328 b 703 344 739 359 777 374 b 729 280 690 196 663 123 b 639 57 656 0 709 0 b 748 0 781 59 883 213 b 882 218 872 227 864 228 b 810 150 752 53 727 53 b 710 53 717 88 731 122 b 748 164 805 292 862 407 b 980 455 1096 512 1141 610 b 1181 696 1113 743 1026 706 b 964 681 920 628 888 572 b 853 513 821 457 793 403 l 705 368 l 683 358 b 706 418 734 477 764 533 b 783 567 802 601 825 631 b 838 646 854 664 870 677 b 878 682 878 690 866 688 b 822 674 773 681 727 686 b 656 694 584 703 512 697 b 463 692 412 683 371 652 b 359 643 348 633 339 621 b 321 614 304 606 288 597 b 207 552 143 475 116 386 b 79 346 51 298 41 243 b 23 141 75 31 170 -14 b 193 -26 221 -33 247 -34 z m 69 149 b 51 208 62 273 94 326 l 107 347 b 103 320 102 293 105 266 b 111 213 143 163 193 141 b 293 97 416 154 462 250 b 470 266 476 282 481 298 b 487 315 489 333 490 351 l 505 357 b 552 377 591 418 607 467 b 615 491 616 521 599 543 b 594 549 585 542 589 536 b 603 506 587 471 569 446 b 549 419 519 396 487 386 b 479 427 456 464 417 485 b 390 499 361 504 332 502 b 330 546 347 587 376 618 b 393 622 410 625 428 626 b 444 626 459 624 473 618 b 476 616 479 617 481 620 b 482 623 481 627 478 629 b 462 637 445 639 428 639 b 418 639 408 638 398 637 b 412 647 429 656 447 661 b 537 689 633 682 726 673 b 750 671 775 668 800 668 b 790 661 782 652 774 642 b 763 629 753 615 744 601 b 698 533 664 457 634 381 l 613 326 b 517 276 421 206 420 98 b 420 87 421 76 424 65 b 374 31 316 10 247 8 b 159 5 93 66 69 149 z m 134 361 l 140 384 b 182 427 241 466 298 479 b 303 437 323 395 361 370 b 388 353 418 344 449 344 b 446 331 443 317 439 305 b 418 236 363 180 291 165 b 253 157 210 162 178 186 b 125 227 122 300 134 361 z m 152 420 b 184 495 248 562 323 598 b 305 568 296 532 297 497 b 267 490 238 477 212 462 b 191 450 171 436 152 420 z m 333 485 b 359 486 384 481 406 468 b 438 448 450 415 451 380 b 439 380 428 381 416 385 b 402 389 387 396 375 405 b 350 424 337 454 333 485 z m 465 97 b 465 126 474 155 490 181 b 516 223 554 258 596 286 b 573 231 542 179 502 136 b 490 122 478 109 465 97 z m 876 436 b 896 477 916 515 933 546 b 962 601 1012 666 1072 687 b 1103 698 1138 688 1131 650 b 1117 577 1042 519 974 482 b 942 465 909 450 876 436 z"},"4":{"x_min":0,"x_max":2955,"ha":2955,"o":"m 1492 612 b 1519 612 1537 623 1542 649 b 1545 661 1545 676 1545 691 b 1545 715 1549 749 1540 772 b 1533 792 1510 798 1490 798 b 1471 797 1452 788 1448 765 b 1441 743 1443 711 1443 684 b 1443 673 1443 663 1446 651 b 1450 626 1464 612 1492 612 z m 987 -247 b 1007 -247 1009 -227 1009 -212 l 998 -212 b 998 -217 999 -224 997 -229 b 992 -237 981 -238 977 -232 b 970 -224 973 -206 973 -200 b 973 -191 970 -172 976 -165 b 981 -159 992 -159 997 -167 b 999 -172 998 -180 998 -184 l 1009 -184 b 1009 -169 1009 -153 990 -153 b 968 -149 959 -164 959 -181 b 959 -205 953 -247 987 -247 z m 1039 -234 b 1028 -230 1031 -201 1031 -191 l 1031 -177 b 1031 -167 1039 -158 1051 -164 b 1061 -167 1059 -193 1059 -203 b 1059 -215 1060 -246 1039 -234 z m 1046 -247 b 1074 -247 1072 -218 1072 -200 b 1072 -180 1074 -153 1046 -153 b 1020 -149 1020 -172 1020 -197 b 1020 -216 1016 -247 1046 -247 z m 1085 -246 l 1095 -246 l 1095 -177 l 1111 -246 l 1121 -246 l 1136 -177 l 1136 -246 l 1146 -246 l 1144 -153 l 1131 -153 l 1117 -227 l 1098 -153 l 1085 -153 z m 1054 -128 l 1069 -128 l 1069 -85 l 1087 -85 l 1087 -77 l 1069 -77 l 1069 -44 l 1091 -44 l 1091 -35 l 1054 -35 z m 1161 -246 l 1171 -246 l 1173 -177 l 1185 -246 l 1196 -246 l 1211 -177 l 1213 -246 l 1222 -246 l 1218 -153 l 1206 -153 l 1192 -227 l 1175 -153 l 1161 -153 z m 1126 -128 b 1151 -128 1151 -103 1151 -83 b 1151 -65 1153 -38 1128 -33 b 1098 -33 1098 -57 1098 -79 b 1098 -100 1096 -128 1126 -128 z m 1121 -120 b 1106 -115 1112 -85 1112 -77 l 1112 -62 b 1112 -50 1121 -39 1131 -45 b 1141 -50 1138 -77 1138 -86 b 1138 -100 1138 -124 1121 -120 z m 1237 -246 l 1274 -246 l 1274 -237 l 1252 -237 l 1252 -201 l 1269 -201 l 1269 -191 l 1252 -191 l 1252 -162 l 1274 -162 l 1274 -153 l 1237 -153 z m 1164 -35 l 1164 -128 l 1175 -128 l 1175 -85 l 1185 -85 l 1199 -128 l 1213 -128 l 1199 -83 b 1215 -77 1213 -45 1199 -38 b 1189 -33 1175 -35 1164 -35 z m 1283 -153 l 1283 -246 l 1298 -246 l 1298 -201 l 1308 -201 l 1319 -246 l 1331 -246 l 1318 -200 b 1333 -193 1331 -164 1319 -154 b 1309 -149 1297 -153 1283 -153 z m 1175 -77 l 1175 -44 b 1189 -44 1199 -45 1199 -60 b 1199 -75 1189 -77 1175 -77 z m 1298 -191 l 1298 -162 b 1309 -162 1318 -164 1318 -177 b 1318 -191 1309 -191 1298 -191 z m 1367 -247 b 1390 -247 1391 -227 1391 -212 l 1378 -212 b 1378 -217 1382 -224 1377 -229 b 1376 -237 1363 -238 1357 -232 b 1351 -224 1354 -206 1354 -200 b 1354 -191 1351 -172 1357 -165 b 1363 -159 1376 -159 1377 -167 b 1382 -172 1378 -180 1378 -184 l 1391 -184 b 1391 -169 1390 -153 1373 -153 b 1351 -149 1342 -164 1342 -181 b 1342 -205 1333 -247 1367 -247 z m 1260 -128 l 1274 -128 l 1274 -44 l 1291 -44 l 1291 -35 l 1244 -35 l 1244 -44 l 1260 -44 z m 1406 -246 l 1418 -246 l 1418 -153 l 1406 -153 z m 1298 -128 l 1309 -128 l 1309 -85 l 1334 -85 l 1334 -128 l 1347 -128 l 1347 -35 l 1334 -35 l 1334 -77 l 1309 -77 l 1309 -35 l 1298 -35 z m 1428 -246 l 1441 -246 l 1446 -222 l 1464 -222 l 1470 -246 l 1481 -246 l 1460 -153 l 1448 -153 z m 1448 -215 l 1455 -169 l 1463 -215 z m 1361 -128 l 1398 -128 l 1398 -121 l 1376 -121 l 1376 -85 l 1394 -85 l 1394 -77 l 1376 -77 l 1376 -44 l 1398 -44 l 1398 -35 l 1361 -35 z m 1490 -246 l 1528 -246 l 1528 -237 l 1503 -237 l 1503 -153 l 1490 -153 z m 1438 -128 l 1448 -128 l 1448 -85 l 1464 -85 l 1464 -77 l 1448 -77 l 1448 -44 l 1473 -44 l 1473 -35 l 1438 -35 z m 1580 -246 l 1589 -246 l 1610 -153 l 1600 -153 l 1584 -222 l 1570 -153 l 1560 -153 z m 1514 -128 b 1533 -121 1531 -95 1531 -78 l 1531 -35 l 1519 -35 l 1519 -77 b 1519 -88 1522 -121 1504 -121 b 1486 -121 1492 -88 1492 -77 l 1492 -35 l 1481 -35 l 1481 -85 b 1481 -91 1480 -100 1481 -106 b 1483 -124 1494 -132 1514 -128 z m 1621 -246 l 1660 -246 l 1660 -237 l 1634 -237 l 1634 -201 l 1654 -201 l 1654 -191 l 1634 -191 l 1634 -162 l 1660 -162 l 1660 -153 l 1621 -153 z m 1545 -128 l 1580 -128 l 1580 -121 l 1559 -121 l 1559 -35 l 1545 -35 z m 1669 -153 l 1669 -246 l 1682 -246 l 1682 -201 l 1691 -201 l 1703 -246 l 1715 -246 l 1701 -200 b 1718 -194 1718 -164 1705 -154 b 1694 -149 1680 -153 1669 -153 z m 1173 359 l 1173 263 l 1185 263 l 1185 307 b 1196 307 1203 306 1213 313 b 1218 321 1218 337 1215 349 b 1206 364 1185 359 1173 359 z m 1682 -191 l 1682 -162 b 1694 -162 1701 -164 1701 -177 b 1701 -191 1694 -191 1682 -191 z m 1589 -128 l 1625 -128 l 1625 -121 l 1602 -121 l 1602 -35 l 1589 -35 z m 1185 315 l 1185 353 b 1199 353 1205 353 1205 336 b 1205 328 1205 322 1199 318 b 1196 315 1190 315 1185 315 z m 1752 -247 b 1769 -247 1776 -232 1770 -217 b 1770 -205 1758 -200 1753 -191 b 1744 -184 1734 -177 1739 -167 b 1742 -162 1747 -159 1753 -162 b 1758 -164 1758 -172 1761 -180 l 1770 -174 b 1770 -165 1769 -158 1758 -153 b 1753 -149 1742 -150 1734 -158 b 1720 -165 1726 -186 1738 -197 b 1744 -203 1761 -215 1761 -225 b 1761 -232 1754 -238 1744 -234 b 1739 -232 1738 -222 1738 -216 l 1726 -218 b 1726 -234 1734 -247 1752 -247 z m 1232 263 l 1266 263 l 1266 273 l 1240 273 l 1240 359 l 1232 359 z m 1091 404 b 1130 416 1121 472 1121 504 l 1121 587 l 1096 587 l 1096 461 b 1096 440 1089 412 1062 420 b 1046 429 1046 450 1046 464 l 1046 587 l 1023 587 l 1023 474 b 1023 455 1023 441 1028 429 b 1038 404 1069 393 1091 404 z m 1784 -246 l 1796 -246 l 1796 -153 l 1784 -153 z m 1660 -128 l 1670 -128 l 1676 -105 l 1694 -105 l 1697 -128 l 1711 -128 l 1691 -35 l 1676 -35 z m 1276 263 l 1310 263 l 1310 273 l 1287 273 l 1287 307 l 1307 307 l 1307 318 l 1287 318 l 1287 353 l 1310 353 l 1310 359 l 1276 359 z m 1676 -97 l 1684 -54 l 1691 -97 z m 1829 -234 b 1819 -230 1826 -201 1826 -191 l 1826 -177 b 1826 -167 1829 -158 1844 -164 b 1852 -167 1850 -193 1850 -203 b 1850 -215 1850 -246 1829 -234 z m 1837 -247 b 1863 -247 1862 -218 1862 -200 b 1862 -180 1865 -153 1839 -153 b 1809 -149 1809 -172 1809 -197 b 1809 -216 1807 -247 1837 -247 z m 1316 263 l 1328 263 l 1331 289 l 1351 289 l 1355 263 l 1369 263 l 1351 359 l 1335 359 z m 1720 -128 l 1733 -128 l 1733 -65 l 1757 -128 l 1766 -128 l 1766 -35 l 1754 -35 l 1754 -97 l 1729 -35 l 1720 -35 z m 1331 297 l 1342 344 l 1351 297 z m 1192 401 b 1222 401 1239 429 1234 457 b 1232 482 1213 494 1196 507 b 1182 520 1161 533 1169 552 b 1170 562 1179 570 1192 565 b 1205 563 1210 547 1211 533 l 1232 541 b 1232 555 1227 570 1215 580 b 1202 587 1183 590 1171 587 b 1141 578 1136 541 1150 518 b 1158 504 1175 494 1185 483 b 1196 478 1200 469 1205 462 b 1213 453 1215 433 1203 427 b 1196 418 1183 420 1175 429 b 1169 435 1169 450 1168 461 l 1141 454 b 1144 425 1161 401 1192 401 z m 1876 -246 l 1883 -246 l 1883 -181 l 1913 -246 l 1923 -246 l 1923 -153 l 1912 -153 l 1912 -215 l 1883 -153 l 1876 -153 z m 1400 263 b 1418 263 1428 278 1422 294 b 1421 305 1410 311 1400 318 b 1394 324 1387 332 1390 344 b 1391 354 1405 358 1411 332 l 1422 334 b 1422 344 1418 354 1410 358 b 1400 363 1390 359 1385 355 b 1369 344 1377 324 1390 314 b 1396 306 1411 297 1411 284 b 1411 277 1406 273 1396 273 b 1390 277 1390 287 1390 294 l 1376 289 b 1377 277 1387 263 1400 263 z m 1782 -35 l 1782 -128 b 1791 -128 1809 -130 1819 -123 b 1833 -116 1828 -97 1828 -83 b 1828 -71 1833 -50 1823 -42 b 1811 -33 1793 -35 1782 -35 z m 1795 -121 l 1795 -44 b 1807 -44 1816 -44 1817 -60 l 1817 -106 b 1813 -121 1805 -121 1795 -121 z m 1433 263 l 1472 263 l 1472 273 l 1448 273 l 1448 307 l 1464 307 l 1464 318 l 1448 318 l 1448 353 l 1471 353 l 1471 359 l 1433 359 z m 1022 614 l 1046 614 l 1046 697 b 1062 697 1085 695 1096 708 b 1117 722 1117 755 1106 777 b 1096 795 1078 797 1061 797 l 1022 797 z m 1257 404 l 1326 404 l 1326 420 l 1281 420 l 1281 488 l 1318 488 l 1318 507 l 1281 507 l 1281 565 l 1326 565 l 1326 587 l 1257 587 z m 1046 716 l 1046 778 b 1054 778 1063 780 1074 777 b 1089 774 1089 757 1089 745 b 1089 733 1087 721 1074 718 b 1063 715 1054 716 1046 716 z m 1524 263 l 1537 263 l 1557 359 l 1545 359 l 1531 289 l 1518 359 l 1503 359 z m 1131 614 l 1202 614 l 1202 630 l 1156 630 l 1156 697 l 1193 697 l 1193 716 l 1156 716 l 1156 778 l 1200 778 l 1200 797 l 1131 797 z m 1566 263 l 1580 263 l 1580 359 l 1566 359 z m 1617 263 b 1632 263 1643 278 1637 294 b 1636 305 1624 313 1618 318 b 1612 324 1601 332 1605 344 b 1610 354 1623 358 1625 332 l 1637 334 b 1636 344 1632 354 1624 358 b 1618 363 1607 359 1600 355 b 1584 344 1593 324 1604 314 b 1613 306 1627 297 1625 284 b 1625 277 1621 273 1613 273 b 1607 277 1604 287 1604 294 l 1591 289 b 1593 277 1600 263 1617 263 z m 1448 401 b 1472 401 1490 414 1492 439 b 1497 453 1494 466 1494 483 b 1494 506 1500 539 1490 561 b 1483 581 1464 587 1442 587 b 1422 587 1406 578 1398 557 b 1394 533 1396 504 1396 478 b 1396 464 1396 453 1398 440 b 1400 414 1421 401 1448 401 z m 1433 422 b 1421 429 1422 447 1422 461 l 1422 494 b 1422 512 1419 533 1422 551 b 1427 561 1431 565 1441 565 b 1448 570 1455 565 1463 561 b 1472 554 1471 543 1471 533 l 1471 466 b 1471 461 1472 453 1471 447 b 1470 439 1464 429 1455 422 b 1450 420 1441 420 1433 422 z m 1649 263 l 1665 263 l 1665 359 l 1649 359 z m 1222 797 l 1222 614 l 1249 614 l 1249 698 l 1268 698 l 1293 614 l 1316 614 l 1293 705 b 1323 715 1321 775 1293 790 b 1274 800 1246 797 1222 797 z m 1690 263 l 1700 263 l 1700 353 l 1715 353 l 1715 359 l 1672 359 l 1672 353 l 1690 353 z m 1249 716 l 1249 778 b 1257 778 1266 780 1276 776 b 1287 772 1289 759 1289 752 b 1291 737 1287 723 1276 718 b 1266 716 1257 716 1249 716 z m 1522 404 l 1542 404 l 1542 528 l 1596 404 l 1613 404 l 1613 587 l 1591 587 l 1591 464 l 1540 587 l 1522 587 z m 1385 612 b 1415 612 1432 638 1427 668 b 1421 688 1405 701 1390 716 b 1375 727 1354 743 1357 764 b 1361 775 1373 780 1385 780 b 1398 776 1400 757 1405 745 l 1424 753 b 1422 765 1419 782 1408 790 b 1396 798 1376 800 1363 795 b 1331 788 1326 753 1342 724 b 1351 713 1367 701 1377 692 b 1389 684 1394 676 1398 671 b 1406 661 1408 644 1398 636 b 1390 629 1376 630 1367 638 b 1361 646 1357 657 1356 671 l 1331 665 b 1333 635 1351 612 1385 612 z m 1643 404 l 1711 404 l 1711 420 l 1668 420 l 1668 587 l 1643 587 z m 1483 633 b 1470 640 1471 657 1471 669 l 1471 701 b 1471 719 1464 745 1472 759 b 1475 772 1480 777 1490 778 b 1497 780 1504 780 1510 772 b 1519 764 1519 753 1519 741 l 1519 657 b 1519 649 1518 638 1505 633 b 1500 630 1490 630 1483 633 z m 1837 404 l 1862 404 l 1862 429 l 1837 429 z m 1757 441 l 1757 404 l 1784 404 l 1784 448 b 1784 455 1782 464 1785 474 l 1798 509 b 1807 537 1816 561 1823 587 l 1798 587 l 1770 499 l 1742 587 l 1720 587 l 1744 504 b 1752 494 1754 483 1757 469 b 1758 461 1757 450 1757 441 z m 1570 614 l 1591 614 l 1591 737 l 1643 614 l 1661 614 l 1661 797 l 1637 797 l 1637 673 l 1585 797 l 1570 797 z m 1844 442 l 1852 442 l 1862 587 l 1837 587 z m 1678 614 l 1701 614 l 1711 657 l 1749 657 l 1757 614 l 1782 614 l 1742 797 l 1718 797 z m 1715 676 l 1731 759 l 1744 676 z m 1800 614 l 1872 614 l 1872 630 l 1827 630 l 1827 797 l 1800 797 z m 224 -4 l 259 -4 l 261 91 l 281 -4 l 308 -4 l 325 93 l 329 -4 l 362 -4 l 361 230 l 321 230 l 294 83 l 265 230 l 227 230 z m 392 -4 l 429 -4 l 429 110 l 470 -4 l 499 -4 l 499 230 l 462 230 l 462 118 l 422 230 l 392 230 z m 525 -4 l 565 -4 l 565 38 l 525 38 z m 646 -7 b 672 -1 686 19 687 40 b 691 70 681 96 660 118 l 641 139 b 633 147 624 153 619 167 b 616 175 617 198 635 197 b 651 194 647 167 650 151 l 686 153 b 686 181 683 215 656 228 b 623 244 584 221 583 187 b 579 168 583 147 592 133 b 595 124 606 118 614 108 b 627 93 650 74 650 50 b 650 40 647 32 640 30 b 633 27 629 32 626 38 b 617 51 617 66 617 80 l 580 78 b 580 57 583 38 590 20 b 599 -1 624 -10 646 -7 z m 788 3 l 790 -4 l 820 -4 l 820 118 l 760 118 l 760 83 l 783 83 b 783 70 787 19 760 30 b 741 35 746 67 746 80 l 746 165 b 746 183 750 199 768 197 b 778 192 780 188 780 147 l 818 147 b 818 173 820 209 793 225 b 778 235 758 235 740 230 b 720 221 710 201 706 181 b 703 160 705 136 705 113 b 705 91 703 70 706 48 b 708 30 714 8 730 0 b 746 -10 773 -10 788 3 z m 828 -34 l 861 -34 l 928 260 l 891 260 z m 983 -9 b 992 -10 1003 -9 1011 -4 b 1038 8 1041 42 1041 71 l 1004 73 b 1004 58 1006 30 989 27 b 982 26 974 30 974 42 l 974 180 b 974 192 982 197 989 195 b 1006 192 1004 165 1004 150 l 1041 152 b 1041 180 1038 215 1011 227 b 1003 231 992 233 983 231 b 960 229 936 211 936 182 l 936 41 b 936 12 960 -6 983 -9 z m 1061 -6 l 1103 -6 l 1103 93 l 1138 93 l 1138 -6 l 1176 -6 l 1176 229 l 1138 229 l 1138 134 l 1103 134 l 1103 229 l 1061 229 z m 1196 -6 l 1234 -6 l 1234 96 l 1245 96 l 1265 -6 l 1304 -6 l 1278 103 b 1299 117 1306 146 1306 168 b 1306 211 1281 229 1264 229 l 1196 229 z m 1255 129 l 1234 129 l 1234 195 l 1246 195 b 1270 195 1268 136 1255 129 z m 1326 -6 l 1367 -6 l 1367 229 l 1326 229 z m 1452 -9 b 1477 -3 1492 18 1493 39 b 1497 69 1485 95 1465 117 l 1446 138 b 1438 146 1431 152 1426 165 b 1423 175 1424 197 1440 195 b 1455 192 1454 165 1454 150 l 1492 152 b 1492 180 1488 215 1460 227 b 1430 241 1389 221 1387 186 b 1385 167 1387 146 1399 131 b 1402 124 1411 117 1418 107 b 1432 92 1454 74 1454 48 b 1454 39 1454 30 1446 29 b 1438 26 1433 30 1432 37 b 1424 50 1424 65 1424 78 l 1387 77 b 1387 56 1387 37 1395 20 b 1406 -3 1431 -12 1452 -9 z m 1536 -6 l 1576 -6 l 1576 189 l 1609 189 l 1609 229 l 1502 229 l 1502 189 l 1536 189 z m 1620 -6 l 1657 -6 l 1657 90 l 1676 -6 l 1702 -6 l 1721 92 l 1723 -6 l 1758 -6 l 1757 229 l 1715 229 l 1689 81 l 1661 229 l 1625 229 z m 1763 -6 l 1803 -6 l 1811 50 l 1837 50 l 1844 -6 l 1883 -6 l 1843 229 l 1806 229 z m 1817 83 l 1823 131 l 1830 83 z m 1954 -9 b 1978 -3 1994 18 1995 39 b 1998 69 1987 95 1967 117 l 1948 138 b 1940 146 1932 152 1928 165 b 1924 175 1926 197 1942 195 b 1957 192 1956 165 1956 150 l 1994 152 b 1994 180 1990 215 1962 227 b 1931 241 1891 221 1889 186 b 1887 167 1889 146 1900 131 b 1903 124 1913 117 1919 107 b 1933 92 1956 74 1956 48 b 1956 39 1956 30 1948 29 b 1940 26 1935 30 1933 37 b 1926 50 1926 65 1926 78 l 1889 77 b 1889 56 1889 37 1897 20 b 1907 -3 1932 -12 1954 -9 z m 2005 90 l 2055 90 l 2055 131 l 2005 131 z m 2123 -9 b 2132 -10 2143 -9 2150 -4 b 2177 8 2181 42 2181 71 l 2144 73 b 2144 58 2146 30 2128 27 b 2122 26 2114 30 2114 42 l 2114 180 b 2114 192 2122 197 2128 195 b 2146 192 2144 165 2144 150 l 2181 152 b 2181 180 2177 215 2150 227 b 2143 231 2132 233 2123 231 b 2100 229 2075 211 2075 182 l 2075 41 b 2075 12 2100 -6 2123 -9 z m 2186 -6 l 2225 -6 l 2233 50 l 2259 50 l 2266 -6 l 2305 -6 l 2265 229 l 2228 229 z m 2239 83 l 2245 131 l 2252 83 z m 2310 -6 l 2349 -6 l 2349 96 l 2360 96 l 2380 -6 l 2419 -6 l 2393 103 b 2414 117 2421 146 2421 168 b 2421 211 2396 229 2379 229 l 2310 229 z m 2370 129 l 2349 129 l 2349 195 l 2361 195 b 2385 195 2383 136 2370 129 z m 2476 -4 b 2492 -9 2513 -9 2528 1 b 2554 16 2552 52 2552 78 l 2552 146 b 2552 171 2554 208 2528 224 b 2513 233 2492 233 2476 229 b 2455 221 2444 200 2443 179 b 2441 167 2441 155 2441 144 l 2441 78 b 2441 67 2441 56 2443 43 b 2444 23 2455 3 2476 -4 z m 2501 29 b 2493 27 2485 32 2484 37 b 2478 52 2480 71 2480 83 l 2480 139 b 2480 152 2478 171 2484 187 b 2485 190 2493 195 2501 195 b 2508 192 2513 189 2513 180 b 2516 169 2514 158 2514 146 l 2514 78 b 2514 66 2516 54 2513 43 b 2513 33 2508 32 2501 29 z m 2572 -6 l 2662 -6 l 2662 33 l 2613 33 l 2613 229 l 2572 229 z"},"~":{"x_min":0,"x_max":531,"ha":531,"o":"m 47 252 l 47 223 b 64 241 85 247 109 247 b 181 247 278 184 380 184 b 432 184 486 201 538 253 l 538 281 b 520 263 499 257 474 257 b 401 257 301 317 200 317 b 148 317 96 301 47 252 z"},"D":{"x_min":0,"x_max":839,"ha":839,"o":"m 173 -6 b 254 -12 318 12 364 54 b 475 153 529 336 588 465 b 611 514 635 562 669 604 b 682 620 697 635 714 647 b 762 611 791 549 792 465 b 794 301 705 68 597 35 b 459 -7 493 218 632 247 b 679 257 654 325 597 292 b 464 215 426 -44 611 -3 b 771 32 869 297 855 469 b 847 558 814 628 746 668 b 764 677 782 685 802 690 b 804 690 806 693 806 696 b 806 699 804 702 800 702 b 785 702 771 701 756 698 b 741 695 726 691 712 685 b 679 698 641 705 595 706 b 475 709 335 671 266 566 b 205 555 148 522 110 472 b 79 431 59 379 56 328 b -16 213 -7 11 173 -6 z m 58 288 b 60 264 67 241 77 219 b 103 162 162 130 225 129 b 288 127 350 164 381 219 b 408 265 414 318 398 359 b 417 368 435 380 450 395 b 501 446 516 531 482 595 b 479 602 469 597 471 590 b 485 550 484 504 466 465 b 451 429 421 399 385 384 b 366 411 334 431 290 435 b 278 436 266 437 253 436 b 252 443 251 449 251 456 b 250 488 259 519 274 546 l 303 552 b 317 555 331 556 345 558 b 352 559 352 569 345 570 b 327 572 308 572 290 570 b 305 589 323 606 342 620 b 414 673 507 689 595 686 b 626 685 655 679 680 668 b 652 650 627 627 606 602 b 541 523 503 425 468 332 b 410 208 363 89 268 45 b 90 -31 -17 116 58 288 z m 80 331 b 116 381 174 411 236 415 b 239 405 244 395 250 385 b 273 349 313 342 352 347 l 368 350 b 370 338 371 325 369 311 b 360 250 317 192 260 167 b 225 151 182 152 148 171 b 113 190 91 228 83 266 b 79 287 78 309 80 331 z m 87 366 b 96 399 111 429 132 455 b 162 494 204 522 249 538 l 244 526 b 233 497 227 465 232 435 b 177 428 125 405 87 366 z m 260 417 b 301 417 338 404 357 375 l 349 374 b 319 370 289 372 270 399 b 266 404 263 410 260 417 z"},"^":{"x_min":0,"x_max":420,"ha":420,"o":"m 377 316 l 431 316 l 386 574 l 329 574 l 93 316 l 131 316 l 337 536 z"},"0":{"x_min":0,"x_max":2955,"ha":2955,"o":"m 1492 612 b 1519 612 1537 623 1542 649 b 1545 661 1545 676 1545 691 b 1545 715 1549 749 1540 772 b 1533 792 1510 798 1490 798 b 1471 797 1452 788 1448 765 b 1441 743 1443 711 1443 684 b 1443 673 1443 663 1446 651 b 1450 626 1464 612 1492 612 z m 987 -247 b 1007 -247 1009 -227 1009 -212 l 998 -212 b 998 -217 999 -224 997 -229 b 992 -237 981 -238 977 -232 b 970 -224 973 -206 973 -200 b 973 -191 970 -172 976 -165 b 981 -159 992 -159 997 -167 b 999 -172 998 -180 998 -184 l 1009 -184 b 1009 -169 1009 -153 990 -153 b 968 -149 959 -164 959 -181 b 959 -205 953 -247 987 -247 z m 1039 -234 b 1028 -230 1031 -201 1031 -191 l 1031 -177 b 1031 -167 1039 -158 1051 -164 b 1061 -167 1059 -193 1059 -203 b 1059 -215 1060 -246 1039 -234 z m 1046 -247 b 1074 -247 1072 -218 1072 -200 b 1072 -180 1074 -153 1046 -153 b 1020 -149 1020 -172 1020 -197 b 1020 -216 1016 -247 1046 -247 z m 1085 -246 l 1095 -246 l 1095 -177 l 1111 -246 l 1121 -246 l 1136 -177 l 1136 -246 l 1146 -246 l 1144 -153 l 1131 -153 l 1117 -227 l 1098 -153 l 1085 -153 z m 1054 -128 l 1069 -128 l 1069 -85 l 1087 -85 l 1087 -77 l 1069 -77 l 1069 -44 l 1091 -44 l 1091 -35 l 1054 -35 z m 1161 -246 l 1171 -246 l 1173 -177 l 1185 -246 l 1196 -246 l 1211 -177 l 1213 -246 l 1222 -246 l 1218 -153 l 1206 -153 l 1192 -227 l 1175 -153 l 1161 -153 z m 1126 -128 b 1151 -128 1151 -103 1151 -83 b 1151 -65 1153 -38 1128 -33 b 1098 -33 1098 -57 1098 -79 b 1098 -100 1096 -128 1126 -128 z m 1121 -120 b 1106 -115 1112 -85 1112 -77 l 1112 -62 b 1112 -50 1121 -39 1131 -45 b 1141 -50 1138 -77 1138 -86 b 1138 -100 1138 -124 1121 -120 z m 1237 -246 l 1274 -246 l 1274 -237 l 1252 -237 l 1252 -201 l 1269 -201 l 1269 -191 l 1252 -191 l 1252 -162 l 1274 -162 l 1274 -153 l 1237 -153 z m 1164 -35 l 1164 -128 l 1175 -128 l 1175 -85 l 1185 -85 l 1199 -128 l 1213 -128 l 1199 -83 b 1215 -77 1213 -45 1199 -38 b 1189 -33 1175 -35 1164 -35 z m 1283 -153 l 1283 -246 l 1298 -246 l 1298 -201 l 1308 -201 l 1319 -246 l 1331 -246 l 1318 -200 b 1333 -193 1331 -164 1319 -154 b 1309 -149 1297 -153 1283 -153 z m 1175 -77 l 1175 -44 b 1189 -44 1199 -45 1199 -60 b 1199 -75 1189 -77 1175 -77 z m 1298 -191 l 1298 -162 b 1309 -162 1318 -164 1318 -177 b 1318 -191 1309 -191 1298 -191 z m 1367 -247 b 1390 -247 1391 -227 1391 -212 l 1378 -212 b 1378 -217 1382 -224 1377 -229 b 1376 -237 1363 -238 1357 -232 b 1351 -224 1354 -206 1354 -200 b 1354 -191 1351 -172 1357 -165 b 1363 -159 1376 -159 1377 -167 b 1382 -172 1378 -180 1378 -184 l 1391 -184 b 1391 -169 1390 -153 1373 -153 b 1351 -149 1342 -164 1342 -181 b 1342 -205 1333 -247 1367 -247 z m 1260 -128 l 1274 -128 l 1274 -44 l 1291 -44 l 1291 -35 l 1244 -35 l 1244 -44 l 1260 -44 z m 1406 -246 l 1418 -246 l 1418 -153 l 1406 -153 z m 1298 -128 l 1309 -128 l 1309 -85 l 1334 -85 l 1334 -128 l 1347 -128 l 1347 -35 l 1334 -35 l 1334 -77 l 1309 -77 l 1309 -35 l 1298 -35 z m 1428 -246 l 1441 -246 l 1446 -222 l 1464 -222 l 1470 -246 l 1481 -246 l 1460 -153 l 1448 -153 z m 1448 -215 l 1455 -169 l 1463 -215 z m 1361 -128 l 1398 -128 l 1398 -121 l 1376 -121 l 1376 -85 l 1394 -85 l 1394 -77 l 1376 -77 l 1376 -44 l 1398 -44 l 1398 -35 l 1361 -35 z m 1490 -246 l 1528 -246 l 1528 -237 l 1503 -237 l 1503 -153 l 1490 -153 z m 1438 -128 l 1448 -128 l 1448 -85 l 1464 -85 l 1464 -77 l 1448 -77 l 1448 -44 l 1473 -44 l 1473 -35 l 1438 -35 z m 1580 -246 l 1589 -246 l 1610 -153 l 1600 -153 l 1584 -222 l 1570 -153 l 1560 -153 z m 1514 -128 b 1533 -121 1531 -95 1531 -78 l 1531 -35 l 1519 -35 l 1519 -77 b 1519 -88 1522 -121 1504 -121 b 1486 -121 1492 -88 1492 -77 l 1492 -35 l 1481 -35 l 1481 -85 b 1481 -91 1480 -100 1481 -106 b 1483 -124 1494 -132 1514 -128 z m 1621 -246 l 1660 -246 l 1660 -237 l 1634 -237 l 1634 -201 l 1654 -201 l 1654 -191 l 1634 -191 l 1634 -162 l 1660 -162 l 1660 -153 l 1621 -153 z m 1545 -128 l 1580 -128 l 1580 -121 l 1559 -121 l 1559 -35 l 1545 -35 z m 1669 -153 l 1669 -246 l 1682 -246 l 1682 -201 l 1691 -201 l 1703 -246 l 1715 -246 l 1701 -200 b 1718 -194 1718 -164 1705 -154 b 1694 -149 1680 -153 1669 -153 z m 1173 359 l 1173 263 l 1185 263 l 1185 307 b 1196 307 1203 306 1213 313 b 1218 321 1218 337 1215 349 b 1206 364 1185 359 1173 359 z m 1682 -191 l 1682 -162 b 1694 -162 1701 -164 1701 -177 b 1701 -191 1694 -191 1682 -191 z m 1589 -128 l 1625 -128 l 1625 -121 l 1602 -121 l 1602 -35 l 1589 -35 z m 1185 315 l 1185 353 b 1199 353 1205 353 1205 336 b 1205 328 1205 322 1199 318 b 1196 315 1190 315 1185 315 z m 1752 -247 b 1769 -247 1776 -232 1770 -217 b 1770 -205 1758 -200 1753 -191 b 1744 -184 1734 -177 1739 -167 b 1742 -162 1747 -159 1753 -162 b 1758 -164 1758 -172 1761 -180 l 1770 -174 b 1770 -165 1769 -158 1758 -153 b 1753 -149 1742 -150 1734 -158 b 1720 -165 1726 -186 1738 -197 b 1744 -203 1761 -215 1761 -225 b 1761 -232 1754 -238 1744 -234 b 1739 -232 1738 -222 1738 -216 l 1726 -218 b 1726 -234 1734 -247 1752 -247 z m 1232 263 l 1266 263 l 1266 273 l 1240 273 l 1240 359 l 1232 359 z m 1091 404 b 1130 416 1121 472 1121 504 l 1121 587 l 1096 587 l 1096 461 b 1096 440 1089 412 1062 420 b 1046 429 1046 450 1046 464 l 1046 587 l 1023 587 l 1023 474 b 1023 455 1023 441 1028 429 b 1038 404 1069 393 1091 404 z m 1784 -246 l 1796 -246 l 1796 -153 l 1784 -153 z m 1660 -128 l 1670 -128 l 1676 -105 l 1694 -105 l 1697 -128 l 1711 -128 l 1691 -35 l 1676 -35 z m 1276 263 l 1310 263 l 1310 273 l 1287 273 l 1287 307 l 1307 307 l 1307 318 l 1287 318 l 1287 353 l 1310 353 l 1310 359 l 1276 359 z m 1676 -97 l 1684 -54 l 1691 -97 z m 1829 -234 b 1819 -230 1826 -201 1826 -191 l 1826 -177 b 1826 -167 1829 -158 1844 -164 b 1852 -167 1850 -193 1850 -203 b 1850 -215 1850 -246 1829 -234 z m 1837 -247 b 1863 -247 1862 -218 1862 -200 b 1862 -180 1865 -153 1839 -153 b 1809 -149 1809 -172 1809 -197 b 1809 -216 1807 -247 1837 -247 z m 1316 263 l 1328 263 l 1331 289 l 1351 289 l 1355 263 l 1369 263 l 1351 359 l 1335 359 z m 1720 -128 l 1733 -128 l 1733 -65 l 1757 -128 l 1766 -128 l 1766 -35 l 1754 -35 l 1754 -97 l 1729 -35 l 1720 -35 z m 1331 297 l 1342 344 l 1351 297 z m 1192 401 b 1222 401 1239 429 1234 457 b 1232 482 1213 494 1196 507 b 1182 520 1161 533 1169 552 b 1170 562 1179 570 1192 565 b 1205 563 1210 547 1211 533 l 1232 541 b 1232 555 1227 570 1215 580 b 1202 587 1183 590 1171 587 b 1141 578 1136 541 1150 518 b 1158 504 1175 494 1185 483 b 1196 478 1200 469 1205 462 b 1213 453 1215 433 1203 427 b 1196 418 1183 420 1175 429 b 1169 435 1169 450 1168 461 l 1141 454 b 1144 425 1161 401 1192 401 z m 1876 -246 l 1883 -246 l 1883 -181 l 1913 -246 l 1923 -246 l 1923 -153 l 1912 -153 l 1912 -215 l 1883 -153 l 1876 -153 z m 1400 263 b 1418 263 1428 278 1422 294 b 1421 305 1410 311 1400 318 b 1394 324 1387 332 1390 344 b 1391 354 1405 358 1411 332 l 1422 334 b 1422 344 1418 354 1410 358 b 1400 363 1390 359 1385 355 b 1369 344 1377 324 1390 314 b 1396 306 1411 297 1411 284 b 1411 277 1406 273 1396 273 b 1390 277 1390 287 1390 294 l 1376 289 b 1377 277 1387 263 1400 263 z m 1782 -35 l 1782 -128 b 1791 -128 1809 -130 1819 -123 b 1833 -116 1828 -97 1828 -83 b 1828 -71 1833 -50 1823 -42 b 1811 -33 1793 -35 1782 -35 z m 1795 -121 l 1795 -44 b 1807 -44 1816 -44 1817 -60 l 1817 -106 b 1813 -121 1805 -121 1795 -121 z m 1433 263 l 1472 263 l 1472 273 l 1448 273 l 1448 307 l 1464 307 l 1464 318 l 1448 318 l 1448 353 l 1471 353 l 1471 359 l 1433 359 z m 1022 614 l 1046 614 l 1046 697 b 1062 697 1085 695 1096 708 b 1117 722 1117 755 1106 777 b 1096 795 1078 797 1061 797 l 1022 797 z m 1257 404 l 1326 404 l 1326 420 l 1281 420 l 1281 488 l 1318 488 l 1318 507 l 1281 507 l 1281 565 l 1326 565 l 1326 587 l 1257 587 z m 1046 716 l 1046 778 b 1054 778 1063 780 1074 777 b 1089 774 1089 757 1089 745 b 1089 733 1087 721 1074 718 b 1063 715 1054 716 1046 716 z m 1524 263 l 1537 263 l 1557 359 l 1545 359 l 1531 289 l 1518 359 l 1503 359 z m 1131 614 l 1202 614 l 1202 630 l 1156 630 l 1156 697 l 1193 697 l 1193 716 l 1156 716 l 1156 778 l 1200 778 l 1200 797 l 1131 797 z m 1566 263 l 1580 263 l 1580 359 l 1566 359 z m 1617 263 b 1632 263 1643 278 1637 294 b 1636 305 1624 313 1618 318 b 1612 324 1601 332 1605 344 b 1610 354 1623 358 1625 332 l 1637 334 b 1636 344 1632 354 1624 358 b 1618 363 1607 359 1600 355 b 1584 344 1593 324 1604 314 b 1613 306 1627 297 1625 284 b 1625 277 1621 273 1613 273 b 1607 277 1604 287 1604 294 l 1591 289 b 1593 277 1600 263 1617 263 z m 1448 401 b 1472 401 1490 414 1492 439 b 1497 453 1494 466 1494 483 b 1494 506 1500 539 1490 561 b 1483 581 1464 587 1442 587 b 1422 587 1406 578 1398 557 b 1394 533 1396 504 1396 478 b 1396 464 1396 453 1398 440 b 1400 414 1421 401 1448 401 z m 1433 422 b 1421 429 1422 447 1422 461 l 1422 494 b 1422 512 1419 533 1422 551 b 1427 561 1431 565 1441 565 b 1448 570 1455 565 1463 561 b 1472 554 1471 543 1471 533 l 1471 466 b 1471 461 1472 453 1471 447 b 1470 439 1464 429 1455 422 b 1450 420 1441 420 1433 422 z m 1649 263 l 1665 263 l 1665 359 l 1649 359 z m 1222 797 l 1222 614 l 1249 614 l 1249 698 l 1268 698 l 1293 614 l 1316 614 l 1293 705 b 1323 715 1321 775 1293 790 b 1274 800 1246 797 1222 797 z m 1690 263 l 1700 263 l 1700 353 l 1715 353 l 1715 359 l 1672 359 l 1672 353 l 1690 353 z m 1249 716 l 1249 778 b 1257 778 1266 780 1276 776 b 1287 772 1289 759 1289 752 b 1291 737 1287 723 1276 718 b 1266 716 1257 716 1249 716 z m 1522 404 l 1542 404 l 1542 528 l 1596 404 l 1613 404 l 1613 587 l 1591 587 l 1591 464 l 1540 587 l 1522 587 z m 1385 612 b 1415 612 1432 638 1427 668 b 1421 688 1405 701 1390 716 b 1375 727 1354 743 1357 764 b 1361 775 1373 780 1385 780 b 1398 776 1400 757 1405 745 l 1424 753 b 1422 765 1419 782 1408 790 b 1396 798 1376 800 1363 795 b 1331 788 1326 753 1342 724 b 1351 713 1367 701 1377 692 b 1389 684 1394 676 1398 671 b 1406 661 1408 644 1398 636 b 1390 629 1376 630 1367 638 b 1361 646 1357 657 1356 671 l 1331 665 b 1333 635 1351 612 1385 612 z m 1643 404 l 1711 404 l 1711 420 l 1668 420 l 1668 587 l 1643 587 z m 1483 633 b 1470 640 1471 657 1471 669 l 1471 701 b 1471 719 1464 745 1472 759 b 1475 772 1480 777 1490 778 b 1497 780 1504 780 1510 772 b 1519 764 1519 753 1519 741 l 1519 657 b 1519 649 1518 638 1505 633 b 1500 630 1490 630 1483 633 z m 1837 404 l 1862 404 l 1862 429 l 1837 429 z m 1757 441 l 1757 404 l 1784 404 l 1784 448 b 1784 455 1782 464 1785 474 l 1798 509 b 1807 537 1816 561 1823 587 l 1798 587 l 1770 499 l 1742 587 l 1720 587 l 1744 504 b 1752 494 1754 483 1757 469 b 1758 461 1757 450 1757 441 z m 1570 614 l 1591 614 l 1591 737 l 1643 614 l 1661 614 l 1661 797 l 1637 797 l 1637 673 l 1585 797 l 1570 797 z m 1844 442 l 1852 442 l 1862 587 l 1837 587 z m 1678 614 l 1701 614 l 1711 657 l 1749 657 l 1757 614 l 1782 614 l 1742 797 l 1718 797 z m 1715 676 l 1731 759 l 1744 676 z m 1800 614 l 1872 614 l 1872 630 l 1827 630 l 1827 797 l 1800 797 z m 224 -4 l 259 -4 l 261 91 l 281 -4 l 308 -4 l 325 93 l 329 -4 l 362 -4 l 361 230 l 321 230 l 294 83 l 265 230 l 227 230 z m 392 -4 l 429 -4 l 429 110 l 470 -4 l 499 -4 l 499 230 l 462 230 l 462 118 l 422 230 l 392 230 z m 525 -4 l 565 -4 l 565 38 l 525 38 z m 646 -7 b 672 -1 686 19 687 40 b 691 70 681 96 660 118 l 641 139 b 633 147 624 153 619 167 b 616 175 617 198 635 197 b 651 194 647 167 650 151 l 686 153 b 686 181 683 215 656 228 b 623 244 584 221 583 187 b 579 168 583 147 592 133 b 595 124 606 118 614 108 b 627 93 650 74 650 50 b 650 40 647 32 640 30 b 633 27 629 32 626 38 b 617 51 617 66 617 80 l 580 78 b 580 57 583 38 590 20 b 599 -1 624 -10 646 -7 z m 788 3 l 790 -4 l 820 -4 l 820 118 l 760 118 l 760 83 l 783 83 b 783 70 787 19 760 30 b 741 35 746 67 746 80 l 746 165 b 746 183 750 199 768 197 b 778 192 780 188 780 147 l 818 147 b 818 173 820 209 793 225 b 778 235 758 235 740 230 b 720 221 710 201 706 181 b 703 160 705 136 705 113 b 705 91 703 70 706 48 b 708 30 714 8 730 0 b 746 -10 773 -10 788 3 z m 828 -34 l 861 -34 l 928 260 l 891 260 z m 983 -9 b 992 -10 1003 -9 1011 -4 b 1038 8 1041 42 1041 71 l 1004 73 b 1004 58 1006 30 989 27 b 982 26 974 30 974 42 l 974 180 b 974 192 982 197 989 195 b 1006 192 1004 165 1004 150 l 1041 152 b 1041 180 1038 215 1011 227 b 1003 231 992 233 983 231 b 960 229 936 211 936 182 l 936 41 b 936 12 960 -6 983 -9 z m 1061 -6 l 1103 -6 l 1103 93 l 1138 93 l 1138 -6 l 1176 -6 l 1176 229 l 1138 229 l 1138 134 l 1103 134 l 1103 229 l 1061 229 z m 1196 -6 l 1234 -6 l 1234 96 l 1245 96 l 1265 -6 l 1304 -6 l 1278 103 b 1299 117 1306 146 1306 168 b 1306 211 1281 229 1264 229 l 1196 229 z m 1255 129 l 1234 129 l 1234 195 l 1246 195 b 1270 195 1268 136 1255 129 z m 1326 -6 l 1367 -6 l 1367 229 l 1326 229 z m 1452 -9 b 1477 -3 1492 18 1493 39 b 1497 69 1485 95 1465 117 l 1446 138 b 1438 146 1431 152 1426 165 b 1423 175 1424 197 1440 195 b 1455 192 1454 165 1454 150 l 1492 152 b 1492 180 1488 215 1460 227 b 1430 241 1389 221 1387 186 b 1385 167 1387 146 1399 131 b 1402 124 1411 117 1418 107 b 1432 92 1454 74 1454 48 b 1454 39 1454 30 1446 29 b 1438 26 1433 30 1432 37 b 1424 50 1424 65 1424 78 l 1387 77 b 1387 56 1387 37 1395 20 b 1406 -3 1431 -12 1452 -9 z m 1536 -6 l 1576 -6 l 1576 189 l 1609 189 l 1609 229 l 1502 229 l 1502 189 l 1536 189 z m 1620 -6 l 1657 -6 l 1657 90 l 1676 -6 l 1702 -6 l 1721 92 l 1723 -6 l 1758 -6 l 1757 229 l 1715 229 l 1689 81 l 1661 229 l 1625 229 z m 1763 -6 l 1803 -6 l 1811 50 l 1837 50 l 1844 -6 l 1883 -6 l 1843 229 l 1806 229 z m 1817 83 l 1823 131 l 1830 83 z m 1954 -9 b 1978 -3 1994 18 1995 39 b 1998 69 1987 95 1967 117 l 1948 138 b 1940 146 1932 152 1928 165 b 1924 175 1926 197 1942 195 b 1957 192 1956 165 1956 150 l 1994 152 b 1994 180 1990 215 1962 227 b 1931 241 1891 221 1889 186 b 1887 167 1889 146 1900 131 b 1903 124 1913 117 1919 107 b 1933 92 1956 74 1956 48 b 1956 39 1956 30 1948 29 b 1940 26 1935 30 1933 37 b 1926 50 1926 65 1926 78 l 1889 77 b 1889 56 1889 37 1897 20 b 1907 -3 1932 -12 1954 -9 z m 2005 90 l 2055 90 l 2055 131 l 2005 131 z m 2123 -9 b 2132 -10 2143 -9 2150 -4 b 2177 8 2181 42 2181 71 l 2144 73 b 2144 58 2146 30 2128 27 b 2122 26 2114 30 2114 42 l 2114 180 b 2114 192 2122 197 2128 195 b 2146 192 2144 165 2144 150 l 2181 152 b 2181 180 2177 215 2150 227 b 2143 231 2132 233 2123 231 b 2100 229 2075 211 2075 182 l 2075 41 b 2075 12 2100 -6 2123 -9 z m 2186 -6 l 2225 -6 l 2233 50 l 2259 50 l 2266 -6 l 2305 -6 l 2265 229 l 2228 229 z m 2239 83 l 2245 131 l 2252 83 z m 2310 -6 l 2349 -6 l 2349 96 l 2360 96 l 2380 -6 l 2419 -6 l 2393 103 b 2414 117 2421 146 2421 168 b 2421 211 2396 229 2379 229 l 2310 229 z m 2370 129 l 2349 129 l 2349 195 l 2361 195 b 2385 195 2383 136 2370 129 z m 2476 -4 b 2492 -9 2513 -9 2528 1 b 2554 16 2552 52 2552 78 l 2552 146 b 2552 171 2554 208 2528 224 b 2513 233 2492 233 2476 229 b 2455 221 2444 200 2443 179 b 2441 167 2441 155 2441 144 l 2441 78 b 2441 67 2441 56 2443 43 b 2444 23 2455 3 2476 -4 z m 2501 29 b 2493 27 2485 32 2484 37 b 2478 52 2480 71 2480 83 l 2480 139 b 2480 152 2478 171 2484 187 b 2485 190 2493 195 2501 195 b 2508 192 2513 189 2513 180 b 2516 169 2514 158 2514 146 l 2514 78 b 2514 66 2516 54 2513 43 b 2513 33 2508 32 2501 29 z m 2572 -6 l 2662 -6 l 2662 33 l 2613 33 l 2613 229 l 2572 229 z"},"F":{"x_min":0,"x_max":564,"ha":564,"o":"m 250 -23 b 439 -15 513 178 576 327 l 587 352 b 639 351 694 356 721 399 b 725 405 717 411 712 406 b 697 392 677 386 657 382 b 638 379 618 379 598 379 b 622 434 648 488 679 540 b 687 553 696 565 706 577 b 740 575 774 575 808 576 b 863 579 919 592 963 625 b 1003 655 999 690 951 702 b 881 720 772 708 687 631 b 636 637 584 644 533 647 b 478 651 421 651 365 646 b 300 639 235 615 188 569 b 162 545 142 514 129 480 l 124 476 b 68 430 32 357 36 283 b 37 252 47 222 63 195 b 54 156 55 116 68 78 b 94 5 178 -26 250 -23 z m 465 347 b 481 356 501 355 519 355 l 518 352 b 482 268 454 183 403 108 b 354 36 271 -9 183 10 b 95 28 66 98 76 174 b 98 147 126 124 159 111 b 276 64 410 145 434 264 b 441 294 438 321 426 343 b 450 373 468 406 477 443 b 482 466 483 497 464 515 b 458 520 450 513 455 507 b 477 474 448 418 430 388 l 413 363 b 388 394 347 411 302 412 b 244 413 189 388 148 349 l 144 369 b 140 410 151 451 173 485 l 193 496 b 213 504 235 509 256 506 b 259 506 263 508 263 511 b 264 514 262 518 259 519 b 247 521 234 522 222 521 b 213 520 204 518 195 515 b 216 538 242 557 270 570 b 309 587 352 594 395 595 b 478 599 560 589 643 582 l 634 569 b 592 510 558 445 529 379 b 502 378 475 373 458 358 b 453 353 459 344 465 347 z m 74 238 b 52 306 72 383 118 438 b 111 401 114 363 129 330 l 116 314 b 99 291 85 264 75 236 z m 84 213 l 85 215 b 96 250 113 284 138 313 b 142 305 148 297 154 290 b 204 235 290 240 349 276 b 364 285 379 296 392 308 l 392 296 b 387 200 285 109 183 133 b 140 142 104 174 84 213 z m 154 330 b 169 345 187 357 206 367 b 244 386 291 396 332 383 b 358 375 378 355 387 331 b 373 316 357 302 340 291 b 270 245 184 259 154 330 z m 752 623 b 798 661 855 687 914 688 b 969 689 992 667 937 637 b 901 617 853 617 810 619 z"},"`":{"x_min":0,"x_max":171,"ha":171,"o":"m 190 591 l 127 575 b 145 495 189 446 220 421 l 236 431 b 205 462 179 531 190 591 z"},"k":{"x_min":0,"x_max":235,"ha":235,"o":"m 83 0 b 139 -22 189 77 281 213 b 280 220 269 229 262 228 b 196 131 149 55 129 55 b 120 55 120 65 133 99 b 147 139 149 163 118 178 b 149 186 209 236 230 271 b 252 307 242 342 214 352 b 191 360 166 348 140 324 l 273 577 l 211 577 l -93 0 l -31 0 l 48 149 b 59 150 74 153 88 160 b 102 118 29 21 83 0 z m 70 192 l 77 204 b 120 282 159 324 172 315 b 187 305 165 231 100 187 b 92 191 81 192 70 192 z"},"u":{"x_min":0,"x_max":229,"ha":229,"o":"m 0 0 b 20 0 41 14 68 50 b 66 18 80 0 101 0 b 140 0 173 59 275 213 b 274 218 264 227 256 228 b 202 150 141 53 126 53 b 121 53 117 59 131 92 b 148 129 241 302 267 350 l 204 350 b 178 299 126 205 95 136 b 67 85 45 53 25 53 b 11 53 8 70 18 92 b 35 129 127 302 153 350 l 91 350 b 60 292 -2 177 -31 109 b -59 40 -32 0 0 0 z"},"]":{"x_min":0,"x_max":316,"ha":316,"o":"m 182 511 l 296 511 l 8 -125 l -87 -125 l -93 -153 l 80 -153 l 390 540 l 188 540 z"},"U":{"x_min":0,"x_max":823,"ha":823,"o":"m 492 17 b 514 29 531 46 547 63 b 570 89 590 116 609 144 b 635 181 659 218 683 256 l 714 306 b 695 263 678 220 664 175 b 658 153 652 131 649 108 b 645 74 639 0 695 0 b 734 0 767 59 869 213 b 868 218 858 227 850 228 b 796 150 738 53 713 53 b 694 53 698 80 703 97 b 721 156 744 215 772 271 b 799 329 830 385 861 440 b 893 494 927 548 966 597 b 991 630 1033 674 1056 694 b 1058 697 1058 700 1054 703 b 1033 717 1004 712 983 700 b 810 608 635 128 473 56 b 454 48 432 54 427 75 b 419 106 439 145 457 177 b 527 297 647 439 708 511 b 743 551 809 636 761 690 b 744 708 722 716 686 718 b 635 721 581 712 529 696 b 523 700 516 705 509 708 b 425 746 316 682 250 632 b 147 552 49 439 38 304 b 34 257 41 207 67 166 b 123 79 247 74 316 145 b 322 150 314 159 308 154 b 291 141 272 131 252 125 b 193 107 124 128 93 182 b 72 218 67 260 71 301 b 82 460 281 672 439 692 b 458 695 479 692 495 684 b 470 674 446 662 423 649 b 345 604 279 555 225 483 b 172 414 128 302 231 255 b 288 230 349 265 394 299 b 496 377 604 533 561 653 b 557 663 551 673 543 682 b 588 695 633 701 671 699 b 707 697 724 681 715 650 b 704 615 678 587 629 528 b 568 456 448 316 392 205 b 371 163 347 102 366 53 b 386 2 451 -9 492 17 z m 247 284 b 137 325 235 464 286 519 b 344 583 411 628 491 663 l 513 672 b 521 664 527 654 530 642 b 555 555 448 401 369 330 b 336 303 290 270 247 284 z"},"o":{"x_min":0,"x_max":206,"ha":206,"o":"m 24 0 b 85 3 147 89 180 179 b 207 175 235 188 252 213 b 252 220 245 230 233 228 b 222 211 205 200 188 202 b 202 245 208 286 204 318 b 197 369 145 373 123 330 b 83 315 37 255 4 186 b -52 70 -21 -2 24 0 z m 47 50 b 28 52 21 90 70 192 b 87 228 102 249 115 260 l 119 241 b 125 215 138 198 154 188 b 129 114 80 46 47 50 z m 144 250 b 122 309 164 363 171 298 b 174 273 170 245 163 216 b 156 224 150 235 144 250 z"},"N":{"x_min":0,"x_max":760,"ha":760,"o":"m 336 -23 b 467 41 530 215 586 344 b 622 427 655 523 698 604 l 712 626 b 700 601 690 573 681 547 b 632 402 605 252 600 101 b 599 69 602 38 617 9 b 630 -8 645 -4 645 10 b 645 25 651 47 656 62 b 726 254 856 505 1009 632 b 1030 648 1049 662 1071 673 b 1080 677 1089 683 1094 691 b 1095 697 1093 701 1089 703 b 1069 710 1051 698 1035 688 b 1018 679 1004 668 990 656 b 869 554 739 332 665 157 b 670 217 715 437 739 528 b 749 562 759 595 773 630 b 792 679 804 691 797 703 b 778 700 732 702 691 703 b 621 705 552 706 482 695 b 431 686 377 671 338 633 b 329 625 321 615 313 606 b 286 596 260 581 238 564 b 183 520 147 455 125 389 b 119 370 114 351 110 332 b 49 255 12 159 57 64 b 105 -35 241 -70 336 -23 z m 99 64 b 54 129 66 206 100 271 b 99 256 99 241 101 226 b 115 109 220 53 322 103 b 401 143 463 236 464 326 b 472 330 480 334 487 339 b 510 356 528 379 540 406 b 563 456 571 514 556 567 b 547 594 529 620 498 621 b 490 621 489 614 497 611 b 520 607 529 582 532 561 b 540 515 530 464 507 423 b 496 400 480 382 459 370 b 450 412 424 450 383 465 b 354 475 323 475 294 467 b 293 507 305 549 326 582 b 355 595 386 601 409 593 b 412 592 415 592 417 595 b 426 608 400 614 394 615 b 380 617 366 617 352 615 l 353 616 b 387 652 438 664 485 667 b 563 674 646 669 724 676 b 706 657 692 634 679 611 b 606 478 560 331 483 198 b 427 101 342 -16 219 -4 b 195 -2 173 6 151 18 b 131 29 114 45 99 64 z m 127 315 l 138 329 b 171 368 214 410 263 433 b 264 424 266 416 268 407 b 288 335 362 304 430 316 b 425 284 411 252 395 225 b 371 190 342 157 306 138 b 233 99 154 125 130 208 b 121 243 122 279 127 315 z m 138 365 b 158 433 202 496 257 540 b 265 547 274 554 285 560 b 269 528 260 492 261 456 b 226 441 195 418 169 395 z m 296 445 b 310 449 325 451 340 450 b 393 448 426 409 431 359 b 422 357 413 356 403 356 b 382 356 361 361 342 370 b 315 388 301 415 296 445 z"},"+":{"x_min":0,"x_max":430,"ha":430,"o":"m 401 210 l 419 250 l 262 250 l 333 408 l 292 408 l 221 250 l 63 250 l 45 210 l 202 210 l 130 52 l 171 52 l 243 210 z"},"G":{"x_min":0,"x_max":695,"ha":695,"o":"m 173 -192 b 322 -241 479 -95 565 45 b 592 90 615 138 637 186 b 651 216 669 263 694 289 b 703 293 711 298 718 304 b 720 306 721 309 719 312 b 718 314 717 315 716 315 b 710 318 697 317 691 316 b 683 314 674 311 666 307 b 630 307 589 318 558 317 b 511 316 476 303 441 258 b 437 252 442 244 449 248 b 468 259 489 265 511 268 b 548 272 586 270 624 272 b 598 249 576 229 554 201 b 515 155 455 65 390 63 b 317 65 301 133 305 195 b 308 228 315 261 325 292 b 384 302 440 330 486 369 b 619 386 762 495 788 609 b 800 659 772 704 719 708 b 678 711 638 697 602 681 l 564 661 b 554 670 541 676 528 681 b 487 693 444 684 407 666 b 358 641 316 601 296 548 b 279 505 286 458 313 423 b 288 384 267 343 253 302 b 239 303 225 306 211 310 b 146 328 115 386 122 449 b 128 503 154 563 207 582 b 224 588 244 588 266 584 b 272 583 276 591 271 595 b 230 630 169 624 130 586 b 76 533 63 446 97 379 b 118 335 161 306 206 295 b 220 292 235 289 249 288 b 243 268 238 248 236 228 b 231 233 225 236 218 238 b 186 249 151 235 125 218 b 73 182 39 123 29 61 b 11 -43 69 -159 173 -192 z m 306 41 b 359 14 424 29 467 67 b 504 100 531 138 559 175 b 533 125 511 73 494 39 b 429 -98 316 -207 184 -164 b 92 -134 68 -11 91 77 b 101 119 114 163 145 193 b 166 214 201 233 224 208 b 244 186 211 141 186 124 b 139 92 186 45 226 99 b 232 107 237 115 241 123 b 251 89 273 57 306 41 z m 330 307 b 340 333 352 358 365 383 b 392 371 423 366 454 366 b 417 337 375 316 330 307 z m 333 453 b 322 478 325 507 337 532 b 368 603 462 679 543 649 b 467 602 391 532 333 453 z m 377 403 b 412 461 456 513 504 559 b 528 581 553 603 580 622 b 608 559 541 452 499 408 l 483 391 b 463 386 442 384 421 387 b 405 389 390 395 377 403 z m 524 405 b 536 419 546 432 556 447 b 587 493 624 577 591 630 b 620 649 651 665 684 674 b 756 691 778 643 742 587 b 723 557 698 532 673 508 b 638 475 599 445 557 422 b 546 416 535 410 524 405 z"},"q":{"x_min":0,"x_max":239,"ha":239,"o":"m -91 -247 l -29 -247 l 15 -162 b 79 -174 146 -184 213 -184 b 322 -184 431 -156 525 -62 b 531 -55 523 -42 511 -51 b 456 -111 384 -127 300 -127 b 222 -127 134 -113 46 -102 l 278 350 l 216 350 l 198 314 b 195 336 181 350 158 350 b 116 350 62 308 4 182 b -51 63 -42 0 4 0 b 17 0 31 5 43 14 l -12 -94 b -59 -89 -104 -85 -148 -85 b -243 -85 -328 -103 -388 -163 b -389 -165 -390 -167 -390 -168 b -390 -172 -387 -176 -383 -176 b -381 -176 -378 -175 -375 -172 b -339 -136 -291 -124 -235 -124 b -178 -124 -112 -137 -41 -151 z m 39 53 b 19 53 27 102 61 175 b 95 248 134 307 166 307 b 183 307 183 289 171 262 l 80 86 b 66 62 55 53 39 53 z"},"d":{"x_min":0,"x_max":236,"ha":236,"o":"m 3 0 b 29 0 53 18 76 47 b 75 17 89 0 109 0 b 148 0 179 59 282 213 b 280 218 271 227 263 228 b 209 150 149 53 134 53 b 129 53 125 59 140 92 b 156 129 373 528 399 577 l 336 577 l 197 316 b 193 337 179 350 157 350 b 115 350 62 308 3 182 b -52 63 -42 0 3 0 z m 359 644 l 359 646 b 358 645 358 645 359 644 z m 39 53 b 18 53 27 102 61 175 b 94 248 133 307 166 307 b 179 307 181 295 176 278 b 136 202 102 135 91 109 b 77 78 58 53 39 53 z"}}}
